<svg width="70" height="70" viewBox="0 0 70 70" fill="none" xmlns="http://www.w3.org/2000/svg">
<path fill-rule="evenodd" clip-rule="evenodd" d="M66.6129 38.3871C65.1432 38.3871 63.9011 39.3342 63.4336 40.6452H49.3389C49.5633 39.5365 49.6774 38.4031 49.6774 37.2581C49.6774 36.9498 49.6562 36.6474 49.6349 36.3449L49.6349 36.3447L49.6348 36.3421C49.6298 36.2711 49.6248 36.2001 49.6201 36.129H59.8387C65.442 36.129 70 31.571 70 25.9677C70 20.8904 66.2529 16.6835 61.3812 15.9366C60.1166 13.1575 57.3072 11.2903 54.1936 11.2903C53.2905 11.2903 52.3925 11.4474 51.5446 11.7473C48.5688 4.67325 41.6127 0 33.871 0C24.4208 0 16.495 6.80672 14.9619 16.0016C10.3002 16.9245 6.77419 21.0393 6.77419 25.9677C6.77419 31.2099 10.7644 35.5353 15.8665 36.0717L15.8554 36.2285C15.8309 36.5696 15.8065 36.9105 15.8065 37.2581C15.8065 40.3607 16.6587 43.2621 18.1218 45.7655L15.8065 48.0809L14.6774 46.9519L1.73324 59.896C0.615234 61.014 0 62.4998 0 64.0814C0 67.3445 2.65554 70 5.9186 70C7.49913 70 8.98595 69.3848 10.104 68.2668L23.0481 55.3226L21.9191 54.1936L24.2345 51.8782C26.7379 53.3413 29.6393 54.1936 32.7419 54.1936C37.0447 54.1936 41.1138 52.5937 44.2533 49.6796L51.468 49.6774L53.7261 51.9355H58.9175C59.385 53.2464 60.627 54.1936 62.0968 54.1936C63.964 54.1936 65.4839 52.6737 65.4839 50.8064C65.4839 48.9392 63.964 47.4194 62.0968 47.4194C60.627 47.4194 59.385 48.3665 58.9175 49.6774H54.661L52.403 47.4194L43.3415 47.4216L43.0118 47.7446C40.2532 50.4476 36.6064 51.9355 32.7419 51.9355C24.6491 51.9355 18.0645 45.3509 18.0645 37.2581C18.0645 29.1652 24.6491 22.5806 32.7419 22.5806C40.8348 22.5806 47.4194 29.1652 47.4194 37.2581C47.4194 38.6886 47.2148 40.0988 46.8118 41.4511L46.3785 42.9032H63.4336C63.9011 44.2142 65.1432 45.1613 66.6129 45.1613C68.4801 45.1613 70 43.6414 70 41.7742C70 39.907 68.4801 38.3871 66.6129 38.3871ZM62.0968 49.6774C62.7197 49.6774 63.2258 50.1835 63.2258 50.8064C63.2258 51.4294 62.7197 51.9355 62.0968 51.9355C61.4738 51.9355 60.9677 51.4294 60.9677 50.8064C60.9677 50.1835 61.4738 49.6774 62.0968 49.6774ZM8.50743 66.6702C7.81612 67.3615 6.89603 67.7419 5.9186 67.7419C3.89979 67.7419 2.25806 66.1002 2.25806 64.0814C2.25806 63.104 2.63845 62.1839 3.32976 61.4926L14.6774 50.1449L19.8551 55.3226L8.50743 66.6702ZM22.3309 50.5887L20.3226 52.597L17.403 49.6774L19.4113 47.6691C20.2641 48.7573 21.2427 49.7359 22.3309 50.5887ZM32.7419 20.3226C24.5768 20.3226 17.7437 26.1304 16.1554 33.8313C12.163 33.4388 9.03226 30.0616 9.03226 25.9677C9.03226 21.6109 12.5787 18.0645 16.9355 18.0645C18.8628 18.0645 20.7201 18.7658 22.1617 20.0403L23.6568 18.3468C21.8849 16.7833 19.628 15.9002 17.2718 15.8224C18.8424 7.98812 25.7219 2.25806 33.871 2.25806C41.063 2.25806 47.4861 6.83042 49.8522 13.6344L50.2927 14.8996L51.4647 14.2518C52.2977 13.7921 53.2404 13.5484 54.1936 13.5484C56.026 13.5484 57.7069 14.4536 58.7516 15.8787C55.5574 16.2254 52.6659 18.0689 51.038 20.886L52.9912 22.0172C54.4025 19.5794 57.0249 18.0645 59.8387 18.0645C64.1955 18.0645 67.7419 21.6109 67.7419 25.9677C67.7419 30.3245 64.1955 33.871 59.8387 33.871H49.3367C47.7628 26.1497 40.9208 20.3226 32.7419 20.3226ZM66.6129 42.9032C65.99 42.9032 65.4839 42.3971 65.4839 41.7742C65.4839 41.1512 65.99 40.6452 66.6129 40.6452C67.2359 40.6452 67.7419 41.1512 67.7419 41.7742C67.7419 42.3971 67.2359 42.9032 66.6129 42.9032ZM32.7419 24.8387C25.8944 24.8387 20.3226 30.4105 20.3226 37.2581C20.3226 44.1056 25.8944 49.6774 32.7419 49.6774C39.5894 49.6774 45.1613 44.1056 45.1613 37.2581C45.1613 30.4105 39.5894 24.8387 32.7419 24.8387ZM32.7419 47.4194C27.1387 47.4194 22.5806 42.8613 22.5806 37.2581C22.5806 31.6548 27.1387 27.0968 32.7419 27.0968C38.3452 27.0968 42.9032 31.6548 42.9032 37.2581C42.9032 42.8613 38.3452 47.4194 32.7419 47.4194ZM22.5773 14.0192L20.5249 13.0776C22.9125 7.87731 28.1514 4.51613 33.871 4.51613V6.77419C29.0307 6.77419 24.5972 9.61827 22.5773 14.0192ZM50.8064 29.3548H53.0645V31.6129H50.8064V29.3548ZM63.2258 25.9677H65.4839C65.4839 29.0803 62.9513 31.6129 59.8387 31.6129H55.3226V29.3548H59.8387C61.7059 29.3548 63.2258 27.8349 63.2258 25.9677ZM11.2903 25.9677H13.5484C13.5484 24.1005 15.0683 22.5806 16.9355 22.5806V20.3226C13.8229 20.3226 11.2903 22.8552 11.2903 25.9677ZM32.7419 45.1613V42.9032C35.8545 42.9032 38.3871 40.3706 38.3871 37.2581H40.6452C40.6452 41.6149 37.0987 45.1613 32.7419 45.1613Z" fill="#E21B22"/>
</svg>
