<svg width="62" height="62" viewBox="0 0 62 62" fill="none" xmlns="http://www.w3.org/2000/svg">
<path fill-rule="evenodd" clip-rule="evenodd" d="M59 34C57.6982 34 56.5982 34.8389 56.1841 36H43.7002C43.8989 35.0181 44 34.0142 44 33C44 32.727 43.9812 32.459 43.9624 32.191C43.9579 32.1274 43.9534 32.0637 43.9492 32H53C57.9629 32 62 27.9629 62 23C62 18.5029 58.6812 14.7769 54.3662 14.1152C53.2461 11.6538 50.7578 10 48 10C47.2002 10 46.4048 10.1392 45.6538 10.4048C43.0181 4.13916 36.8569 0 30 0C21.6299 0 14.6099 6.02881 13.252 14.1729C9.12305 14.9902 6 18.6348 6 23C6 27.6431 9.53418 31.4741 14.0532 31.9492L14.0433 32.0881C14.0217 32.3902 14 32.6922 14 33C14 35.7481 14.7549 38.3179 16.0508 40.5352L14 42.5859L13 41.5859L1.53516 53.0508C0.544922 54.041 0 55.3569 0 56.7578C0 59.648 2.35205 62 5.24219 62C6.64209 62 7.95899 61.4551 8.94922 60.4649L20.4141 49L19.4141 48L21.4648 45.9492C23.6821 47.2451 26.252 48 29 48C32.811 48 36.415 46.583 39.1958 44.002L45.5859 44L47.5859 46H52.1841C52.5982 47.1611 53.6982 48 55 48C56.6538 48 58 46.6538 58 45C58 43.3462 56.6538 42 55 42C53.6982 42 52.5982 42.8389 52.1841 44H48.4141L46.4141 42L38.3882 42.002L38.0962 42.2881C35.6528 44.6821 32.4229 46 29 46C21.832 46 16 40.168 16 33C16 25.832 21.832 20 29 20C36.168 20 42 25.832 42 33C42 34.2671 41.8189 35.5161 41.4619 36.7139L41.0781 38H56.1841C56.5982 39.1611 57.6982 40 59 40C60.6538 40 62 38.6538 62 37C62 35.3462 60.6538 34 59 34ZM55 44C55.5518 44 56 44.4482 56 45C56 45.5518 55.5518 46 55 46C54.4482 46 54 45.5518 54 45C54 44.4482 54.4482 44 55 44ZM7.53516 59.0508C6.92285 59.6631 6.10791 60 5.24219 60C3.4541 60 2 58.5459 2 56.7578C2 55.8921 2.33691 55.0772 2.94922 54.4649L13 44.4141L17.5859 49L7.53516 59.0508ZM19.7788 44.8071L18 46.5859L15.4141 44L17.1929 42.2212C17.9482 43.1851 18.8149 44.0518 19.7788 44.8071ZM29 18C21.7681 18 15.7158 23.144 14.3091 29.9648C10.773 29.6172 8 26.626 8 23C8 19.1411 11.1411 16 15 16C16.707 16 18.3521 16.6211 19.6289 17.75L20.9531 16.25C19.3838 14.8652 17.3848 14.083 15.2979 14.0142C16.689 7.0752 22.7822 2 30 2C36.3701 2 42.0591 6.04981 44.1548 12.0762L44.5449 13.1968L45.583 12.623C46.3208 12.2158 47.1558 12 48 12C49.6231 12 51.1118 12.8018 52.0371 14.064C49.208 14.3711 46.647 16.0039 45.2051 18.499L46.9351 19.501C48.1851 17.3418 50.5078 16 53 16C56.8589 16 60 19.1411 60 23C60 26.8589 56.8589 30 53 30H43.6982C42.3042 23.1611 36.2441 18 29 18ZM59 38C58.4482 38 58 37.5518 58 37C58 36.4482 58.4482 36 59 36C59.5518 36 60 36.4482 60 37C60 37.5518 59.5518 38 59 38ZM29 22C22.9351 22 18 26.9351 18 33C18 39.0649 22.9351 44 29 44C35.0649 44 40 39.0649 40 33C40 26.9351 35.0649 22 29 22ZM29 42C24.0371 42 20 37.9629 20 33C20 28.0371 24.0371 24 29 24C33.9629 24 38 28.0371 38 33C38 37.9629 33.9629 42 29 42ZM19.9971 12.417L18.1792 11.583C20.2939 6.97705 24.9341 4 30 4V6C25.7129 6 21.7861 8.51904 19.9971 12.417ZM45 26H47V28H45V26ZM56 23H58C58 25.7568 55.7568 28 53 28H49V26H53C54.6538 26 56 24.6538 56 23ZM10 23H12C12 21.3462 13.3462 20 15 20V18C12.2432 18 10 20.2432 10 23ZM29 40V38C31.7568 38 34 35.7568 34 33H36C36 36.8589 32.8589 40 29 40Z" fill="#E21B22"/>
</svg>
