<svg width="60" height="60" viewBox="0 0 60 60" fill="none" xmlns="http://www.w3.org/2000/svg">
<path d="M59.4152 0.245192C58.9825 -0.0571503 58.4164 -0.0810564 57.9598 0.179994L0.687232 32.9072C0.219847 33.1734 -0.0465727 33.6902 0.00673681 34.2256C0.0600463 34.761 0.422218 35.2151 0.932302 35.3842L18.0353 41.0847L24.628 59.1052C24.8265 59.6473 25.3418 60.0001 25.9077 60.0001C25.9596 60.0001 26.0129 59.9974 26.0648 59.9908C26.4333 59.9485 26.7433 59.7503 26.9624 59.4755L26.9757 59.4861L36.6776 47.2993L50.023 51.7478C50.1642 51.7957 50.3094 51.8183 50.4545 51.8183C50.6996 51.8183 50.9432 51.7517 51.1576 51.6226C51.4999 51.4176 51.7342 51.0726 51.7995 50.6785L59.9813 1.58777C60.0678 1.0681 59.8481 0.546129 59.4152 0.245192ZM4.68889 33.762L50.0643 7.83227L18.7327 38.4434L4.68889 33.762ZM26.7308 42.0996C26.5909 42.2901 26.5017 42.5124 26.4738 42.7469L25.2421 52.8436L20.6744 40.3592L47.3439 14.3037L26.7308 42.0996ZM27.8463 54.0134L28.9787 44.7328L33.9227 46.3808L27.8463 54.0134ZM49.3718 48.6567L30.043 42.2138L56.3601 6.72364L49.3718 48.6567Z" fill="#E21B22"/>
</svg>
