<svg width="60" height="60" viewBox="0 0 60 60" fill="none" xmlns="http://www.w3.org/2000/svg">
<g clip-path="url(#clip0_675_56286)">
<path fill-rule="evenodd" clip-rule="evenodd" d="M46.0836 44.4284C47.5408 43.3184 49.3576 42.6575 51.3267 42.6575C56.1079 42.6575 59.9978 46.5472 59.9977 51.3284C59.9977 56.1097 56.1079 59.9995 51.3266 59.9995C46.5452 59.9995 42.6554 56.1097 42.6554 51.3284C42.6554 49.3595 43.3162 47.5425 44.4262 46.0853L35.2428 36.902C33.7857 38.0119 31.9689 38.6727 30 38.6727C25.2186 38.6727 21.3288 34.7829 21.3288 30.0015C21.3288 28.0328 21.9896 26.2159 23.0995 24.7587L15.5241 17.1833C13.7932 18.5372 11.7029 19.2168 9.61097 19.2168C7.15039 19.2168 4.68992 18.2802 2.81667 16.407C-0.929693 12.6605 -0.929693 6.56462 2.81667 2.81825C5.18585 0.449186 8.54984 -0.507299 11.8156 0.259342C12.4456 0.40735 12.8364 1.03794 12.6885 1.66794C12.5405 2.29805 11.9096 2.68852 11.28 2.54087C8.80976 1.96102 6.26562 2.68419 4.47417 4.47575C1.64152 7.3084 1.64152 11.9175 4.47417 14.75C7.30003 17.576 11.894 17.5821 14.7282 14.7693C14.731 14.7663 14.7336 14.7633 14.7363 14.7602C14.7396 14.7563 14.743 14.7524 14.7467 14.7488C14.7508 14.7446 14.7552 14.7409 14.7595 14.7371C14.763 14.7341 14.7665 14.731 14.7699 14.7278C16.5922 12.8898 17.3016 10.1992 16.6208 7.69735C16.4509 7.07286 16.8192 6.42891 17.4437 6.25899C18.0679 6.08872 18.712 6.45727 18.882 7.08188C19.6821 10.0218 19.0292 13.159 17.1822 15.527L24.757 23.1018C25.92 22.2158 27.3125 21.6179 28.8286 21.4122V18.297C27.2019 17.7955 26.0163 16.2783 26.0163 14.4891C26.0163 12.2923 27.8035 10.505 30.0003 10.505C32.1971 10.505 33.9843 12.2922 33.9843 14.4891C33.9843 16.2781 32.7987 17.7953 31.1721 18.297V21.4122C33.6891 21.7539 35.8664 23.1781 37.2166 25.2009L46.6679 20.6186C46.4982 20.0252 46.4054 19.3999 46.4054 18.7528C46.4054 15.0054 49.4543 11.9565 53.2017 11.9565C56.9491 11.9565 59.998 15.0054 59.998 18.7528C59.998 22.5002 56.9491 25.5491 53.2017 25.5491C50.9368 25.5491 48.9284 24.4344 47.6928 22.7259L38.2409 27.3086C38.519 28.1569 38.6714 29.0617 38.6714 30.0018C38.6714 31.9707 38.0103 33.7879 36.9003 35.2451L46.0836 44.4284ZM57.6542 18.7526C57.6542 16.2974 55.6566 14.2998 53.2014 14.2998C50.7462 14.2998 48.7487 16.2973 48.7487 18.7526C48.7487 21.2078 50.7462 23.2054 53.2014 23.2054C55.6566 23.2054 57.6542 21.2078 57.6542 18.7526ZM30 12.8481C29.0953 12.8481 28.3594 13.584 28.3594 14.4886C28.3594 15.3933 29.0954 16.1291 30 16.1291C30.9046 16.1291 31.6405 15.3932 31.6405 14.4886C31.6405 13.5839 30.9045 12.8481 30 12.8481ZM23.6723 30.0016C23.6723 33.4908 26.5108 36.3293 30 36.3293C33.4891 36.3293 36.3276 33.4907 36.3276 30.0016C36.3276 26.5125 33.4891 23.674 30 23.674C26.5108 23.674 23.6723 26.5125 23.6723 30.0016ZM44.999 51.3287C44.999 54.8179 47.8375 57.6564 51.3267 57.6564C54.8157 57.6564 57.6542 54.8179 57.6543 51.3287C57.6543 47.8396 54.8158 45.0011 51.3267 45.0011C47.8375 45.0011 44.999 47.8396 44.999 51.3287ZM16.4031 2.81634L16.4452 2.85864C16.9007 3.31849 16.8972 4.0604 16.4372 4.51579C16.2088 4.7422 15.9107 4.85517 15.6127 4.85517C15.311 4.85517 15.0094 4.73938 14.7802 4.50806L14.7499 4.47747C14.2911 4.02091 14.2894 3.27911 14.7459 2.82032C15.2026 2.36153 15.9444 2.35989 16.4031 2.81634ZM19.4326 40.5688C18.975 40.1112 18.233 40.1112 17.7754 40.5688L10.7001 47.6441C9.59492 46.8662 8.24961 46.4074 6.79824 46.4074C3.05082 46.4074 0.00195312 49.4563 0.00195312 53.2037C0.00195312 56.9511 3.05082 60 6.79824 60C10.5457 60 13.5945 56.9511 13.5945 53.2037C13.5945 51.7521 13.1356 50.4065 12.3574 49.3012L19.4326 42.226C19.8902 41.7684 19.8902 41.0264 19.4326 40.5688ZM6.79824 57.6565C4.34305 57.6565 2.34547 55.6589 2.34547 53.2037C2.34547 50.7485 4.34305 48.7509 6.79824 48.7509C9.25344 48.7509 11.251 50.7485 11.251 53.2037C11.251 55.6589 9.25344 57.6565 6.79824 57.6565ZM21.3876 37.4426C21.6957 37.4426 21.998 37.568 22.216 37.7859C22.4339 38.0038 22.5594 38.3063 22.5594 38.6143C22.5594 38.9224 22.434 39.2248 22.216 39.4427C21.9982 39.6607 21.6958 39.7861 21.3876 39.7861C21.0795 39.7861 20.7772 39.6607 20.5592 39.4427C20.3412 39.2249 20.2159 38.9224 20.2159 38.6143C20.2159 38.3063 20.3412 38.0039 20.5592 37.7859C20.7771 37.568 21.0795 37.4426 21.3876 37.4426Z" fill="#E21B22"/>
</g>
<defs>
<clipPath id="clip0_675_56286">
<rect width="60" height="60" fill="white"/>
</clipPath>
</defs>
</svg>
