<svg width="60" height="60" viewBox="0 0 60 60" fill="none" xmlns="http://www.w3.org/2000/svg">
<path d="M57.2937 9.84375H45C44.5143 9.84375 44.1211 10.237 44.1211 10.7227C44.1211 11.2083 44.5143 11.6016 45 11.6016H57.2937C57.8169 11.6016 58.2422 12.0268 58.2422 12.55V46.3953C58.2422 46.9185 57.8169 47.3438 57.2937 47.3438H2.7063C2.18307 47.3438 1.75781 46.9185 1.75781 46.3953V12.55C1.75781 12.0268 2.18307 11.6016 2.7063 11.6016H22.0166V13.3594H4.39453C3.90884 13.3594 3.51562 13.7526 3.51562 14.2383V37.4611C3.51562 37.9463 3.90884 38.34 4.39453 38.34C4.88022 38.34 5.27344 37.9463 5.27344 37.4611V15.1172H22.0166V19.8322L18.2538 21.6298C17.9535 21.7735 17.7539 22.0839 17.7539 22.4231V36.7566C17.7539 37.0953 17.9485 37.4039 18.2538 37.5499L29.621 42.9808C29.8672 43.0966 30.1451 43.0907 30.379 42.9808L36.7694 39.9275C37.2075 39.7183 37.3929 39.1933 37.1837 38.7556C36.9745 38.3176 36.449 38.1322 36.0114 38.3414L30.8789 40.7936V28.4079L40.4883 23.817V36.2027L39.1827 36.8262C38.7447 37.0354 38.5593 37.5604 38.7685 37.998C38.9777 38.4361 39.5027 38.6215 39.9403 38.4123L41.7462 37.5499C42.0515 37.4039 42.2461 37.0953 42.2461 36.7566V22.4231C42.2461 22.088 42.0511 21.7758 41.7462 21.6298L37.9834 19.8322V15.1172H54.7266V43.8281H5.27344V41.2111C5.27344 40.7254 4.88022 40.3322 4.39453 40.3322C3.90884 40.3322 3.51562 40.7254 3.51562 41.2111V44.707C3.51562 45.1927 3.90884 45.5859 4.39453 45.5859H55.6055C56.0912 45.5859 56.4844 45.1927 56.4844 44.707V14.2383C56.4844 13.7526 56.0912 13.3594 55.6055 13.3594H37.9834V11.6016H41.25C41.7357 11.6016 42.1289 11.2083 42.1289 10.7227C42.1289 10.237 41.7357 9.84375 41.25 9.84375H37.9834V8.08594H45.8643C46.3499 8.08594 46.7432 7.69272 46.7432 7.20703V5.12238C47.7663 4.75937 48.501 3.7825 48.501 2.63672C48.501 1.18286 47.3181 0 45.8643 0C44.4104 0 43.2275 1.18286 43.2275 2.63672C43.2275 3.7825 43.9622 4.75937 44.9854 5.12238V6.32812H37.1045C36.6188 6.32812 36.2256 6.72134 36.2256 7.20703V9.84375H30.8789V5.12238C31.902 4.75937 32.6367 3.7825 32.6367 2.63672C32.6367 1.18286 31.4539 0 30 0C28.5461 0 27.3633 1.18286 27.3633 2.63672C27.3633 3.7825 28.098 4.75937 29.1211 5.12238V9.84375H23.7744V7.20703C23.7744 6.72134 23.3812 6.32812 22.8955 6.32812H15.0146V5.12238C16.0378 4.75937 16.7725 3.7825 16.7725 2.63672C16.7725 1.18286 15.5896 0 14.1357 0C12.6819 0 11.499 1.18286 11.499 2.63672C11.499 3.7825 12.2337 4.75937 13.2568 5.12238V7.20703C13.2568 7.69272 13.6501 8.08594 14.1357 8.08594H22.0166V9.84375H2.7063C1.21399 9.84375 0 11.0577 0 12.55V46.3953C0 47.8876 1.21399 49.1016 2.7063 49.1016H21.7612C21.4211 52.3256 19.2892 54.2084 18.6172 54.7266H14.8828C13.429 54.7266 12.2461 55.9094 12.2461 57.3633C12.2461 58.8171 13.429 60 14.8828 60H45.1172C46.571 60 47.7539 58.8171 47.7539 57.3633C47.7539 55.9094 46.571 54.7266 45.1172 54.7266H41.385C40.7217 54.2102 38.5826 52.3105 38.2397 49.1016H57.2937C58.786 49.1016 60 47.8876 60 46.3953V12.55C60 11.0577 58.786 9.84375 57.2937 9.84375ZM45.8643 1.75781C46.349 1.75781 46.7432 2.15195 46.7432 2.63672C46.7432 3.12149 46.349 3.51562 45.8643 3.51562C45.3795 3.51562 44.9854 3.12149 44.9854 2.63672C44.9854 2.15195 45.3795 1.75781 45.8643 1.75781ZM30 1.75781C30.4848 1.75781 30.8789 2.15195 30.8789 2.63672C30.8789 3.12149 30.4848 3.51562 30 3.51562C29.5152 3.51562 29.1211 3.12149 29.1211 2.63672C29.1211 2.15195 29.5152 1.75781 30 1.75781ZM14.1357 1.75781C14.6205 1.75781 15.0146 2.15195 15.0146 2.63672C15.0146 3.12149 14.6205 3.51562 14.1357 3.51562C13.651 3.51562 13.2568 3.12149 13.2568 2.63672C13.2568 2.15195 13.651 1.75781 14.1357 1.75781ZM23.7744 15.1172H29.1211V16.4378L23.7744 18.9926V15.1172ZM39.3283 22.4231L30 26.8794L20.6717 22.4231L30 17.9663L39.3283 22.4231ZM19.5117 23.817L29.1211 28.4079V40.7936L19.5117 36.2027V23.817ZM36.2256 18.9926L30.8789 16.4378V15.1172H36.2256V18.9926ZM36.2256 11.6016V13.3594H30.8789V11.6016H36.2256ZM29.1211 11.6016V13.3594H23.7744V11.6016H29.1211ZM45.9961 57.3633C45.9961 57.8481 45.602 58.2422 45.1172 58.2422H14.8828C14.398 58.2422 14.0039 57.8481 14.0039 57.3633C14.0039 56.8785 14.398 56.4844 14.8828 56.4844H45.1172C45.602 56.4844 45.9961 56.8785 45.9961 57.3633ZM38.8641 54.7266H21.1359C22.1663 53.5231 23.3093 51.6476 23.5286 49.1016H36.4714C36.6907 51.6476 37.8337 53.5231 38.8641 54.7266Z" fill="#E21B22"/>
</svg>
