<svg width="54" height="60" viewBox="0 0 54 60" fill="none" xmlns="http://www.w3.org/2000/svg">
<path fill-rule="evenodd" clip-rule="evenodd" d="M25.3519 3.78587C25.3519 4.80788 26.1803 5.63625 27.2023 5.63625C28.2243 5.63625 29.0528 4.8078 29.0528 3.78587C29.0528 2.76393 28.2243 1.93548 27.2023 1.93548C26.1803 1.93548 25.3519 2.76385 25.3519 3.78587ZM27.2023 7.57173C25.1114 7.57173 23.4165 5.87682 23.4165 3.78587C23.4165 1.69491 25.1114 0 27.2023 0C29.2931 0 30.9883 1.69483 30.9883 3.78587C30.9883 5.8769 29.2931 7.57173 27.2023 7.57173ZM14.5349 37.9284L26.2346 44.6833V30.6473L21.1738 27.7254V31.0572C21.1738 31.5917 20.7406 32.0249 20.2061 32.0249C19.6716 32.0249 19.2383 31.5917 19.2383 31.0572V26.608L14.0793 23.6294V37.1394C14.0793 37.4647 14.2529 37.7656 14.5349 37.9284ZM22.118 26.0357L27.2027 28.9713L36.8755 23.3867C37.3383 23.1195 37.9302 23.2781 38.1974 23.7409C38.4647 24.2038 38.3061 24.7957 37.8432 25.0629L28.1701 30.6477V44.6834L39.87 37.9283C40.1519 37.7656 40.3255 37.4649 40.3255 37.1394V23.0381C40.3255 22.7125 40.1517 22.4117 39.87 22.2492L34.2695 19.0157L22.118 26.0357ZM32.3343 17.8984L20.1829 24.9184L15.0473 21.9533L26.7469 15.1985C27.0287 15.0358 27.376 15.0357 27.6578 15.1984L32.3343 17.8984ZM28.6256 46.6553C27.7449 47.1636 26.6599 47.1636 25.7792 46.6553L13.5671 39.6045C12.6864 39.0961 12.1438 38.1563 12.1438 37.1394V23.0381C12.1438 22.0211 12.6864 21.0813 13.5673 20.5729L25.7791 13.5223C26.6598 13.0138 27.745 13.0138 28.6257 13.5223L40.8376 20.5729C41.7186 21.0814 42.261 22.0213 42.261 23.0381V37.1394C42.261 38.1562 41.7185 39.096 40.8377 39.6045L28.6256 46.6553ZM49.7477 18.7877C48.7258 18.7877 47.8973 17.9592 47.8973 16.9373C47.8973 15.9153 48.7258 15.0868 49.7477 15.0868C50.7697 15.0868 51.5982 15.9153 51.5982 16.9373C51.5982 17.9592 50.7697 18.7877 49.7477 18.7877ZM45.9618 16.9373C45.9618 19.0282 47.6568 20.7232 49.7477 20.7232C51.8386 20.7232 53.5337 19.0282 53.5337 16.9373C53.5337 14.8464 51.8386 13.1513 49.7477 13.1513C47.6568 13.1513 45.9618 14.8464 45.9618 16.9373ZM47.8973 43.2401C47.8973 44.2622 48.7258 45.0906 49.7477 45.0906C50.7697 45.0906 51.5982 44.2622 51.5982 43.2401C51.5982 42.2183 50.7697 41.3898 49.7477 41.3898C48.7258 41.3898 47.8973 42.2182 47.8973 43.2401ZM49.7477 47.0261C47.6568 47.0261 45.9618 45.3311 45.9618 43.2401C45.9618 41.1493 47.6568 39.4543 49.7477 39.4543C51.8386 39.4543 53.5337 41.1493 53.5337 43.2401C53.5337 45.3311 51.8386 47.0261 49.7477 47.0261ZM27.2023 58.2421C26.1803 58.2421 25.3519 57.4137 25.3519 56.3917C25.3519 55.3697 26.1803 54.5413 27.2023 54.5413C28.2243 54.5413 29.0528 55.3698 29.0528 56.3917C29.0528 57.4136 28.2243 58.2421 27.2023 58.2421ZM23.4165 56.3917C23.4165 58.4827 25.1114 60.1776 27.2023 60.1776C29.2931 60.1776 30.9883 58.4827 30.9883 56.3917C30.9883 54.3007 29.2931 52.6058 27.2023 52.6058C25.1114 52.6058 23.4165 54.3008 23.4165 56.3917ZM2.80658 43.2401C2.80658 44.2622 3.63506 45.0906 4.65708 45.0906C5.67895 45.0906 6.50746 44.2622 6.50746 43.2401C6.50746 42.2182 5.67898 41.3898 4.65708 41.3898C3.63504 41.3898 2.80658 42.2183 2.80658 43.2401ZM4.65708 47.0261C2.56612 47.0261 0.871094 45.3311 0.871094 43.2401C0.871094 41.1493 2.56615 39.4543 4.65708 39.4543C6.74791 39.4543 8.44294 41.1493 8.44294 43.2401C8.44294 45.3311 6.74794 47.0261 4.65708 47.0261ZM4.65708 18.7877C3.63504 18.7877 2.80658 17.9592 2.80658 16.9373C2.80658 15.9153 3.63506 15.0868 4.65708 15.0868C5.67895 15.0868 6.50746 15.9153 6.50746 16.9373C6.50746 17.9592 5.67898 18.7877 4.65708 18.7877ZM0.871094 16.9373C0.871094 19.0282 2.56615 20.7232 4.65708 20.7232C6.74791 20.7232 8.44294 19.0282 8.44294 16.9373C8.44294 14.8464 6.74794 13.1513 4.65708 13.1513C2.56612 13.1513 0.871094 14.8464 0.871094 16.9373ZM10.7708 14.3902C10.3079 14.6575 9.71604 14.4989 9.4488 14.036C9.18157 13.5732 9.34016 12.9813 9.80303 12.7141L21.0284 6.23312C21.4913 5.96589 22.0831 6.12448 22.3504 6.58735C22.6176 7.05021 22.459 7.64207 21.9962 7.9093L10.7708 14.3902ZM44.9561 14.036C45.2233 13.5732 45.0647 12.9813 44.6019 12.7141L33.3766 6.23313C32.9137 5.96589 32.3219 6.12448 32.0546 6.58734C31.7874 7.0502 31.946 7.64207 32.4089 7.9093L43.6341 14.3902C44.097 14.6575 44.6889 14.4989 44.9561 14.036ZM50.9489 36.6763C50.9489 37.2108 50.5156 37.644 49.9812 37.644C49.4467 37.644 49.0134 37.2108 49.0134 36.6763V23.5011C49.0134 22.9667 49.4467 22.5334 49.9812 22.5334C50.5156 22.5334 50.9489 22.9667 50.9489 23.5011V36.6763ZM32.0546 53.5901C32.3219 54.053 32.9137 54.2116 33.3766 53.9443L44.6019 47.4634C45.0647 47.1962 45.2233 46.6043 44.9561 46.1414C44.6889 45.6786 44.097 45.52 43.6341 45.7872L32.4089 52.2682C31.946 52.5354 31.7874 53.1272 32.0546 53.5901ZM21.996 52.2682C22.4589 52.5354 22.6175 53.1272 22.3503 53.5901C22.083 54.053 21.4912 54.2116 21.0283 53.9443L9.80302 47.4634C9.34016 47.1962 9.18157 46.6043 9.44881 46.1414C9.71604 45.6786 10.3079 45.52 10.7708 45.7872L21.996 52.2682ZM4.42358 37.644C4.95805 37.644 5.39132 37.2108 5.39132 36.6763V23.5011C5.39132 22.9667 4.95805 22.5334 4.42358 22.5334C3.88911 22.5334 3.45583 22.9667 3.45583 23.5011V36.6763C3.45583 37.2108 3.88911 37.644 4.42358 37.644Z" fill="#E21B22"/>
</svg>
