<svg width="60" height="60" viewBox="0 0 60 60" fill="none" xmlns="http://www.w3.org/2000/svg">
<path fill-rule="evenodd" clip-rule="evenodd" d="M57.0968 32.9032C55.837 32.9032 54.7724 33.715 54.3717 34.8387H42.2905C42.4828 33.8885 42.5806 32.9169 42.5806 31.9355C42.5806 31.6713 42.5624 31.4121 42.5442 31.1528L42.5442 31.1526C42.5399 31.091 42.5356 31.0294 42.5315 30.9677H51.2903C56.0931 30.9677 60 27.0609 60 22.2581C60 17.9061 56.7882 14.3002 52.6125 13.6599C51.5285 11.2779 49.1205 9.67742 46.4516 9.67742C45.6776 9.67742 44.9079 9.81209 44.1811 10.0691C41.6304 4.00564 35.668 0 29.0323 0C20.9321 0 14.1386 5.83433 12.8245 13.7157C8.82875 14.5067 5.80645 18.0336 5.80645 22.2581C5.80645 26.7514 9.22663 30.4588 13.5999 30.9186L13.5903 31.053L13.5903 31.0531C13.5693 31.3454 13.5484 31.6376 13.5484 31.9355C13.5484 34.5949 14.2789 37.0818 15.533 39.2276L13.5484 41.2122L12.5806 40.2445L1.48564 51.3395C0.527344 52.2978 0 53.5712 0 54.9269C0 57.7238 2.27618 60 5.07308 60C6.42783 60 7.70224 59.4727 8.66053 58.5144L19.7555 47.4194L18.7878 46.4516L20.7724 44.467C22.9182 45.7211 25.4051 46.4516 28.0645 46.4516C31.7526 46.4516 35.2404 45.0803 37.9314 42.5825L44.1154 42.5806L46.0509 44.5161H50.5007C50.9014 45.6398 51.966 46.4516 53.2258 46.4516C54.8263 46.4516 56.129 45.1488 56.129 43.5484C56.129 41.9479 54.8263 40.6452 53.2258 40.6452C51.966 40.6452 50.9014 41.457 50.5007 42.5806H46.8523L44.9168 40.6452L37.1499 40.647L36.8673 40.924C34.5027 43.2408 31.377 44.5161 28.0645 44.5161C21.1278 44.5161 15.4839 38.8722 15.4839 31.9355C15.4839 24.9987 21.1278 19.3548 28.0645 19.3548C35.0013 19.3548 40.6452 24.9987 40.6452 31.9355C40.6452 33.1617 40.4699 34.3704 40.1244 35.5295L39.753 36.7742H54.3717C54.7724 37.8979 55.837 38.7097 57.0968 38.7097C58.6972 38.7097 60 37.4069 60 35.8064C60 34.206 58.6972 32.9032 57.0968 32.9032ZM53.2258 42.5806C53.7598 42.5806 54.1935 43.0144 54.1935 43.5484C54.1935 44.0823 53.7598 44.5161 53.2258 44.5161C52.6918 44.5161 52.2581 44.0823 52.2581 43.5484C52.2581 43.0144 52.6918 42.5806 53.2258 42.5806ZM7.29209 57.1459C6.69953 57.7385 5.91088 58.0645 5.07308 58.0645C3.34268 58.0645 1.93548 56.6573 1.93548 54.9269C1.93548 54.0891 2.26153 53.3005 2.85408 52.7079L12.5806 42.9813L17.0186 47.4194L7.29209 57.1459ZM19.1408 43.3617L17.4194 45.0832L14.9168 42.5806L16.6383 40.8592C17.3693 41.792 18.208 42.6307 19.1408 43.3617ZM28.0645 17.4194C21.0659 17.4194 15.2089 22.3975 13.8475 28.9982C10.4254 28.6618 7.74194 25.7671 7.74194 22.2581C7.74194 18.5237 10.7817 15.4839 14.5161 15.4839C16.1681 15.4839 17.76 16.0849 18.9957 17.1774L20.2772 15.7258C18.7585 14.3857 16.824 13.6287 14.8044 13.5621C16.1506 6.84696 22.0473 1.93548 29.0323 1.93548C35.1969 1.93548 40.7023 5.85465 42.7304 11.6866L43.108 12.7711L44.1126 12.2159C44.8266 11.8218 45.6346 11.6129 46.4516 11.6129C48.0223 11.6129 49.463 12.3888 50.3585 13.6103C47.6207 13.9075 45.1422 15.4877 43.7468 17.9023L45.421 18.8719C46.6307 16.7824 48.8785 15.4839 51.2903 15.4839C55.0247 15.4839 58.0645 18.5237 58.0645 22.2581C58.0645 25.9925 55.0247 29.0323 51.2903 29.0323H42.2886C40.9395 22.414 35.075 17.4194 28.0645 17.4194ZM57.0968 36.7742C56.5628 36.7742 56.129 36.3404 56.129 35.8064C56.129 35.2725 56.5628 34.8387 57.0968 34.8387C57.6307 34.8387 58.0645 35.2725 58.0645 35.8064C58.0645 36.3404 57.6307 36.7742 57.0968 36.7742ZM28.0645 21.2903C22.1952 21.2903 17.4194 26.0662 17.4194 31.9355C17.4194 37.8048 22.1952 42.5806 28.0645 42.5806C33.9338 42.5806 38.7097 37.8048 38.7097 31.9355C38.7097 26.0662 33.9338 21.2903 28.0645 21.2903ZM28.0645 40.6452C23.2617 40.6452 19.3548 36.7383 19.3548 31.9355C19.3548 27.1327 23.2617 23.2258 28.0645 23.2258C32.8673 23.2258 36.7742 27.1327 36.7742 31.9355C36.7742 36.7383 32.8673 40.6452 28.0645 40.6452ZM19.352 12.0164L17.5928 11.2094C19.6393 6.75198 24.1298 3.87097 29.0323 3.87097V5.80645C24.8834 5.80645 21.0834 8.24423 19.352 12.0164ZM43.5484 25.1613H45.4839V27.0968H43.5484V25.1613ZM54.1935 22.2581H56.129C56.129 24.926 53.9582 27.0968 51.2903 27.0968H47.4194V25.1613H51.2903C52.8908 25.1613 54.1935 23.8585 54.1935 22.2581ZM9.67742 22.2581H11.6129C11.6129 20.6576 12.9157 19.3548 14.5161 19.3548V17.4194C11.8482 17.4194 9.67742 19.5902 9.67742 22.2581ZM28.0645 38.7097V36.7742C30.7324 36.7742 32.9032 34.6034 32.9032 31.9355H34.8387C34.8387 35.6699 31.7989 38.7097 28.0645 38.7097Z" fill="#E21B22"/>
</svg>
