<svg width="60" height="60" viewBox="0 0 60 60" fill="none" xmlns="http://www.w3.org/2000/svg">
<path fill-rule="evenodd" clip-rule="evenodd" d="M49.5799 28.9998C50.083 26.6739 52.2368 25.0031 54.7367 24.9998C57.5064 24.9998 59.802 27.0392 59.9879 29.6645C60.1739 32.2897 58.1858 34.6028 55.4412 34.9548C52.696 35.3073 50.134 33.5779 49.5799 31.0002H36.7356C36.4923 32.0952 35.8678 33.0803 34.9629 33.7971L38.5194 39.9998H42.2114C42.752 37.4849 45.209 35.7674 47.8973 36.0255C50.5855 36.2833 52.6315 38.4334 52.6315 41.0001C52.6315 43.5667 50.5855 45.7169 47.8973 45.9746C45.209 46.2328 42.752 44.5148 42.2114 41.9998H38.9473V48.5861L42.541 52.0001H47.4747C48.0148 49.4852 50.4723 47.7672 53.1606 48.0254C55.8488 48.2831 57.8948 50.4332 57.8948 52.9999C57.8948 55.567 55.8488 57.7167 53.1606 57.9749C50.4723 58.2326 48.0148 56.515 47.4747 54.0001H42.541C41.983 53.9987 41.4481 53.7881 41.0525 53.4142L40.15 52.5563C39.4104 52.8163 38.6577 53.0411 37.8945 53.2292V58C37.893 59.1042 36.9515 59.9986 35.7892 60H27.3684C26.2061 59.9986 25.2646 59.1042 25.2631 58V53.2306C22.9748 52.6762 20.7809 51.8152 18.748 50.6744L15.2078 54.0372C14.8151 54.4185 14.2773 54.6323 13.716 54.63H13.714C13.1488 54.6313 12.6077 54.4139 12.215 54.028L6.27663 48.387C5.87573 48.0116 5.65118 47.4985 5.65263 46.9633C5.65456 46.4287 5.88247 45.9169 6.28579 45.5434L9.81585 42.1898C8.61507 40.258 7.70918 38.1738 7.12469 35.9999H2.10522C0.942988 35.9985 0.00144461 35.1041 0 33.9999V26.0001C0.00144461 24.8959 0.942988 24.0015 2.10522 24.0001H7.12469C7.70918 21.8262 8.61507 19.742 9.81585 17.8102L6.27663 14.4475C5.87573 14.0717 5.65118 13.5585 5.65263 13.0234C5.65456 12.4887 5.88247 11.9769 6.28579 11.6034L12.2242 5.96283C12.6154 5.58151 13.1532 5.36774 13.7136 5.37002H13.7155C14.2812 5.36865 14.8233 5.58563 15.217 5.97107L18.748 9.32602C20.7809 8.18527 22.9748 7.32422 25.2631 6.76987V1.99997C25.2646 0.895843 26.2061 0.0013724 27.3684 0H35.7892C36.9515 0.0013724 37.893 0.895843 37.8945 1.99997V6.77078C38.6577 6.95892 39.4104 7.18368 40.15 7.44369L41.0525 6.58584C41.4481 6.21185 41.983 6.00128 42.541 5.99991H47.4747C48.0148 3.48495 50.4723 1.76742 53.1606 2.02515C55.8488 2.28332 57.8948 4.43298 57.8948 7.00012C57.8948 9.5668 55.8488 11.7169 53.1606 11.9746C50.4723 12.2328 48.0148 10.5148 47.4747 7.99988H42.541L38.9473 11.4139V18.0002H42.2114C42.752 15.4852 45.209 13.7672 47.8973 14.0254C50.5855 14.2831 52.6315 16.4333 52.6315 18.9999C52.6315 21.5666 50.5855 23.7167 47.8973 23.9745C45.209 24.2326 42.752 22.5151 42.2114 20.0002H38.5194L34.9629 26.2029C35.8678 26.9197 36.4923 27.9048 36.7356 28.9998H49.5799ZM55.7891 7.00012C55.7891 5.34302 54.3753 3.99994 52.6315 3.99994C50.8881 4.00177 49.4753 5.34393 49.4734 7.00012C49.4734 8.65677 50.8872 9.99985 52.6315 9.99985C54.3753 9.99985 55.7891 8.65677 55.7891 7.00012ZM55.7891 52.9999C55.7891 51.3432 54.3753 50.0002 52.6315 50.0002C50.8881 50.002 49.4753 51.3437 49.4734 52.9999C49.4734 54.657 50.8872 56.0001 52.6315 56.0001C54.3753 56.0001 55.7891 54.657 55.7891 52.9999ZM28.4207 30C28.4207 31.6566 29.835 33.0002 31.5788 33.0002C33.3221 32.9984 34.7349 31.6562 34.7369 30C34.7369 28.3434 33.3226 26.9998 31.5788 26.9998C29.835 26.9998 28.4207 28.3434 28.4207 30ZM50.5263 18.9999C50.5263 17.3433 49.112 16.0002 47.3682 16.0002C45.6248 16.002 44.212 17.3438 44.2101 18.9999C44.2101 20.657 45.6244 22.0001 47.3682 22.0001C49.112 22.0001 50.5263 20.657 50.5263 18.9999ZM35.7892 52.44C35.7892 51.9713 36.1318 51.5652 36.6137 51.4641C37.2647 51.3263 37.8906 51.1642 38.4958 50.9848L37.4589 50.0002C37.0628 49.6257 36.8406 49.1167 36.8421 48.5861V47.2902C29.1016 49.4188 20.791 46.664 16.1252 40.4224C11.459 34.1812 11.459 25.8188 16.1252 19.5776C20.791 13.336 29.1016 10.5812 36.8421 12.7098V11.4139C36.8406 10.8833 37.0623 10.3743 37.4589 9.99985L38.4958 9.01474C37.8906 8.83621 37.2647 8.67371 36.6137 8.53592C36.1318 8.43475 35.7892 8.02872 35.7892 7.55997V1.99997H27.3684V7.55997C27.3684 8.02963 27.0243 8.43658 26.541 8.53729C23.9188 9.08295 21.4184 10.0635 19.1542 11.434C18.7383 11.6853 18.1943 11.6281 17.8455 11.2967L13.7193 7.37686L7.76556 13.027L11.8917 16.9533C12.2405 17.2842 12.3003 17.8011 12.0358 18.1961C10.5936 20.3471 9.56095 22.7229 8.98561 25.2141C8.88009 25.6728 8.4522 26.0001 7.95782 26.0001H2.10522V33.9999H7.95782C8.4522 34.0004 8.88009 34.3272 8.98561 34.7864C9.56095 37.2771 10.5936 39.6529 12.0358 41.8039C12.3003 42.1989 12.2405 42.7158 11.8917 43.0472L7.76556 46.967L13.7131 52.6231L17.8455 48.7033C18.1943 48.3728 18.7374 48.316 19.1537 48.566C21.4179 49.9365 23.9183 50.9171 26.541 51.4632C27.0238 51.5634 27.3684 51.9699 27.3684 52.44V58H35.7892V52.44ZM50.5263 41.0001C50.5263 39.343 49.112 37.9999 47.3682 37.9999C45.6248 38.0017 44.212 39.3439 44.2101 41.0001C44.2101 42.6567 45.6244 43.9998 47.3682 43.9998C49.112 43.9998 50.5263 42.6567 50.5263 41.0001ZM36.8421 45.1868V41.2546L33.1164 34.7571C32.6196 34.9109 32.1011 34.9928 31.5788 35.0002C28.6722 35.0002 26.3155 32.7612 26.3155 30C26.3155 27.2388 28.6722 24.9998 31.5788 24.9998C32.1011 25.0072 32.6196 25.0891 33.1164 25.2429L36.8421 18.7454V14.8132C29.8928 12.6242 22.2506 14.9506 17.9356 20.5696C13.6201 26.1882 13.6201 33.8118 17.9356 39.4304C22.2506 45.0494 29.8928 47.3758 36.8421 45.1868ZM51.5786 30C51.5786 31.6566 52.9924 33.0002 54.7367 33.0002C56.48 32.9984 57.8924 31.6562 57.8943 30C57.8943 28.3434 56.4805 26.9998 54.7367 26.9998C52.9924 26.9998 51.5786 28.3434 51.5786 30ZM16.8422 28.9998C16.9208 25.0063 19.0848 21.3112 22.6163 19.1428C23.1131 18.8676 23.7506 19.0233 24.0474 19.4911C24.3438 19.9594 24.19 20.5673 23.7014 20.8562C20.7987 22.6584 19.0197 25.7062 18.9475 28.9998C18.9475 29.5523 18.4762 30 17.8946 30C17.3135 30 16.8422 29.5523 16.8422 28.9998Z" fill="#E21B22"/>
</svg>
