<svg width="50" height="50" viewBox="0 0 50 50" fill="none" xmlns="http://www.w3.org/2000/svg">
<path d="M47.7448 8.20312H37.5C37.0953 8.20312 36.7676 8.53081 36.7676 8.93555C36.7676 9.34029 37.0953 9.66797 37.5 9.66797H47.7448C48.1808 9.66797 48.5352 10.0224 48.5352 10.4584V38.6627C48.5352 39.0987 48.1808 39.4531 47.7448 39.4531H2.25525C1.81923 39.4531 1.46484 39.0987 1.46484 38.6627V10.4584C1.46484 10.0224 1.81923 9.66797 2.25525 9.66797H18.3472V11.1328H3.66211C3.25737 11.1328 2.92969 11.4605 2.92969 11.8652V31.2176C2.92969 31.6219 3.25737 31.95 3.66211 31.95C4.06685 31.95 4.39453 31.6219 4.39453 31.2176V12.5977H18.3472V16.5268L15.2115 18.0248C14.9612 18.1446 14.7949 18.4032 14.7949 18.6859V30.6305C14.7949 30.9128 14.957 31.1699 15.2115 31.2916L24.6841 35.8173C24.8894 35.9138 25.1209 35.9089 25.3159 35.8173L30.6412 33.2729C31.0062 33.0986 31.1607 32.6611 30.9864 32.2964C30.8121 31.9313 30.3741 31.7768 30.0095 31.9511L25.7324 33.9947V23.6732L33.7402 19.8475V30.1689L32.6523 30.6885C32.2872 30.8628 32.1327 31.3004 32.3071 31.665C32.4814 32.0301 32.9189 32.1846 33.2836 32.0103L34.7885 31.2916C35.043 31.1699 35.2051 30.9128 35.2051 30.6305V18.6859C35.2051 18.4067 35.0426 18.1465 34.7885 18.0248L31.6528 16.5268V12.5977H45.6055V36.5234H4.39453V34.3426C4.39453 33.9378 4.06685 33.6102 3.66211 33.6102C3.25737 33.6102 2.92969 33.9378 2.92969 34.3426V37.2559C2.92969 37.6606 3.25737 37.9883 3.66211 37.9883H46.3379C46.7426 37.9883 47.0703 37.6606 47.0703 37.2559V11.8652C47.0703 11.4605 46.7426 11.1328 46.3379 11.1328H31.6528V9.66797H34.375C34.7797 9.66797 35.1074 9.34029 35.1074 8.93555C35.1074 8.53081 34.7797 8.20312 34.375 8.20312H31.6528V6.73828H38.2202C38.625 6.73828 38.9526 6.4106 38.9526 6.00586V4.26865C39.8052 3.96614 40.4175 3.15208 40.4175 2.19727C40.4175 0.985718 39.4318 0 38.2202 0C37.0087 0 36.0229 0.985718 36.0229 2.19727C36.0229 3.15208 36.6352 3.96614 37.4878 4.26865V5.27344H30.9204C30.5157 5.27344 30.188 5.60112 30.188 6.00586V8.20312H25.7324V4.26865C26.585 3.96614 27.1973 3.15208 27.1973 2.19727C27.1973 0.985718 26.2115 0 25 0C23.7885 0 22.8027 0.985718 22.8027 2.19727C22.8027 3.15208 23.415 3.96614 24.2676 4.26865V8.20312H19.812V6.00586C19.812 5.60112 19.4843 5.27344 19.0796 5.27344H12.5122V4.26865C13.3648 3.96614 13.9771 3.15208 13.9771 2.19727C13.9771 0.985718 12.9913 0 11.7798 0C10.5682 0 9.58252 0.985718 9.58252 2.19727C9.58252 3.15208 10.1948 3.96614 11.0474 4.26865V6.00586C11.0474 6.4106 11.375 6.73828 11.7798 6.73828H18.3472V8.20312H2.25525C1.01166 8.20312 0 9.21478 0 10.4584V38.6627C0 39.9063 1.01166 40.918 2.25525 40.918H18.1343C17.8509 43.6047 16.0744 45.1736 15.5144 45.6055H12.4023C11.1908 45.6055 10.2051 46.5912 10.2051 47.8027C10.2051 49.0143 11.1908 50 12.4023 50H37.5977C38.8092 50 39.7949 49.0143 39.7949 47.8027C39.7949 46.5912 38.8092 45.6055 37.5977 45.6055H34.4875C33.9348 45.1752 32.1522 43.5921 31.8665 40.918H47.7448C48.9883 40.918 50 39.9063 50 38.6627V10.4584C50 9.21478 48.9883 8.20312 47.7448 8.20312ZM38.2202 1.46484C38.6242 1.46484 38.9526 1.79329 38.9526 2.19727C38.9526 2.60124 38.6242 2.92969 38.2202 2.92969C37.8162 2.92969 37.4878 2.60124 37.4878 2.19727C37.4878 1.79329 37.8162 1.46484 38.2202 1.46484ZM25 1.46484C25.404 1.46484 25.7324 1.79329 25.7324 2.19727C25.7324 2.60124 25.404 2.92969 25 2.92969C24.596 2.92969 24.2676 2.60124 24.2676 2.19727C24.2676 1.79329 24.596 1.46484 25 1.46484ZM11.7798 1.46484C12.1838 1.46484 12.5122 1.79329 12.5122 2.19727C12.5122 2.60124 12.1838 2.92969 11.7798 2.92969C11.3758 2.92969 11.0474 2.60124 11.0474 2.19727C11.0474 1.79329 11.3758 1.46484 11.7798 1.46484ZM19.812 12.5977H24.2676V13.6982L19.812 15.8272V12.5977ZM32.7736 18.6859L25 22.3995L17.2264 18.6859L25 14.9719L32.7736 18.6859ZM16.2598 19.8475L24.2676 23.6732V33.9947L16.2598 30.1689V19.8475ZM30.188 15.8272L25.7324 13.6982V12.5977H30.188V15.8272ZM30.188 9.66797V11.1328H25.7324V9.66797H30.188ZM24.2676 9.66797V11.1328H19.812V9.66797H24.2676ZM38.3301 47.8027C38.3301 48.2067 38.0016 48.5352 37.5977 48.5352H12.4023C11.9984 48.5352 11.6699 48.2067 11.6699 47.8027C11.6699 47.3988 11.9984 47.0703 12.4023 47.0703H37.5977C38.0016 47.0703 38.3301 47.3988 38.3301 47.8027ZM32.3868 45.6055H17.6132C18.4719 44.6026 19.4244 43.0397 19.6072 40.918H30.3928C30.5756 43.0397 31.5281 44.6026 32.3868 45.6055Z" fill="#E21B22"/>
</svg>
