<svg version="1.2" xmlns="http://www.w3.org/2000/svg" viewBox="0 0 50 42" width="50" height="42">
	<title>Vector-svg</title>
	<style>
		.s0 { fill: #ffffff } 
		.s1 { fill: #e21b22 } 
	</style>
	<path id="Layer" class="s0" d="m34.5 29.6c-0.4-0.4-1-0.4-1.4 0-0.4 0.4-0.4 1.1 0 1.4q0.3 0.3 0.7 0.3 0.4 0 0.7-0.3c0.4-0.4 0.4-1 0-1.4z"/>
	<path id="Layer" class="s0" d="m45 19.4h-2.6v-2.6c0-0.6-0.5-1-1-1-0.5 0-1 0.4-1 1v2.6h-2.6c-0.5 0-0.9 0.4-0.9 0.9 0 0.6 0.4 1 0.9 1h2.6v2.6c0 0.6 0.5 1 1 1 0.5 0 1-0.4 1-1v-2.6h2.6c0.5 0 1-0.4 1-1 0-0.5-0.5-0.9-1-0.9z"/>
	<path id="Layer" fill-rule="evenodd" class="s1" d="m50 20.3c0 4.8-3.9 8.6-8.6 8.6-4.7 0-8.6-3.8-8.6-8.6 0-4.7 3.9-8.6 8.6-8.6q0.6 0.1 1.1 0.1c-1.1-5.3-5.7-9.3-11.1-9.3-3.2 0-6.1 1.3-8.3 3.7-0.2 0.2-0.5 0.3-0.7 0.3-0.3 0-0.6-0.1-0.8-0.3-2.1-2.4-5.1-3.7-8.2-3.7-6.3 0-11.4 5.3-11.4 11.8q0 2.1 1.5 5h9.1l2.4-8.4c0.2-0.4 0.5-0.7 1-0.7 0.4 0 0.8 0.3 0.9 0.7l4.8 15.2 1.9-6c0.1-0.5 0.5-0.7 0.9-0.7h5.1c0.5 0 1 0.4 1 0.9 0 0.6-0.5 1-1 1h-4.4l-2.6 8.4c-0.1 0.4-0.5 0.7-0.9 0.7-0.4 0-0.8-0.3-1-0.7l-4.7-15.1-1.7 5.9c-0.1 0.4-0.5 0.7-0.9 0.7h-8.8c1.8 2.7 4.4 5.8 7.7 9.1 4.3 4.2 8.5 7.7 10.1 8.9 1.3-1 4.5-3.6 8-6.9 0.4-0.4 1-0.4 1.4 0 0.3 0.4 0.3 1-0.1 1.4-4.6 4.3-8.7 7.5-8.7 7.5q-0.3 0.2-0.6 0.2-0.4 0-0.6-0.2c-0.1 0-5.5-4.2-10.8-9.5q-5.9-5.8-8.7-10.5h-1.3c-0.6 0-1-0.4-1-1 0-0.5 0.4-0.9 1-0.9h0.3q-1.3-2.8-1.3-5c0-7.6 6-13.7 13.4-13.7 3.3 0 6.5 1.2 9 3.5 2.4-2.3 5.6-3.5 9-3.5 6.7 0 12.3 5 13.2 11.8 3.2 1.2 5.4 4.3 5.4 7.9zm-2 0c0-3.6-2.9-6.6-6.6-6.6-3.7 0-6.6 3-6.6 6.6 0 3.7 2.9 6.7 6.6 6.7 3.7 0 6.6-3 6.6-6.7z"/>
</svg>