<svg width="50" height="50" viewBox="0 0 50 50" fill="none" xmlns="http://www.w3.org/2000/svg">
<path d="M49.5127 0.204327C49.1521 -0.0476252 48.6803 -0.067547 48.2998 0.149995L0.572693 27.4226C0.183206 27.6445 -0.0388106 28.0751 0.00561401 28.5213C0.0500386 28.9675 0.351849 29.3459 0.776918 29.4868L15.0294 34.2373L20.5234 49.2544C20.6887 49.7061 21.1181 50.0001 21.5898 50.0001C21.633 50.0001 21.6774 49.9979 21.7207 49.9923C22.0277 49.9571 22.2861 49.7919 22.4687 49.5629L22.4798 49.5717L30.5647 39.4161L41.6859 43.1231C41.8035 43.1631 41.9245 43.1819 42.0454 43.1819C42.2496 43.1819 42.4527 43.1264 42.6314 43.0188C42.9165 42.848 43.1118 42.5605 43.1663 42.2321L49.9844 1.32314C50.0565 0.890085 49.8734 0.455107 49.5127 0.204327ZM3.90741 28.135L41.7203 6.52689L15.6106 32.0362L3.90741 28.135ZM22.2756 35.083C22.1591 35.2418 22.0847 35.427 22.0615 35.6224L21.0351 44.0363L17.2287 33.6327L39.4532 11.9197L22.2756 35.083ZM23.2052 45.0111L24.1489 37.2773L28.2689 38.6506L23.2052 45.0111ZM41.1432 40.5473L25.0358 35.1782L46.9667 5.60303L41.1432 40.5473Z" fill="#E21B22"/>
</svg>
