<svg width="45" height="50" viewBox="0 0 45 50" fill="none" xmlns="http://www.w3.org/2000/svg">
<path fill-rule="evenodd" clip-rule="evenodd" d="M20.6263 3.15489C20.6263 4.00657 21.3166 4.69688 22.1683 4.69688C23.0199 4.69688 23.7104 4.0065 23.7104 3.15489C23.7104 2.30328 23.0199 1.6129 22.1683 1.6129C21.3166 1.6129 20.6263 2.30321 20.6263 3.15489ZM22.1683 6.30978C20.4258 6.30978 19.0134 4.89735 19.0134 3.15489C19.0134 1.41243 20.4258 0 22.1683 0C23.9106 0 25.3233 1.41236 25.3233 3.15489C25.3233 4.89742 23.9106 6.30978 22.1683 6.30978ZM11.6121 31.607L21.3619 37.2361V25.5394L17.1445 23.1045V25.881C17.1445 26.3264 16.7835 26.6874 16.3381 26.6874C15.8927 26.6874 15.5316 26.3264 15.5316 25.881V22.1733L11.2324 19.6911V30.9495C11.2324 31.2206 11.3771 31.4713 11.6121 31.607ZM17.9314 21.6964L22.1686 24.1427L30.2292 19.4889C30.6149 19.2662 31.1082 19.3984 31.3309 19.7841C31.5536 20.1698 31.4214 20.663 31.0357 20.8857L22.9748 25.5397V37.2361L32.7247 31.6069C32.9596 31.4713 33.1042 31.2207 33.1042 30.9495V19.1984C33.1042 18.9271 32.9594 18.6765 32.7247 18.541L28.0576 15.8464L17.9314 21.6964ZM26.4449 14.9154L16.3187 20.7653L12.0391 18.2945L21.7887 12.6654C22.0236 12.5298 22.313 12.5298 22.5479 12.6654L26.4449 14.9154ZM23.3543 38.8794C22.6204 39.303 21.7162 39.303 20.9824 38.8794L10.8056 33.0038C10.0717 32.58 9.61949 31.7969 9.61949 30.9495V19.1984C9.61949 18.3509 10.0716 17.5677 10.8058 17.1441L20.9823 11.2686C21.7162 10.8448 22.6205 10.8448 23.3544 11.2686L33.531 17.1441C34.2652 17.5678 34.7172 18.351 34.7172 19.1984V30.9495C34.7172 31.7968 34.2651 32.58 33.5311 33.0038L23.3543 38.8794ZM40.9561 15.6564C40.1045 15.6564 39.4141 14.966 39.4141 14.1144C39.4141 13.2627 40.1045 12.5724 40.9561 12.5724C41.8078 12.5724 42.4982 13.2628 42.4982 14.1144C42.4982 14.966 41.8078 15.6564 40.9561 15.6564ZM37.8012 14.1144C37.8012 15.8568 39.2137 17.2693 40.9561 17.2693C42.6985 17.2693 44.1111 15.8568 44.1111 14.1144C44.1111 12.372 42.6985 10.9595 40.9561 10.9595C39.2137 10.9595 37.8012 12.372 37.8012 14.1144ZM39.4141 36.0334C39.4141 36.8851 40.1045 37.5755 40.9561 37.5755C41.8078 37.5755 42.4982 36.8851 42.4982 36.0334C42.4982 35.1819 41.8078 34.4915 40.9561 34.4915C40.1045 34.4915 39.4141 35.1819 39.4141 36.0334ZM40.9561 39.1884C39.2137 39.1884 37.8012 37.7759 37.8012 36.0334C37.8012 34.2911 39.2137 32.8786 40.9561 32.8786C42.6985 32.8786 44.1111 34.2911 44.1111 36.0334C44.1111 37.7759 42.6985 39.1884 40.9561 39.1884ZM22.1683 48.5351C21.3166 48.5351 20.6263 47.8448 20.6263 46.9931C20.6263 46.1414 21.3166 45.4511 22.1683 45.4511C23.0199 45.4511 23.7104 46.1415 23.7104 46.9931C23.7104 47.8447 23.0199 48.5351 22.1683 48.5351ZM19.0134 46.9931C19.0134 48.7356 20.4258 50.148 22.1683 50.148C23.9106 50.148 25.3233 48.7356 25.3233 46.9931C25.3233 45.2506 23.9106 43.8382 22.1683 43.8382C20.4258 43.8382 19.0134 45.2506 19.0134 46.9931ZM1.83849 36.0334C1.83849 36.8851 2.52889 37.5755 3.38057 37.5755C4.23213 37.5755 4.92256 36.8851 4.92256 36.0334C4.92256 35.1819 4.23215 34.4915 3.38057 34.4915C2.52887 34.4915 1.83849 35.1819 1.83849 36.0334ZM3.38057 39.1884C1.63811 39.1884 0.225586 37.7759 0.225586 36.0334C0.225586 34.2911 1.63813 32.8786 3.38057 32.8786C5.12294 32.8786 6.53546 34.2911 6.53546 36.0334C6.53546 37.7759 5.12296 39.1884 3.38057 39.1884ZM3.38057 15.6564C2.52887 15.6564 1.83849 14.966 1.83849 14.1144C1.83849 13.2628 2.52889 12.5724 3.38057 12.5724C4.23213 12.5724 4.92256 13.2627 4.92256 14.1144C4.92256 14.966 4.23215 15.6564 3.38057 15.6564ZM0.225586 14.1144C0.225586 15.8568 1.63813 17.2693 3.38057 17.2693C5.12294 17.2693 6.53546 15.8568 6.53546 14.1144C6.53546 12.372 5.12296 10.9595 3.38057 10.9595C1.63811 10.9595 0.225586 12.372 0.225586 14.1144ZM8.47531 11.9919C8.08959 12.2146 7.59637 12.0824 7.37368 11.6967C7.15098 11.311 7.28314 10.8177 7.66886 10.5951L17.0234 5.19427C17.4091 4.97158 17.9023 5.10373 18.125 5.48946C18.3477 5.87518 18.2155 6.36839 17.8298 6.59109L8.47531 11.9919ZM36.9631 11.6967C37.1858 11.311 37.0536 10.8177 36.6679 10.5951L27.3135 5.19427C26.9278 4.97158 26.4346 5.10373 26.2119 5.48945C25.9892 5.87517 26.1213 6.36839 26.5071 6.59109L35.8615 11.9919C36.2472 12.2146 36.7404 12.0824 36.9631 11.6967ZM41.9571 30.5636C41.9571 31.009 41.596 31.37 41.1506 31.37C40.7053 31.37 40.3442 31.009 40.3442 30.5636V19.5843C40.3442 19.1389 40.7053 18.7778 41.1506 18.7778C41.596 18.7778 41.9571 19.1389 41.9571 19.5843V30.5636ZM26.2119 44.6584C26.4346 45.0441 26.9278 45.1763 27.3135 44.9536L36.6679 39.5528C37.0536 39.3301 37.1858 38.8369 36.9631 38.4512C36.7404 38.0655 36.2472 37.9333 35.8615 38.156L26.5071 43.5568C26.1213 43.7795 25.9892 44.2727 26.2119 44.6584ZM17.8297 43.5568C18.2154 43.7795 18.3476 44.2727 18.1249 44.6584C17.9022 45.0441 17.409 45.1763 17.0233 44.9536L7.66886 39.5528C7.28314 39.3301 7.15098 38.8369 7.37368 38.4512C7.59637 38.0655 8.08959 37.9333 8.47531 38.156L17.8297 43.5568ZM3.18599 31.37C3.63138 31.37 3.99244 31.009 3.99244 30.5636V19.5843C3.99244 19.1389 3.63138 18.7778 3.18599 18.7778C2.7406 18.7778 2.37954 19.1389 2.37954 19.5843V30.5636C2.37954 31.009 2.7406 31.37 3.18599 31.37Z" fill="#E21B22"/>
</svg>
