<svg width="50" height="50" viewBox="0 0 50 50" fill="none" xmlns="http://www.w3.org/2000/svg">
<path fill-rule="evenodd" clip-rule="evenodd" d="M41.3166 24.1665C41.7358 22.2282 43.5307 20.8359 45.6139 20.8332C47.922 20.8332 49.835 22.5327 49.99 24.7204C50.145 26.9081 48.4882 28.8357 46.201 29.129C43.9134 29.4228 41.7784 27.9816 41.3166 25.8335H30.613C30.4102 26.746 29.8898 27.5669 29.1357 28.1643L32.0995 33.3332H35.1762C35.6267 31.2374 37.6742 29.8061 39.9144 30.0213C42.1546 30.2361 43.8596 32.0278 43.8596 34.1667C43.8596 36.3056 42.1546 38.0974 39.9144 38.3121C37.6742 38.5273 35.6267 37.0956 35.1762 34.9998H32.4561V40.4884L35.4508 43.3334H39.5622C40.0124 41.2376 42.0602 39.806 44.3005 40.0211C46.5407 40.2359 48.2456 42.0277 48.2456 44.1666C48.2456 46.3058 46.5407 48.0972 44.3005 48.3124C42.0602 48.5271 40.0124 47.0959 39.5622 45.0001H35.4508C34.9858 44.9989 34.5401 44.8235 34.2104 44.5118L33.4583 43.7969C32.842 44.0136 32.2148 44.2009 31.5787 44.3577V48.3334C31.5775 49.2535 30.7929 49.9989 29.8244 50H22.807C21.8384 49.9989 21.0538 49.2535 21.0526 48.3334V44.3588C19.1457 43.8969 17.3174 43.1793 15.6233 42.2287L12.6732 45.031C12.3459 45.3487 11.8978 45.5269 11.43 45.525H11.4284C10.9574 45.5261 10.5064 45.3449 10.1792 45.0233L5.23053 40.3225C4.89644 40.0097 4.70932 39.5821 4.71053 39.1361C4.71213 38.6906 4.90206 38.2641 5.23816 37.9528L8.17988 35.1582C7.17922 33.5484 6.42432 31.8115 5.93725 29.9999H1.75435C0.785823 29.9988 0.00120381 29.2534 0 28.3333V21.6667C0.00120381 20.7466 0.785823 20.0012 1.75435 20.0001H5.93725C6.42432 18.1885 7.17922 16.4516 8.17988 14.8418L5.23053 12.0396C4.89644 11.7264 4.70932 11.2988 4.71053 10.8528C4.71213 10.4073 4.90206 9.98077 5.23816 9.66949L10.1868 4.96902C10.5129 4.65126 10.961 4.47311 11.428 4.47502H11.4296C11.901 4.47388 12.3527 4.65469 12.6808 4.97589L15.6233 7.77168C17.3174 6.82106 19.1457 6.10352 21.0526 5.64155V1.66664C21.0538 0.746536 21.8384 0.00114367 22.807 0H29.8244C30.7929 0.00114367 31.5775 0.746536 31.5787 1.66664V5.64232C32.2148 5.7991 32.842 5.9864 33.4583 6.20308L34.2104 5.4882C34.5401 5.17654 34.9858 5.00107 35.4508 4.99992H39.5622C40.0124 2.90413 42.0602 1.47285 44.3005 1.68762C46.5407 1.90277 48.2456 3.69415 48.2456 5.83343C48.2456 7.97233 46.5407 9.7641 44.3005 9.97887C42.0602 10.194 40.0124 8.76236 39.5622 6.66656H35.4508L32.4561 9.51157V15.0002H35.1762C35.6267 12.9044 37.6742 11.4727 39.9144 11.6878C42.1546 11.9026 43.8596 13.6944 43.8596 15.8333C43.8596 17.9722 42.1546 19.7639 39.9144 19.9787C37.6742 20.1939 35.6267 18.7626 35.1762 16.6668H32.0995L29.1357 21.8357C29.8898 22.4331 30.4102 23.254 30.613 24.1665H41.3166ZM46.4909 5.83343C46.4909 4.45251 45.3128 3.33328 43.8596 3.33328C42.4068 3.33481 41.2295 4.45328 41.2278 5.83343C41.2278 7.21397 42.406 8.33321 43.8596 8.33321C45.3128 8.33321 46.4909 7.21397 46.4909 5.83343ZM46.4909 44.1666C46.4909 42.786 45.3128 41.6668 43.8596 41.6668C42.4068 41.6683 41.2295 42.7864 41.2278 44.1666C41.2278 45.5475 42.406 46.6667 43.8596 46.6667C45.3128 46.6667 46.4909 45.5475 46.4909 44.1666ZM23.6839 25C23.6839 26.3805 24.8625 27.5002 26.3157 27.5002C27.7685 27.4986 28.9458 26.3802 28.9474 25C28.9474 23.6195 27.7689 22.4998 26.3157 22.4998C24.8625 22.4998 23.6839 23.6195 23.6839 25ZM42.1052 15.8333C42.1052 14.4527 40.9267 13.3335 39.4735 13.3335C38.0207 13.335 36.8434 14.4531 36.8418 15.8333C36.8418 17.2142 38.0203 18.3334 39.4735 18.3334C40.9267 18.3334 42.1052 17.2142 42.1052 15.8333ZM29.8244 43.7C29.8244 43.3094 30.1099 42.971 30.5114 42.8867C31.0539 42.7719 31.5755 42.6369 32.0798 42.4873L31.2157 41.6668C30.8856 41.3548 30.7005 40.9306 30.7017 40.4884V39.4085C24.2513 41.1823 17.3259 38.8866 13.4377 33.6853C9.54914 28.4843 9.54914 21.5157 13.4377 16.3147C17.3259 11.1134 24.2513 8.81767 30.7017 10.5915V9.51157C30.7005 9.06944 30.8852 8.64525 31.2157 8.33321L32.0798 7.51228C31.5755 7.36351 31.0539 7.22809 30.5114 7.11327C30.1099 7.02896 29.8244 6.6906 29.8244 6.29997V1.66664H22.807V6.29997C22.807 6.69136 22.5203 7.03049 22.1175 7.11441C19.9323 7.56912 17.8487 8.38623 15.9618 9.52835C15.6153 9.73778 15.1619 9.69009 14.8712 9.41391L11.4328 6.14738L6.4713 10.8559L9.90973 14.1277C10.2004 14.4035 10.2502 14.8342 10.0298 15.1634C8.82797 16.9559 7.96746 18.9358 7.48801 21.0117C7.40007 21.394 7.0435 21.6667 6.63152 21.6667H1.75435V28.3333H6.63152C7.0435 28.3337 7.40007 28.606 7.48801 28.9886C7.96746 31.0642 8.82797 33.0441 10.0298 34.8366C10.2502 35.1658 10.2004 35.5965 9.90973 35.8727L6.4713 39.1392L11.4276 43.8526L14.8712 40.5861C15.1619 40.3107 15.6145 40.2634 15.9614 40.4716C17.8483 41.6138 19.9319 42.4309 22.1175 42.886C22.5199 42.9695 22.807 43.3083 22.807 43.7V48.3334H29.8244V43.7ZM42.1052 34.1667C42.1052 32.7858 40.9267 31.6666 39.4735 31.6666C38.0207 31.6681 36.8434 32.7866 36.8418 34.1667C36.8418 35.5473 38.0203 36.6665 39.4735 36.6665C40.9267 36.6665 42.1052 35.5473 42.1052 34.1667ZM30.7017 37.6556V34.3788L27.597 28.9642C27.183 29.0924 26.7509 29.1607 26.3157 29.1668C23.8935 29.1668 21.9296 27.301 21.9296 25C21.9296 22.699 23.8935 20.8332 26.3157 20.8332C26.7509 20.8393 27.183 20.9076 27.597 21.0358L30.7017 15.6212V12.3444C24.9107 10.5202 18.5421 12.4588 14.9463 17.1413C11.3501 21.8235 11.3501 28.1765 14.9463 32.8587C18.5421 37.5412 24.9107 39.4798 30.7017 37.6556ZM42.9822 25C42.9822 26.3805 44.1603 27.5002 45.6139 27.5002C47.0667 27.4986 48.2436 26.3802 48.2452 25C48.2452 23.6195 47.0671 22.4998 45.6139 22.4998C44.1603 22.4998 42.9822 23.6195 42.9822 25ZM14.0352 24.1665C14.1007 20.8385 15.904 17.7593 18.8469 15.9523C19.2609 15.723 19.7922 15.8527 20.0395 16.2426C20.2865 16.6328 20.1584 17.1394 19.7512 17.3801C17.3323 18.882 15.8498 21.4218 15.7896 24.1665C15.7896 24.6269 15.3968 25 14.9122 25C14.4279 25 14.0352 24.6269 14.0352 24.1665Z" fill="#E21B22"/>
</svg>
