<svg width="61" height="60" viewBox="0 0 61 60" fill="none" xmlns="http://www.w3.org/2000/svg">
<path d="M44.1568 40.1266C48.0145 37.2332 50.6323 33.4788 52.0101 28.8632C53.3879 24.2477 53.319 19.6666 51.8034 15.1199C50.2879 10.5732 47.6012 6.92211 43.7434 4.16655C39.8857 1.411 35.5457 0.0332222 30.7234 0.0332222C25.9012 0.0332222 21.5612 1.411 17.7034 4.16655C13.8457 6.92211 11.159 10.5732 9.64343 15.1199C8.12788 19.6666 8.05899 24.2477 9.43677 28.8632C10.8145 33.4788 13.4323 37.2332 17.2901 40.1266L5.71677 51.4932C5.44121 51.9066 5.40677 52.3199 5.61343 52.7332C5.8201 53.1466 6.1301 53.2843 6.54343 53.1466L14.1901 52.3199V59.1399C14.1901 59.5532 14.3968 59.8288 14.8101 59.9666H15.2234C15.499 59.9666 15.7057 59.8977 15.8434 59.7599L30.7234 44.8799L45.6034 59.7599C45.7412 59.8977 45.9479 59.9666 46.2234 59.9666H46.6368C47.0501 59.8288 47.2568 59.5532 47.2568 59.1399V52.3199L54.9034 53.1466C55.3168 53.2843 55.6268 53.1466 55.8334 52.7332C56.0401 52.3199 55.9368 51.9066 55.5234 51.4932L44.1568 40.1266ZM10.4701 22.1466C10.4701 18.5643 11.3657 15.2232 13.1568 12.1232C14.9479 9.02322 17.3934 6.54322 20.4934 4.68322C23.5934 2.82322 27.0034 1.89322 30.7234 1.89322C34.4434 1.89322 37.8534 2.82322 40.9534 4.68322C44.0534 6.54322 46.499 9.02322 48.2901 12.1232C50.0812 15.2232 50.9768 18.5988 50.9768 22.2499C50.9768 25.901 50.0812 29.2766 48.2901 32.3766C46.499 35.4766 44.0534 37.9566 40.9534 39.8166C37.8534 41.6766 34.4434 42.6066 30.7234 42.6066C27.0034 42.6066 23.5934 41.6766 20.4934 39.8166C17.3934 37.9566 14.9479 35.4766 13.1568 32.3766C11.3657 29.2766 10.4701 25.9354 10.4701 22.3532V22.1466ZM15.8434 50.6666C15.7057 50.391 15.4301 50.2532 15.0168 50.2532L9.2301 51.0799L18.9434 41.1599C21.8368 42.951 25.0057 44.0532 28.4501 44.4666L16.2568 56.6599V51.2866C16.2568 51.011 16.119 50.8043 15.8434 50.6666ZM46.4301 50.2532C46.0168 50.2532 45.7068 50.3566 45.5001 50.5632C45.2934 50.7699 45.1901 51.011 45.1901 51.2866V56.6599L32.9968 44.4666C36.4412 44.0532 39.6101 42.951 42.5034 41.1599L52.2168 51.0799L46.4301 50.2532ZM49.1168 22.1466C49.1168 18.8399 48.2901 15.7743 46.6368 12.9499C44.9834 10.1254 42.7445 7.88655 39.9201 6.23322C37.0957 4.57989 34.0301 3.75322 30.7234 3.75322C27.4168 3.75322 24.3512 4.57989 21.5268 6.23322C18.7023 7.88655 16.4634 10.1254 14.8101 12.9499C13.1568 15.7743 12.3301 18.8743 12.3301 22.2499C12.3301 25.6254 13.1568 28.7254 14.8101 31.5499C16.4634 34.3743 18.7023 36.6132 21.5268 38.2666C24.3512 39.9199 27.4168 40.7466 30.7234 40.7466C34.0301 40.7466 37.0957 39.9199 39.9201 38.2666C42.7445 36.6132 44.9834 34.3743 46.6368 31.5499C48.2901 28.7254 49.1168 25.6599 49.1168 22.3532V22.1466ZM15.0168 17.3932H24.9368C25.2123 17.3932 25.419 17.3243 25.5568 17.1866L29.4834 13.2599C29.6212 13.1221 29.6901 12.9154 29.6901 12.6399V9.74656C30.2412 9.74656 30.7234 9.91878 31.1368 10.2632C31.5501 10.6077 31.7568 11.0554 31.7568 11.6066V16.3599C31.7568 16.6354 31.8257 16.8766 31.9634 17.0832C32.1012 17.2899 32.3079 17.3932 32.5834 17.3932H41.4701V19.2532H33.6168V21.3199H41.4701V23.1799H33.6168V25.2466H41.4701V27.1066H33.6168V28.9666H41.4701V29.9999C41.4701 30.2754 41.3668 30.5166 41.1601 30.7232C40.9534 30.9299 40.7123 31.0332 40.4368 31.0332H29.0701L25.3501 29.1732L24.9368 28.9666H15.6368C14.6723 26.8999 14.1901 24.6266 14.1901 22.1466C14.1901 20.631 14.4657 19.0466 15.0168 17.3932ZM16.8768 31.0332H24.7301L28.4501 32.8932H28.8634H40.4368C41.2634 32.8932 41.9523 32.6177 42.5034 32.0666C43.0545 31.5154 43.3301 30.8266 43.3301 29.9999V16.3599C43.3301 16.0843 43.2268 15.8777 43.0201 15.7399C42.8134 15.6021 42.5723 15.5332 42.2968 15.5332H33.6168V11.6066C33.6168 10.5043 33.2379 9.57433 32.4801 8.81656C31.7223 8.05878 30.7923 7.67989 29.6901 7.67989H28.8634C28.5879 7.67989 28.3468 7.78322 28.1401 7.98989C27.9334 8.19655 27.8301 8.43766 27.8301 8.71322V12.2266L24.5234 15.5332H15.6368C17.2901 12.0888 19.7701 9.471 23.0768 7.67989C26.3834 5.88877 29.8968 5.33767 33.6168 6.02655C37.3368 6.71544 40.4712 8.47211 43.0201 11.2966C45.569 14.121 46.9468 17.4277 47.1534 21.2166C47.3601 25.0054 46.4301 28.4499 44.3634 31.5499C42.2968 34.6499 39.4723 36.7854 35.8901 37.9566C32.3079 39.1277 28.7257 39.0588 25.1434 37.7499C21.5612 36.441 18.8057 34.2021 16.8768 31.0332ZM8.40343 9.74656C8.81677 9.74656 9.12677 9.60878 9.33343 9.33322C9.5401 9.05766 9.57454 8.78211 9.43677 8.50655L8.6101 5.61322L10.0568 4.57989C10.3323 4.30433 10.4357 3.99433 10.3668 3.64989C10.2979 3.30544 10.0568 3.06433 9.64343 2.92655L7.3701 2.30655L6.33677 0.446552C6.19899 0.170998 5.92343 0.0332222 5.5101 0.0332222C5.09677 0.0332222 4.82121 0.170998 4.68343 0.446552L3.6501 2.30655L1.37677 2.92655C0.963434 2.92655 0.722323 3.13322 0.653434 3.54655C0.584545 3.95989 0.756767 4.30433 1.1701 4.57989L2.4101 5.61322L1.58343 8.50655C1.44566 8.91989 1.58343 9.26433 1.99677 9.53989C2.4101 9.81544 2.82343 9.81544 3.23677 9.53989L5.5101 7.67989L7.78343 9.33322C8.05899 9.471 8.26566 9.60878 8.40343 9.74656ZM6.95677 4.57989C6.54343 4.71767 6.40566 5.06211 6.54343 5.61322L6.7501 6.23322L6.1301 5.81989C5.71677 5.54433 5.30343 5.54433 4.8901 5.81989L4.2701 6.23322L4.47677 5.61322C4.61454 5.06211 4.54566 4.71767 4.2701 4.57989L3.85677 4.37322L4.47677 4.16655C4.75232 4.02877 4.95899 3.82211 5.09677 3.54655L5.5101 2.92655L5.92343 3.54655C6.06121 3.82211 6.26788 4.02877 6.54343 4.16655L7.16343 4.37322L6.95677 4.57989ZM60.6901 3.75322C60.6901 3.20211 60.4834 2.92655 60.0701 2.92655L57.7968 2.30655L56.7634 0.446552C56.6257 0.170998 56.3501 0.0332222 55.9368 0.0332222C55.5234 0.0332222 55.2479 0.170998 55.1101 0.446552L54.0768 2.30655L51.8034 2.92655C51.3901 2.92655 51.149 3.13322 51.0801 3.54655C51.0112 3.95989 51.1145 4.30433 51.3901 4.57989L52.8368 5.61322L52.0101 8.50655C51.8723 8.91989 52.0101 9.26433 52.4234 9.53989C52.8368 9.81544 53.1812 9.81544 53.4568 9.53989L55.9368 7.67989L58.2101 9.33322C58.3479 9.471 58.5545 9.57433 58.8301 9.64322C59.1057 9.71211 59.3468 9.60878 59.5534 9.33322C59.7601 9.05766 59.8634 8.78211 59.8634 8.50655L59.0368 5.61322L60.4834 4.57989C60.759 4.30433 60.8279 4.02877 60.6901 3.75322ZM57.3834 4.57989C56.9701 4.71767 56.8323 5.06211 56.9701 5.61322L57.1768 6.23322L56.5568 5.81989C56.1434 5.54433 55.7301 5.54433 55.3168 5.81989L54.6968 6.23322L54.9034 5.61322C55.0412 5.06211 54.9034 4.71767 54.4901 4.57989L54.2834 4.37322L54.9034 4.16655C55.179 4.02877 55.3857 3.82211 55.5234 3.54655L55.9368 2.92655L56.3501 3.54655C56.4879 3.82211 56.6945 4.02877 56.9701 4.16655L57.5901 4.37322L57.3834 4.57989Z" fill="white"/>
</svg>
