<svg width="61" height="60" viewBox="0 0 61 60" fill="none" xmlns="http://www.w3.org/2000/svg">
<path d="M57.5498 39.7132C57.5498 39.0243 57.412 38.3354 57.1364 37.6466C58.1009 37.6466 58.8931 37.2677 59.5131 36.5099C60.1331 35.7521 60.4431 34.891 60.4431 33.9266C60.4431 32.9621 60.1675 32.1354 59.6164 31.4466C59.0653 30.7577 58.3764 30.3443 57.5498 30.2066V23.1799C57.5498 20.8377 56.7231 18.8054 55.0698 17.0832C53.4164 15.361 51.3498 14.4999 48.8698 14.4999H40.1898C39.0875 14.4999 38.1575 14.8788 37.3998 15.6366C36.642 16.3943 36.2631 17.2554 36.2631 18.2199C36.2631 19.1843 36.5731 20.0454 37.1931 20.8032C37.8131 21.561 38.5364 22.0088 39.3631 22.1466C37.9853 24.4888 37.2964 26.4866 37.2964 28.1399V28.7599L39.1564 29.5866V30.4132C39.1564 31.1021 39.3287 31.7221 39.6731 32.2732C40.0175 32.8243 40.4653 33.2377 41.0164 33.5132C41.5675 33.7888 42.1187 33.9266 42.6698 33.9266H44.1164V35.9932L41.4298 36.6132C40.052 37.0266 38.8809 37.7843 37.9164 38.8866C36.952 39.9888 36.4009 41.2288 36.2631 42.6066H28.6164V41.9866C28.6164 40.1954 28.0653 38.6799 26.9631 37.4399C25.8609 35.7866 24.2764 34.7532 22.2098 34.3399L20.3498 34.1332C21.5898 33.031 22.3475 31.6532 22.6231 29.9999H23.6564C24.4831 29.9999 25.172 29.7243 25.7231 29.1732C26.2742 28.6221 26.5498 27.9677 26.5498 27.2099C26.5498 26.4521 26.3431 25.7977 25.9298 25.2466C26.3431 24.5577 26.5498 23.731 26.5498 22.7666V21.9399C26.5498 20.5621 25.9987 19.391 24.8964 18.4266L22.2098 16.1532C20.832 15.051 19.2475 14.4999 17.4564 14.4999H15.5964C14.3564 14.4999 13.2198 14.7754 12.1864 15.3266C11.1531 15.8777 10.292 16.6354 9.6031 17.5999L8.77643 17.8066C7.81199 17.9443 6.98532 18.4266 6.29643 19.2532C5.60754 20.0799 5.2631 21.0099 5.2631 22.0432C5.2631 23.0766 5.53865 23.9377 6.08977 24.6266L6.29643 25.0399C5.60754 25.591 5.2631 26.2799 5.2631 27.1066C5.2631 27.9332 5.53865 28.6221 6.08977 29.1732C6.64088 29.7243 7.32977 29.9999 8.15643 29.9999H9.18977C9.46532 31.6532 10.2231 33.031 11.4631 34.1332L9.6031 34.3399C7.67421 34.7532 6.08977 35.7866 4.84977 37.4399C3.88532 38.6799 3.4031 40.1954 3.4031 41.9866V42.6066H0.509766V59.9666H60.4431V42.6066H57.5498V39.7132ZM51.7631 42.6066V39.7132C51.7631 39.1621 51.9698 38.6799 52.3831 38.2666C52.7964 37.8532 53.2442 37.6466 53.7264 37.6466C54.2087 37.6466 54.6564 37.8532 55.0698 38.2666C55.4831 38.6799 55.6898 39.1621 55.6898 39.7132V42.6066H51.7631ZM38.3298 18.4266C38.192 17.8754 38.3298 17.3932 38.7431 16.9799C39.1564 16.5666 39.6387 16.3599 40.1898 16.3599H48.8698C50.7987 16.3599 52.4175 17.0488 53.7264 18.4266C55.0353 19.8043 55.6898 21.3888 55.6898 23.1799V30.2066C54.8631 30.3443 54.1742 30.7577 53.6231 31.4466C53.072 32.1354 52.7964 32.9621 52.7964 33.9266H54.6564C54.6564 33.3754 54.8631 32.8932 55.2764 32.4799C55.6898 32.0666 56.1375 31.8599 56.6198 31.8599C57.102 31.8599 57.5498 32.0666 57.9631 32.4799C58.3764 32.8932 58.5831 33.3754 58.5831 33.9266C58.5831 34.4777 58.3764 34.9254 57.9631 35.2699C57.5498 35.6143 57.1364 35.7866 56.7231 35.7866H54.8631C53.7609 35.7866 52.7964 35.4077 51.9698 34.6499C51.1431 33.8921 50.7298 32.9621 50.7298 31.8599V30.2066L51.3498 29.1732C51.6253 28.6221 51.7631 28.0021 51.7631 27.3132V27.1066C51.7631 26.1421 51.4531 25.3154 50.8331 24.6266C50.2131 23.9377 49.4898 23.5243 48.6631 23.3866L48.2498 22.3532C48.112 21.6643 47.7675 21.1477 47.2164 20.8032C46.6653 20.4588 46.1142 20.2866 45.5631 20.2866H40.1898C39.6387 20.2866 39.1909 20.1143 38.8464 19.7699C38.502 19.4254 38.2609 18.9777 38.1231 18.4266H38.3298ZM47.8364 33.9266V31.8599H42.6698C42.3942 31.8599 42.1875 31.8599 42.0498 31.8599C41.4987 31.4466 41.2231 30.9643 41.2231 30.4132V28.3466L39.1564 27.5199C39.432 26.0043 40.2587 24.2821 41.6364 22.3532H45.5631C45.9764 22.2154 46.252 22.4221 46.3898 22.9732L47.2164 25.2466H47.8364C48.3875 25.2466 48.8698 25.4188 49.2831 25.7632C49.6964 26.1077 49.9031 26.5554 49.9031 27.1066V27.3132C49.9031 27.7266 49.8342 28.0021 49.6964 28.1399L48.8698 29.7932V31.8599C48.8698 33.3754 49.4209 34.6843 50.5231 35.7866H45.9764V33.9266H47.8364ZM41.8431 38.4732L45.1498 37.6466H50.3164C50.0409 38.3354 49.9031 39.0243 49.9031 39.7132V42.6066H38.3298C38.4675 41.6421 38.8464 40.781 39.4664 40.0232C40.0864 39.2654 40.8787 38.7488 41.8431 38.4732ZM34.4031 44.4666H45.9764V54.1799H34.4031V44.4666ZM13.1164 44.4666H24.6898V54.1799H13.1164V44.4666ZM13.9431 35.5799C14.632 35.7177 15.2864 35.7866 15.9064 35.7866C16.5264 35.7866 17.1809 35.7177 17.8698 35.5799V35.7866C17.8698 36.3377 17.6975 36.8199 17.3531 37.2332C17.0087 37.6466 16.5609 37.8188 16.0098 37.7499C15.4587 37.681 14.9764 37.4743 14.5631 37.1299C14.1498 36.7854 13.9431 36.3377 13.9431 35.7866V35.5799ZM23.6564 28.1399H22.8298V26.0732H23.6564C23.932 26.0732 24.1731 26.1766 24.3798 26.3832C24.5864 26.5899 24.6898 26.831 24.6898 27.1066C24.6898 27.3821 24.5864 27.6232 24.3798 27.8299C24.1731 28.0366 23.932 28.1399 23.6564 28.1399ZM7.32977 27.1066C7.32977 26.831 7.39865 26.5899 7.53643 26.3832C7.67421 26.1766 7.88088 26.0732 8.15643 26.0732H9.18977V28.1399H8.15643C7.88088 28.1399 7.63977 28.0366 7.4331 27.8299C7.22643 27.6232 7.1231 27.3821 7.1231 27.1066H7.32977ZM10.0164 24.2132H8.15643H7.94977L7.53643 23.5932C7.39865 23.1799 7.32977 22.6977 7.32977 22.1466C7.32977 21.5954 7.50199 21.0788 7.84643 20.5966C8.19088 20.1143 8.63865 19.8043 9.18977 19.6666L10.6364 19.2532L10.8431 18.8399C11.3942 18.151 12.0831 17.5654 12.9098 17.0832C13.7364 16.601 14.632 16.3599 15.5964 16.3599H17.4564C18.8342 16.3599 20.0053 16.8421 20.9698 17.8066L23.6564 19.8732C24.3453 20.4243 24.6898 21.1132 24.6898 21.9399V22.7666C24.6898 23.3177 24.552 23.7999 24.2764 24.2132H21.7964L19.7298 23.7999C18.2142 23.5243 16.8364 22.7666 15.5964 21.5266L14.9764 20.9066L14.3564 21.5266C13.1164 22.7666 11.7387 23.6621 10.2231 24.2132H10.0164ZM11.0498 28.9666V25.8666C12.5653 25.3154 13.8742 24.5577 14.9764 23.5932C16.2164 24.6954 17.6631 25.3843 19.3164 25.6599L20.7631 25.8666V28.9666C20.7631 30.3443 20.2809 31.5154 19.3164 32.4799C18.352 33.4443 17.2153 33.9266 15.9064 33.9266C14.5975 33.9266 13.4609 33.4443 12.4964 32.4799C11.532 31.5154 11.0498 30.3443 11.0498 28.9666ZM5.2631 41.9866C5.2631 40.6088 5.67643 39.3688 6.5031 38.2666C7.32977 37.1643 8.50088 36.5443 10.0164 36.4066L12.0831 35.9932C12.0831 36.9577 12.462 37.8188 13.2198 38.5766C13.9775 39.3343 14.8731 39.7132 15.9064 39.7132C16.9398 39.7132 17.8353 39.3343 18.5931 38.5766C19.3509 37.8188 19.7298 36.9577 19.7298 35.9932L21.7964 36.4066C23.312 36.5443 24.4831 37.1643 25.3098 38.2666C26.1364 39.3688 26.5498 40.6088 26.5498 41.9866V42.6066H5.2631V41.9866ZM58.5831 58.1066H2.36977V44.4666H11.0498V56.2466H26.5498V44.4666H32.3364V56.2466H47.8364V44.4666H58.5831V58.1066ZM36.2631 46.5332H44.1164V48.3932H36.2631V46.5332ZM36.2631 50.2532H44.1164V52.3199H36.2631V50.2532ZM14.9764 46.5332H22.8298V48.3932H14.9764V46.5332ZM14.9764 50.2532H22.8298V52.3199H14.9764V50.2532ZM34.6098 15.5332C35.4364 15.5332 36.0564 15.1888 36.4698 14.4999L38.7431 11.6066H48.8698C49.6964 11.6066 50.3853 11.331 50.9364 10.7799C51.4875 10.2288 51.7631 9.53989 51.7631 8.71322V2.92655C51.7631 2.09989 51.4875 1.411 50.9364 0.859886C50.3853 0.308777 49.6964 0.0332222 48.8698 0.0332222H35.2298C34.5409 0.0332222 33.8864 0.308777 33.2664 0.859886C32.6464 1.411 32.3364 2.09989 32.3364 2.92655V13.2599C32.3364 13.811 32.5775 14.3277 33.0598 14.8099C33.542 15.2921 34.0587 15.5332 34.6098 15.5332ZM34.4031 2.92655C34.4031 2.651 34.472 2.40989 34.6098 2.20322C34.7475 1.99656 34.9542 1.89322 35.2298 1.89322H48.8698C49.1453 1.89322 49.3864 1.99656 49.5931 2.20322C49.7998 2.40989 49.9031 2.651 49.9031 2.92655V8.71322C49.9031 8.98878 49.7998 9.22989 49.5931 9.43655C49.3864 9.64322 49.1453 9.74656 48.8698 9.74656H37.7098L35.0231 13.4666C34.8853 13.4666 34.7475 13.4666 34.6098 13.4666C34.472 13.4666 34.4031 13.3977 34.4031 13.2599V2.92655ZM10.2231 11.6066H22.2098L24.4831 14.4999C24.8964 15.1888 25.4475 15.5332 26.1364 15.5332C26.8253 15.5332 27.4109 15.2921 27.8931 14.8099C28.3753 14.3277 28.6164 13.811 28.6164 13.2599V2.92655C28.6164 2.09989 28.3064 1.411 27.6864 0.859886C27.0664 0.308777 26.412 0.0332222 25.7231 0.0332222H10.2231C9.39643 0.0332222 8.6731 0.308777 8.0531 0.859886C7.4331 1.411 7.1231 2.09989 7.1231 2.92655V8.71322C7.1231 9.53989 7.4331 10.2288 8.0531 10.7799C8.6731 11.331 9.39643 11.6066 10.2231 11.6066ZM9.18977 2.92655C9.18977 2.651 9.2931 2.40989 9.49977 2.20322C9.70643 1.99656 9.94754 1.89322 10.2231 1.89322H25.7231C25.9987 1.89322 26.2053 1.99656 26.3431 2.20322C26.4809 2.40989 26.5498 2.651 26.5498 2.92655V13.2599C26.5498 13.3977 26.4809 13.501 26.3431 13.5699C26.2053 13.6388 26.0675 13.6043 25.9298 13.4666L23.2431 9.74656H10.2231C9.94754 9.74656 9.70643 9.64322 9.49977 9.43655C9.2931 9.22989 9.18977 8.98878 9.18977 8.71322V2.92655ZM22.8298 3.75322H24.6898V5.81989H22.8298V3.75322ZM14.9764 3.75322H16.8364V5.81989H14.9764V3.75322ZM18.9031 3.75322H20.7631V5.81989H18.9031V3.75322ZM11.0498 3.75322H13.1164V5.81989H11.0498V3.75322ZM36.2631 3.75322H47.8364V5.81989H36.2631V3.75322Z" fill="white"/>
</svg>
