<svg width="63" height="62" viewBox="0 0 63 62" fill="none" xmlns="http://www.w3.org/2000/svg">
<g clip-path="url(#clip0_248_64068)">
<path d="M21.0131 34.9266C21.0131 37.4066 21.6331 39.6799 22.8731 41.7466C24.1131 43.8132 25.7664 45.4321 27.8331 46.6032C29.8998 47.7743 32.1731 48.3599 34.6531 48.3599C37.1331 48.3599 39.4064 47.7743 41.4731 46.6032C43.5398 45.4321 45.1587 43.8132 46.3298 41.7466C47.5009 39.6799 48.0864 37.4066 48.0864 34.9266C48.0864 32.4466 47.5009 30.1732 46.3298 28.1066C45.1587 26.0399 43.5398 24.3866 41.4731 23.1466C39.4064 21.9066 37.1331 21.2866 34.6531 21.2866C32.1731 21.2866 29.8998 21.9066 27.8331 23.1466C25.7664 24.3866 24.1131 26.0399 22.8731 28.1066C21.6331 30.1732 21.0131 32.4466 21.0131 34.9266ZM46.2264 34.9266C46.2264 38.0954 45.0898 40.8166 42.8164 43.0899C40.5431 45.3632 37.7875 46.4999 34.5498 46.4999C31.312 46.4999 28.5909 45.3632 26.3864 43.0899C24.182 40.8166 23.0798 38.061 23.0798 34.8232C23.0798 31.5854 24.182 28.8299 26.3864 26.5566C28.5909 24.2832 31.312 23.181 34.5498 23.2499C37.7875 23.3188 40.5431 24.4554 42.8164 26.6599C45.0898 28.8643 46.2264 31.6199 46.2264 34.9266ZM53.4598 47.5332L53.6664 47.1199C53.8042 46.9821 53.8731 46.7754 53.8731 46.4999C53.8731 46.2243 53.8042 46.0177 53.6664 45.8799L50.3598 42.3666C51.3242 40.2999 51.8753 38.061 52.0131 35.6499C52.1509 33.2388 51.8064 30.931 50.9798 28.7266C50.1531 26.5221 48.9131 24.5588 47.2598 22.8366C45.6064 21.1143 43.6775 19.771 41.4731 18.8066V1.85989C41.4731 1.58433 41.3698 1.37767 41.1631 1.23989C40.9564 1.10211 40.7153 1.03322 40.4398 1.03322H1.58643C1.31088 1.03322 1.10421 1.10211 0.966432 1.23989C0.828655 1.37767 0.759766 1.58433 0.759766 1.85989V60.1399C0.759766 60.4154 0.828655 60.6221 0.966432 60.7599C1.10421 60.8977 1.31088 60.9666 1.58643 60.9666H40.4398C40.7153 60.9666 40.9564 60.8977 41.1631 60.7599C41.3698 60.6221 41.4731 60.4154 41.4731 60.1399V50.8399L42.0931 50.6332L45.6064 53.9399C45.7442 54.0777 45.9509 54.1466 46.2264 54.1466C46.502 54.1466 46.7087 54.0777 46.8464 53.9399L47.2598 53.7332L53.2531 59.7266C54.0798 60.5532 55.1131 60.9666 56.3531 60.9666C57.5931 60.9666 58.6264 60.5532 59.4531 59.7266C60.2798 58.8999 60.6931 57.8666 60.6931 56.6266C60.6931 55.3866 60.2798 54.3532 59.4531 53.5266L53.4598 47.5332ZM50.1531 34.9266C50.1531 37.6821 49.4642 40.2654 48.0864 42.6766C46.7087 45.0877 44.8142 46.9821 42.4031 48.3599C39.992 49.7377 37.3742 50.4266 34.5498 50.4266C31.7253 50.4266 29.142 49.7377 26.7998 48.3599C24.4575 46.9821 22.5975 45.0877 21.2198 42.6766C19.842 40.2654 19.1531 37.6477 19.1531 34.8232C19.1531 31.9988 19.842 29.4154 21.2198 27.0732C22.5975 24.731 24.4575 22.871 26.7998 21.4932C29.142 20.1154 31.7253 19.4266 34.5498 19.4266C37.3742 19.4266 39.992 20.1154 42.4031 21.4932C44.8142 22.871 46.7087 24.731 48.0864 27.0732C49.4642 29.4154 50.1531 32.0332 50.1531 34.9266ZM39.4064 59.1066H2.61977V2.89322H39.4064V18.1866C35.8242 17.0843 32.2764 17.1532 28.7631 18.3932C25.2498 19.6332 22.4253 21.7688 20.2898 24.7999C18.1542 27.831 17.0864 31.2066 17.0864 34.9266C17.0864 38.6466 18.1542 42.0221 20.2898 45.0532C22.4253 48.0843 25.2498 50.1854 28.7631 51.3566C32.2764 52.5277 35.8242 52.631 39.4064 51.6666V59.1066ZM43.9531 49.5999C46.1575 48.2221 47.9487 46.431 49.3264 44.2266L51.5998 46.4999L46.2264 51.8732L43.9531 49.5999ZM56.3531 59.1066C55.6642 59.1066 55.1131 58.831 54.6998 58.2799L48.4998 52.2866L52.0131 48.7732L58.0064 54.9732C58.4198 55.2488 58.6609 55.6277 58.7298 56.1099C58.7987 56.5921 58.7642 57.0743 58.6264 57.5566C58.4887 58.0388 58.2131 58.4177 57.7998 58.6932C57.3864 58.9688 56.9042 59.1066 56.3531 59.1066ZM5.5131 14.4666H36.5131C36.7887 14.4666 37.0298 14.3977 37.2364 14.2599C37.4431 14.1221 37.5464 13.9154 37.5464 13.6399V5.78655C37.5464 5.511 37.4431 5.26989 37.2364 5.06322C37.0298 4.85655 36.7887 4.75322 36.5131 4.75322H5.5131C5.23754 4.75322 4.99643 4.85655 4.78977 5.06322C4.5831 5.26989 4.47977 5.511 4.47977 5.78655V13.6399C4.47977 13.9154 4.5831 14.1221 4.78977 14.2599C4.99643 14.3977 5.23754 14.4666 5.5131 14.4666ZM6.54643 6.81989H35.4798V12.6066H6.54643V6.81989ZM4.47977 16.5332H23.9064V18.3932H4.47977V16.5332ZM4.47977 20.2532H16.2598V22.3199H4.47977V20.2532ZM4.47977 24.1799H16.2598V26.2466H4.47977V24.1799ZM4.47977 28.1066H16.2598V29.9666H4.47977V28.1066ZM4.47977 55.1799H37.5464V57.2466H4.47977V55.1799ZM4.47977 51.2532H19.9798V53.3199H4.47977V51.2532ZM4.47977 47.5332H19.9798V49.3932H4.47977V47.5332ZM30.5198 32.2399C30.2442 32.1021 29.9687 32.0332 29.6931 32.0332C29.4175 32.0332 29.2109 32.1021 29.0731 32.2399L26.1798 35.1332C26.042 35.271 25.9731 35.4777 25.9731 35.7532C25.9731 36.0288 26.042 36.3043 26.1798 36.5799L31.9664 42.3666C32.1042 42.5043 32.3109 42.5732 32.5864 42.5732C32.862 42.5732 33.1375 42.5043 33.4131 42.3666L43.1264 32.6532C43.2642 32.5154 43.3331 32.3088 43.3331 32.0332C43.3331 31.7577 43.2642 31.4821 43.1264 31.2066L40.2331 28.3132C39.9575 28.1754 39.682 28.1066 39.4064 28.1066C39.1309 28.1066 38.9242 28.1754 38.7864 28.3132L32.5864 34.5132L30.5198 32.2399ZM39.4064 30.3799L41.0598 32.0332L32.5864 40.2999L28.2464 35.7532L29.6931 34.3066L31.9664 36.5799C32.1042 36.7177 32.3109 36.7866 32.5864 36.7866C32.862 36.7866 33.1375 36.7177 33.4131 36.5799L39.4064 30.3799Z" fill="white"/>
</g>
<defs>
<clipPath id="clip0_248_64068">
<rect width="62.02" height="62" fill="white" transform="matrix(1 0 0 -1 0.75 62)"/>
</clipPath>
</defs>
</svg>
