<svg width="41" height="40" viewBox="0 0 41 40" fill="none" xmlns="http://www.w3.org/2000/svg">
<g clip-path="url(#clip0_248_64006)">
<path d="M27.7733 27.2678L27.7732 27.2679C27.6646 27.3788 27.6663 27.5569 27.7774 27.6657C27.8322 27.7194 27.9023 27.746 27.9741 27.746C28.0477 27.746 28.1198 27.7179 28.175 27.6617L27.7733 27.2678ZM27.7733 27.2678L27.7953 27.2453C27.9041 27.1343 28.0822 27.1325 28.1931 27.2412C28.3042 27.35 28.3059 27.5281 28.1973 27.639L28.1972 27.6391L28.1752 27.6615L27.7733 27.2678ZM18.6488 7.81575C16.8137 5.82667 14.3284 4.7265 11.6563 4.7265C6.33357 4.7265 2.02735 9.17288 2.02735 14.6101C2.02735 15.8603 2.47917 17.2876 3.30613 18.8488L3.447 19.1148H3.74797H11.078H11.4547L11.5586 18.7527L13.4807 12.0529C13.4807 12.0529 13.4807 12.0529 13.4807 12.0528C13.515 11.9333 13.6237 11.8506 13.7478 11.8491L13.7489 11.8491C13.872 11.8474 13.9822 11.9269 14.0196 12.0466L14.0196 12.0466L17.831 24.258L18.3084 25.7874L18.7856 24.258L20.3045 19.3904L20.3045 19.3904C20.3412 19.273 20.4499 19.1929 20.573 19.1929H24.6354C24.7908 19.1929 24.9167 19.3188 24.9167 19.4742C24.9167 19.6295 24.7908 19.7554 24.6354 19.7554H21.1476H20.7799L20.6703 20.1065L18.577 26.8153L19.0241 26.9549L18.577 26.8154C18.5403 26.9328 18.4315 27.0128 18.3085 27.0128C18.1856 27.0128 18.0768 26.9328 18.0401 26.8153C18.0401 26.8153 18.04 26.8153 18.04 26.8153L14.2601 14.7045L13.7626 13.1107L13.3021 14.7156L11.9371 19.4736C11.9371 19.4736 11.9371 19.4736 11.9371 19.4736C11.9025 19.5941 11.7923 19.6772 11.6668 19.6772H4.67259H3.75157L4.25328 20.4496C5.67736 22.6419 7.77161 25.1187 10.4879 27.8207L10.8405 27.4662L10.4879 27.8207C13.8815 31.1965 17.3123 33.9795 18.5453 34.9551L18.8555 35.2005L19.1658 34.9551C20.2041 34.1339 22.7965 32.0347 25.6057 29.3861C25.7188 29.2796 25.8968 29.2848 26.0033 29.3978L26.0033 29.3979C26.1098 29.5108 26.1046 29.6888 25.9916 29.7954L25.9916 29.7954C22.3446 33.2339 19.0528 35.758 19.0261 35.7784C18.9757 35.8168 18.916 35.836 18.8555 35.836C18.7949 35.836 18.7351 35.8168 18.6848 35.7783L18.6847 35.7783C18.6479 35.75 14.3439 32.4482 10.1025 28.2307C6.97192 25.1179 4.69662 22.3426 3.26739 19.9229L3.12225 19.6772H2.83688H1.7461C1.59075 19.6772 1.46484 19.5513 1.46484 19.396C1.46484 19.2406 1.59075 19.1147 1.7461 19.1147H2.00485H2.79166L2.45752 18.4024C1.78566 16.9701 1.46484 15.7072 1.46484 14.6101C1.46484 8.83939 6.0482 4.164 11.6563 4.164C14.2296 4.164 16.6347 5.12196 18.5137 6.88162L18.8555 7.20168L19.1973 6.88161C21.0763 5.12196 23.4813 4.164 26.0547 4.164C31.1469 4.164 35.4513 8.00515 36.1486 13.159L36.1877 13.4475L36.4578 13.556C38.8051 14.4987 40.4649 16.7977 40.4648 19.4747C40.4648 22.9895 37.6046 25.8498 34.0898 25.8498C30.5751 25.8498 27.7148 22.9895 27.7148 19.4747C27.7148 15.96 30.5751 13.0997 34.0898 13.0997C34.3716 13.0997 34.6491 13.1183 34.9215 13.1539L35.6169 13.2448L35.4761 12.5578C34.5512 8.04267 30.6548 4.7265 26.0547 4.7265C23.3826 4.7265 20.8973 5.82667 19.0622 7.81575L19.0622 7.81576C19.009 7.87344 18.9341 7.90628 18.8555 7.90628C18.7771 7.90628 18.7021 7.87352 18.6488 7.81575ZM18.6488 7.81575L18.2813 8.15479M18.6488 7.81575C18.6488 7.81572 18.6487 7.81569 18.6487 7.81567L18.2813 8.15479M18.2813 8.15479C16.5392 6.26651 14.1864 5.2265 11.6563 5.2265C6.62259 5.2265 2.52735 9.43597 2.52735 14.6101C2.52735 15.7463 2.94039 17.0901 3.74797 18.6148L26.0547 5.2265C23.5247 5.2265 21.1718 6.26651 19.4297 8.15479C19.2818 8.3151 19.0736 8.40628 18.8555 8.40628C18.6374 8.40628 18.4293 8.3151 18.2813 8.15479ZM34.3712 18.6935V19.1935H34.8712H36.9473C37.1026 19.1935 37.2285 19.3194 37.2285 19.4747C37.2285 19.6301 37.1026 19.756 36.9473 19.756H34.8712H34.3712V20.256V22.3321C34.3712 22.4874 34.2453 22.6133 34.0899 22.6133C33.9346 22.6133 33.8087 22.4874 33.8087 22.3321V20.256V19.756H33.3087H31.2326C31.0772 19.756 30.9513 19.6301 30.9513 19.4747C30.9513 19.3194 31.0772 19.1935 31.2326 19.1935H33.3087H33.8087V18.6935V16.6174C33.8087 16.462 33.9346 16.3361 34.0899 16.3361C34.2453 16.3361 34.3712 16.462 34.3712 16.6174V18.6935ZM28.2774 19.4747C28.2774 22.6802 30.8845 25.2872 34.0899 25.2872C37.2954 25.2872 39.9024 22.6802 39.9024 19.4747C39.9024 16.2693 37.2954 13.6622 34.0899 13.6622C30.8845 13.6622 28.2774 16.2693 28.2774 19.4747Z" fill="white" stroke="white"/>
</g>
<defs>
<clipPath id="clip0_248_64006">
<rect width="40" height="40" fill="white" transform="translate(0.964844)"/>
</clipPath>
</defs>
</svg>
