<svg width="62" height="62" viewBox="0 0 62 62" fill="none" xmlns="http://www.w3.org/2000/svg">
<path d="M43.6024 9.71346C41.3986 9.71346 39.5392 10.4712 38.0242 11.9868C36.5091 13.5024 35.7516 15.3279 35.7516 17.4635C35.7516 19.599 36.5091 21.4246 38.0242 22.9401C39.5392 24.4557 41.3642 25.2135 43.4991 25.2135C45.6339 25.2135 47.4589 24.4557 48.974 22.9401C50.489 21.4246 51.2466 19.599 51.2466 17.4635C51.2466 15.3279 50.489 13.5024 48.974 11.9868C47.4589 10.4712 45.6684 9.71346 43.6024 9.71346ZM43.6024 23.1468C41.9496 23.1468 40.5722 22.5957 39.4704 21.4935C38.3685 20.3912 37.8176 19.0479 37.8176 17.4635C37.8176 15.879 38.3685 14.5012 39.4704 13.3301C40.5722 12.159 41.9151 11.5735 43.4991 11.5735C45.083 11.5735 46.4603 12.159 47.6311 13.3301C48.8018 14.5012 49.3872 15.879 49.3872 17.4635C49.3872 19.0479 48.8018 20.3912 47.6311 21.4935C46.4603 22.5957 45.1174 23.1468 43.6024 23.1468ZM43.6024 13.6401C42.5005 13.6401 41.5708 14.019 40.8133 14.7768C40.0557 15.5346 39.677 16.4301 39.677 17.4635C39.677 18.4968 40.0557 19.3924 40.8133 20.1501C41.5708 20.9079 42.4661 21.2868 43.4991 21.2868C44.5321 21.2868 45.4273 20.9079 46.1849 20.1501C46.9424 19.3924 47.3212 18.4968 47.3212 17.4635C47.3212 16.4301 46.9424 15.5346 46.1849 14.7768C45.4273 14.019 44.5665 13.6401 43.6024 13.6401ZM43.6024 19.4268C43.0514 19.4268 42.5694 19.2201 42.1562 18.8068C41.743 18.3935 41.5364 17.9112 41.5364 17.3601C41.5364 16.809 41.743 16.3612 42.1562 16.0168C42.5694 15.6724 43.0514 15.5001 43.6024 15.5001C44.1533 15.5001 44.6009 15.6724 44.9453 16.0168C45.2896 16.3612 45.4618 16.809 45.4618 17.3601C45.4618 17.9112 45.2896 18.3935 44.9453 18.8068C44.6009 19.2201 44.1533 19.4268 43.6024 19.4268ZM54.139 22.1135C54.2767 21.9757 54.3456 21.8379 54.3456 21.7001L56.205 21.0801V13.8468L54.3456 13.2268L54.139 12.8135L54.9654 11.1601L49.8004 5.99347L48.1476 6.82013L47.7344 6.61346L47.1146 4.75346H39.8836L39.2638 6.61346L38.8506 6.82013L37.1978 5.99347L32.0328 11.1601L32.8592 12.8135L32.6526 13.2268L30.9998 13.8468V21.0801L32.6526 21.7001L32.8592 22.1135L32.0328 23.7668L37.1978 28.9335L38.8506 28.1068L39.2638 28.3135L39.8836 29.9668H47.1146L47.7344 28.3135L48.1476 28.1068L49.8004 28.9335L54.9654 23.7668L54.139 22.1135ZM52.6928 20.6668C52.555 20.9424 52.4173 21.2868 52.2796 21.7001L52.073 22.1135L52.6928 23.3535L49.3872 26.4535L48.1476 25.8335L46.2882 26.6601L45.6684 28.1068H41.3298L40.9166 26.6601L38.8506 25.8335L37.611 26.4535L34.512 23.3535L35.1318 22.1135L34.3054 20.0468L32.8592 19.6335V15.2935L34.3054 14.6735L35.1318 12.8135L34.512 11.5735L37.611 8.2668L38.8506 8.8868L40.9166 8.06013L41.3298 6.82013H45.6684L46.2882 8.06013L48.1476 8.8868L49.3872 8.2668L52.6928 11.5735L52.073 12.8135L52.8994 14.6735L54.139 15.2935V19.6335L52.8994 20.0468L52.6928 20.6668ZM47.3212 33.4801C51.04 32.5157 54.0701 30.5524 56.4116 27.5901C58.753 24.6279 59.9238 21.2179 59.9238 17.3601C59.9238 14.4668 59.2007 11.7457 57.7545 9.1968C56.3083 6.64791 54.3111 4.65013 51.7631 3.20346C49.215 1.7568 46.4259 1.03347 43.3958 1.03347C40.3656 1.03347 37.5077 1.86013 34.8219 3.51347C32.1361 5.1668 30.1045 7.37124 28.7272 10.1268C27.763 9.16235 26.5923 8.68013 25.215 8.68013C24.1131 8.68013 23.149 8.92124 22.3226 9.40347C21.4962 9.88568 20.8075 10.5401 20.2566 11.3668C19.7056 10.5401 19.017 9.88568 18.1906 9.40347C17.3642 8.92124 16.4689 8.68013 15.5048 8.68013C13.852 8.68013 12.4746 9.26569 11.3728 10.4368C10.2709 11.6079 9.71997 12.9512 9.71997 14.4668V14.8801C8.48037 15.2935 7.51623 15.9824 6.82757 16.9468C6.1389 17.9112 5.79457 19.0135 5.79457 20.2535V25.4201L0.00976562 26.2468V35.7535L6.00117 36.5801C6.41437 39.0601 7.34407 41.299 8.79027 43.2968C10.2365 45.2946 12.0614 46.8446 14.2652 47.9468L13.6454 50.4268L5.79457 51.6668C4.14177 51.8046 2.76443 52.5279 1.66257 53.8368C0.560699 55.1457 0.00976562 56.6268 0.00976562 58.2801V60.9668H43.6024C44.842 60.9668 45.9438 60.519 46.908 59.6235C47.8721 58.7279 48.3542 57.5912 48.3542 56.2135V40.7135C48.3542 39.6112 47.8721 38.7846 46.908 38.2335C47.1834 37.8201 47.3212 37.3379 47.3212 36.7868V33.4801ZM1.86917 34.1001V27.9001L5.79457 27.2801V34.7201L1.86917 34.1001ZM21.2896 14.4668C21.2896 13.5024 21.6683 12.6412 22.4259 11.8835C23.1834 11.1257 24.1131 10.7468 25.215 10.7468C26.3168 10.7468 27.281 11.1601 28.1074 11.9868C27.4187 13.7779 27.0744 15.5346 27.0744 17.2568C27.0744 18.979 27.281 20.6668 27.6942 22.3201H21.2896V14.4668ZM23.149 24.1801V25.2135C23.149 25.489 23.0457 25.7301 22.8391 25.9368C22.6325 26.1435 22.3914 26.2468 22.116 26.2468H18.3972C18.1217 26.2468 17.8807 26.1435 17.6741 25.9368C17.4675 25.7301 17.3642 25.489 17.3642 25.2135V24.1801H23.149ZM7.65397 20.2535C7.65397 19.5646 7.895 18.8757 8.37707 18.1868C8.85913 17.4979 9.4445 17.0157 10.1332 16.7401C10.5464 17.8424 11.235 18.7035 12.1992 19.3235C13.1633 19.9435 14.2652 20.2535 15.5048 20.2535V18.3935C14.4029 18.3935 13.4732 18.0146 12.7157 17.2568C11.9581 16.499 11.5794 15.6035 11.5794 14.5701C11.5794 13.5368 11.9581 12.6412 12.7157 11.8835C13.4732 11.1257 14.3685 10.7468 15.4015 10.7468C16.4345 10.7468 17.3297 11.1257 18.0873 11.8835C18.8448 12.6412 19.2236 13.5024 19.2236 14.4668V22.3201H7.65397V20.2535ZM7.65397 24.1801H15.5048V25.2135C15.5048 26.0401 15.7802 26.729 16.3312 27.2801C16.8821 27.8312 17.5708 28.1068 18.3972 28.1068H22.3226C23.0112 28.1068 23.6655 27.8312 24.2853 27.2801C24.9051 26.729 25.215 26.0401 25.215 25.2135V24.1801H28.5206C29.4847 26.3846 30.9309 28.3135 32.8592 29.9668V32.0335H30.7932C30.5177 31.2068 30.0356 30.5179 29.347 29.9668C28.6583 29.4157 27.8663 29.1401 26.9711 29.1401C26.0758 29.1401 25.2838 29.4157 24.5952 29.9668C23.9065 30.5179 23.4933 31.2068 23.3556 32.0335H17.1576C17.0198 31.2068 16.6066 30.5179 15.918 29.9668C15.2293 29.4157 14.4373 29.1401 13.5421 29.1401C12.6468 29.1401 11.8548 29.4157 11.1662 29.9668C10.4775 30.5179 9.99543 31.2068 9.71997 32.0335H7.65397V24.1801ZM23.7688 46.9135C21.4273 47.7401 19.0858 47.7401 16.7444 46.9135C16.0557 46.6379 15.4359 46.3624 14.885 46.0868L16.1246 42.5735H24.3886L25.8348 46.0868C25.1461 46.3624 24.4574 46.6379 23.7688 46.9135ZM25.0084 51.0468L24.5952 51.4601C23.3556 52.7001 21.9094 53.3201 20.2566 53.3201C18.6038 53.3201 17.1576 52.7001 15.918 51.4601L15.5048 51.0468L15.918 48.5668L16.1246 48.7735C17.5019 49.1868 18.8792 49.3935 20.2566 49.3935C21.6339 49.3935 23.0112 49.1868 24.3886 48.7735L24.5952 48.5668L25.0084 51.0468ZM21.2896 40.7135V33.8935H23.3556C23.4933 34.7201 23.9065 35.409 24.5952 35.9601C25.2838 36.5112 26.0758 36.7868 26.9711 36.7868C27.8663 36.7868 28.6583 36.5112 29.347 35.9601C30.0356 35.409 30.5177 34.7201 30.7932 33.8935H32.8592V34.3068C32.8592 36.3735 32.3771 38.3712 31.413 40.3001C30.4488 42.229 29.1404 43.8135 27.4876 45.0535L25.8348 40.7135H21.2896ZM25.215 32.8601C25.215 32.309 25.3871 31.8612 25.7315 31.5168C26.0758 31.1724 26.5234 31.0001 27.0744 31.0001C27.6253 31.0001 28.0729 31.1724 28.4173 31.5168C28.7616 31.8612 28.9338 32.309 28.9338 32.8601C28.9338 33.4112 28.7616 33.8935 28.4173 34.3068C28.0729 34.7201 27.6253 34.9268 27.0744 34.9268C26.5234 34.9268 26.0758 34.7201 25.7315 34.3068C25.3871 33.8935 25.215 33.4112 25.215 32.8601ZM15.5048 32.8601C15.5048 33.4112 15.2982 33.8935 14.885 34.3068C14.4718 34.7201 13.9897 34.9268 13.4388 34.9268C12.8878 34.9268 12.4402 34.7201 12.0959 34.3068C11.7515 33.8935 11.5794 33.4112 11.5794 32.8601C11.5794 32.309 11.7515 31.8612 12.0959 31.5168C12.4402 31.1724 12.8878 31.0001 13.4388 31.0001C13.9897 31.0001 14.4718 31.1724 14.885 31.5168C15.2982 31.8612 15.5048 32.309 15.5048 32.8601ZM13.2322 45.0535C11.4416 43.8135 10.0643 42.229 9.10017 40.3001C8.13603 38.3712 7.65397 36.3735 7.65397 34.3068V33.8935H9.71997C9.99543 34.7201 10.4775 35.409 11.1662 35.9601C11.8548 36.5112 12.6468 36.7868 13.5421 36.7868C14.4373 36.7868 15.2293 36.5112 15.918 35.9601C16.6066 35.409 17.0198 34.7201 17.1576 33.8935H19.2236V40.7135H14.6784L13.2322 45.0535ZM7.65397 59.1068H1.86917V58.2801C1.86917 57.1779 2.28237 56.1446 3.10877 55.1801C3.93517 54.2157 4.8993 53.6646 6.00117 53.5268L7.65397 53.3201V59.1068ZM30.9998 59.1068H9.71997V53.1135L14.0586 52.2868L14.6784 52.9068C16.1934 54.4224 18.0528 55.1801 20.2566 55.1801C22.4603 55.1801 24.3197 54.4224 25.8348 52.9068L26.4546 52.2868L30.9998 53.1135V59.1068ZM38.644 59.1068H32.8592V53.3201L34.512 53.5268C35.7516 53.6646 36.7501 54.2157 37.5077 55.1801C38.2652 56.1446 38.644 57.1779 38.644 58.2801V59.1068ZM38.644 40.7135V53.5268C37.5421 52.4246 36.2336 51.8046 34.7186 51.6668L26.8678 50.4268L26.4546 47.9468C28.6583 46.8446 30.4833 45.2946 31.9295 43.2968C33.3757 41.299 34.2365 39.129 34.512 36.7868L39.677 35.9601V36.7868C39.677 37.3379 39.8147 37.8201 40.0902 38.2335C39.126 38.7846 38.644 39.6112 38.644 40.7135ZM34.7186 34.7201C34.7186 34.7201 34.7186 34.6512 34.7186 34.5135V31.4135C36.2336 32.3779 37.8864 33.0668 39.677 33.4801V34.1001L34.7186 34.7201ZM46.4948 56.2135C46.4948 57.0401 46.1849 57.729 45.5651 58.2801C44.9453 58.8312 44.291 59.1068 43.6024 59.1068H40.71V40.7135C40.71 40.4379 40.7788 40.1968 40.9166 39.9901C41.0543 39.7835 41.2609 39.6801 41.5364 39.6801H45.4618C45.7372 39.6801 45.9783 39.7835 46.1849 39.9901C46.3915 40.1968 46.4948 40.4379 46.4948 40.7135V56.2135ZM41.5364 36.7868V33.6868L43.6024 33.8935L45.4618 33.6868V36.7868C45.4618 37.0624 45.3585 37.3035 45.1519 37.5101C44.9453 37.7168 44.7042 37.8201 44.4288 37.8201H42.5694C42.2939 37.8201 42.0529 37.7168 41.8463 37.5101C41.6397 37.3035 41.5364 37.0624 41.5364 36.7868ZM43.6024 32.0335C40.9854 32.0335 38.5407 31.379 36.2681 30.0701C33.9955 28.7612 32.2049 26.9701 30.8965 24.6968C29.588 22.4235 28.9338 19.9779 28.9338 17.3601C28.9338 14.7424 29.588 12.3312 30.8965 10.1268C32.2049 7.92235 33.9955 6.16569 36.2681 4.8568C38.5407 3.54791 40.9854 2.89346 43.6024 2.89346C46.2193 2.89346 48.6296 3.54791 50.8334 4.8568C53.0371 6.16569 54.7932 7.92235 56.1017 10.1268C57.4101 12.3312 58.0644 14.7424 58.0644 17.3601C58.0644 19.9779 57.4101 22.4235 56.1017 24.6968C54.7932 26.9701 53.0371 28.7612 50.8334 30.0701C48.6296 31.379 46.2193 32.0335 43.6024 32.0335Z" fill="#E21B22"/>
</svg>
