<svg width="40" height="40" viewBox="0 0 40 40" fill="none" xmlns="http://www.w3.org/2000/svg">
<path d="M11.4129 20.3537L13.8629 22.8036C13.8629 22.8036 13.8629 22.8036 13.8629 22.8036C14.1509 23.0916 14.1509 23.5752 13.8629 23.8633C13.7116 24.0146 13.5243 24.0835 13.3331 24.0835C13.1419 24.0835 12.9546 24.0146 12.8033 23.8633L9.46996 20.5299C9.18189 20.2419 9.18189 19.7583 9.46996 19.4702C9.46996 19.4702 9.46996 19.4702 9.46996 19.4702L12.8033 16.137L12.8033 16.137C13.0914 15.8489 13.5748 15.8489 13.8629 16.137C14.1509 16.425 14.1509 16.9085 13.8629 17.1966L11.4129 19.6466L11.0593 20.0002L11.4129 20.3537Z" fill="white" stroke="white"/>
<path d="M28.586 20.3537L28.9395 20.0002L28.586 19.6466L26.136 17.1966C25.8479 16.9085 25.8479 16.425 26.136 16.137C26.424 15.8489 26.9075 15.8489 27.1955 16.137L27.1955 16.137L30.5289 19.4702C30.5289 19.4702 30.5289 19.4702 30.5289 19.4702C30.8169 19.7583 30.8169 20.2419 30.5289 20.5299L27.1955 23.8633C27.0442 24.0146 26.857 24.0835 26.6658 24.0835C26.4745 24.0835 26.2873 24.0146 26.136 23.8633C25.8479 23.5752 25.8479 23.0916 26.136 22.8036L28.586 20.3537Z" fill="white" stroke="white"/>
<path d="M20.0007 37.9168C10.1173 37.9168 2.08398 29.8835 2.08398 20.0002C2.08398 10.1168 10.1173 2.0835 20.0007 2.0835C29.884 2.0835 37.9173 10.1168 37.9173 20.0002C37.9173 29.8835 29.884 37.9168 20.0007 37.9168ZM20.0007 4.5835C11.5007 4.5835 4.58398 11.5002 4.58398 20.0002C4.58398 28.5002 11.5007 35.4168 20.0007 35.4168C28.5007 35.4168 35.4173 28.5002 35.4173 20.0002C35.4173 11.5002 28.5007 4.5835 20.0007 4.5835Z" fill="white"/>
<path d="M18.3342 25.1333C18.1675 25.1333 18.0009 25.1 17.8509 25.0333C17.2175 24.7667 16.9175 24.0333 17.2009 23.3833L20.5342 15.5999C20.8009 14.9666 21.5342 14.6665 22.1675 14.9499C22.8009 15.2165 23.1009 15.95 22.8175 16.6L19.4842 24.3833C19.2842 24.85 18.8175 25.1333 18.3342 25.1333Z" fill="white"/>
</svg>
