<svg width="55" height="55" viewBox="0 0 55 55" fill="none" xmlns="http://www.w3.org/2000/svg">
<path d="M24.958 14.3487C24.8347 14.4412 24.75 14.5413 24.7038 14.6492C24.6576 14.757 24.6345 14.888 24.6345 15.042C24.6345 15.1345 24.6422 15.2192 24.6576 15.2962C24.673 15.3732 24.7115 15.4426 24.7731 15.5042C24.8347 15.5966 24.9272 15.6737 25.0504 15.7353C25.1737 15.7969 25.2969 15.8277 25.4202 15.8277C25.5126 15.8277 25.5973 15.8123 25.6744 15.7815C25.7514 15.7507 25.8361 15.7199 25.9286 15.6891H25.8824C26.1289 15.5042 26.3908 15.3655 26.6681 15.2731C26.9454 15.1807 27.2535 15.1345 27.5924 15.1345C27.8697 15.1345 28.1394 15.173 28.4013 15.25C28.6632 15.327 28.902 15.4426 29.1176 15.5966C29.1793 15.6274 29.2486 15.6583 29.3256 15.6891C29.4027 15.7199 29.472 15.7353 29.5336 15.7353C29.6877 15.7353 29.8263 15.6968 29.9496 15.6197C30.0728 15.5427 30.1653 15.458 30.2269 15.3655C30.2577 15.3039 30.2885 15.2269 30.3193 15.1345C30.3501 15.042 30.3655 14.965 30.3655 14.9034C30.3655 14.7493 30.3347 14.6106 30.2731 14.4874C30.2115 14.3641 30.119 14.2717 29.9958 14.2101C29.6569 13.9636 29.2871 13.7787 28.8866 13.6555C28.486 13.5322 28.0546 13.4706 27.5924 13.4706C27.0994 13.4706 26.6218 13.5476 26.1597 13.7017C25.6975 13.8557 25.2815 14.0868 24.9118 14.395L24.958 14.3487ZM33.0462 11.437C33.1078 11.3754 33.1464 11.306 33.1618 11.229C33.1772 11.152 33.1849 11.0672 33.1849 10.9748C33.1849 10.8207 33.1618 10.6898 33.1155 10.5819C33.0693 10.4741 32.9846 10.3739 32.8613 10.2815C32.1218 9.7577 31.3053 9.34174 30.4118 9.03361C29.5182 8.72549 28.563 8.57143 27.5462 8.57143C26.5294 8.57143 25.5588 8.73319 24.6345 9.05672C23.7101 9.38025 22.8782 9.81933 22.1387 10.3739C22.0462 10.4356 21.9692 10.528 21.9076 10.6513C21.8459 10.7745 21.8151 10.8978 21.8151 11.021C21.8151 11.1134 21.8305 11.1982 21.8613 11.2752C21.8922 11.3522 21.9384 11.437 22 11.5294V11.4832C22.0616 11.6064 22.1464 11.6989 22.2542 11.7605C22.362 11.8221 22.493 11.8529 22.6471 11.8529C22.7395 11.8529 22.8242 11.8375 22.9013 11.8067C22.9783 11.7759 23.0476 11.7451 23.1092 11.7143C23.7255 11.2521 24.4111 10.8901 25.166 10.6282C25.9209 10.3662 26.7143 10.2353 27.5462 10.2353C28.3782 10.2353 29.1639 10.3585 29.9034 10.605C30.6429 10.8515 31.3361 11.2059 31.9832 11.6681L31.937 11.6218C31.9986 11.6835 32.0679 11.7297 32.145 11.7605C32.222 11.7913 32.3067 11.8067 32.3992 11.8067C32.5532 11.8067 32.6842 11.7682 32.792 11.6912C32.8999 11.6141 32.9846 11.5294 33.0462 11.437ZM19.8739 7.83193C19.9664 7.83193 20.0511 7.81652 20.1282 7.78571C20.2052 7.7549 20.2745 7.72409 20.3361 7.69328C21.3529 6.95378 22.4699 6.37605 23.687 5.96008C24.9041 5.54412 26.1905 5.33613 27.5462 5.33613C28.902 5.33613 30.1884 5.53642 31.4055 5.93697C32.6226 6.33754 33.7241 6.90756 34.7101 7.64706V7.60084C34.7717 7.66246 34.841 7.70868 34.9181 7.73949C34.9951 7.77031 35.0798 7.78571 35.1723 7.78571C35.2955 7.78571 35.4188 7.7472 35.542 7.67017C35.6653 7.59314 35.7577 7.5084 35.8193 7.41597C35.8501 7.35434 35.881 7.28501 35.9118 7.20798C35.9426 7.13095 35.958 7.04622 35.958 6.95378C35.958 6.79972 35.9272 6.66877 35.8655 6.56092C35.8039 6.45308 35.7269 6.35294 35.6345 6.2605C34.4944 5.45938 33.2388 4.82773 31.8676 4.36554C30.4965 3.90336 29.056 3.67227 27.5462 3.67227C26.0364 3.67227 24.5805 3.91106 23.1786 4.38865C21.7766 4.86625 20.5056 5.52101 19.3655 6.35294H19.4118C19.3193 6.41457 19.2423 6.507 19.1807 6.63025C19.119 6.7535 19.0882 6.87675 19.0882 7C19.0882 7.21569 19.1653 7.40826 19.3193 7.57773C19.4734 7.7472 19.6583 7.83193 19.8739 7.83193ZM54.1681 47.5798H45.3866C45.2633 47.1793 45.063 46.8403 44.7857 46.563C44.5084 46.2857 44.1849 46.0854 43.8151 45.9622V43.0504H54.1681C54.3838 43.0504 54.5763 42.9734 54.7458 42.8193C54.9153 42.6653 55 42.465 55 42.2185C55 42.0028 54.9153 41.8102 54.7458 41.6408C54.5763 41.4713 54.3838 41.3866 54.1681 41.3866H48.9454V40.4622C48.9454 40.2465 48.8683 40.0616 48.7143 39.9076C48.5602 39.7535 48.3754 39.6765 48.1597 39.6765C47.944 39.6765 47.7591 39.7535 47.605 39.9076C47.451 40.0616 47.374 40.2465 47.374 40.4622V41.3866H38.6387V21.1891C38.6387 21.1891 38.6387 21.1814 38.6387 21.166C38.6387 21.1506 38.6387 21.1429 38.6387 21.1429C38.6387 20.8964 38.7311 20.6807 38.916 20.4958C39.1008 20.3109 39.3165 20.2185 39.563 20.2185H46.4496C46.6961 20.2493 46.9118 20.3494 47.0966 20.5189C47.2815 20.6884 47.374 20.9118 47.374 21.1891V36.9958C47.374 37.2115 47.451 37.3964 47.605 37.5504C47.7591 37.7045 47.944 37.7815 48.1597 37.7815C48.3754 37.7815 48.5679 37.7045 48.7374 37.5504C48.9069 37.3964 48.9916 37.2115 48.9916 36.9958V21.1891C48.9916 21.1583 48.9916 21.1429 48.9916 21.1429C48.9916 20.4342 48.7451 19.8333 48.2521 19.3403C47.7591 18.8473 47.1583 18.6008 46.4496 18.6008H39.563C38.8543 18.6008 38.2535 18.8473 37.7605 19.3403C37.2675 19.8333 37.021 20.4342 37.021 21.1429C37.021 21.1429 37.021 21.1583 37.021 21.1891V41.4328H33.5084V21.1891C33.5084 21.1583 33.5084 21.1429 33.5084 21.1429C33.5084 20.4342 33.2619 19.8333 32.7689 19.3403C32.2759 18.8473 31.6751 18.6008 30.9664 18.6008H24.0798C23.402 18.6008 22.8165 18.8473 22.3235 19.3403C21.8305 19.8333 21.584 20.4342 21.584 21.1429C21.584 21.1429 21.584 21.1583 21.584 21.1891V41.4328H18.0252V21.1891C18.0252 21.1583 18.0252 21.1429 18.0252 21.1429C18.0252 20.4342 17.7787 19.8333 17.2857 19.3403C16.7927 18.8473 16.1919 18.6008 15.4832 18.6008H8.59664C7.88796 18.6008 7.28712 18.8473 6.79412 19.3403C6.30112 19.8333 6.05462 20.4342 6.05462 21.1429C6.05462 21.1429 6.05462 21.1583 6.05462 21.1891V36.9958C6.05462 37.2115 6.13165 37.3964 6.28571 37.5504C6.43978 37.7045 6.64006 37.7815 6.88655 37.7815C7.10224 37.7815 7.28712 37.7045 7.44118 37.5504C7.59524 37.3964 7.67227 37.2115 7.67227 36.9958V21.1891C7.67227 21.1891 7.67227 21.1814 7.67227 21.166C7.67227 21.1506 7.67227 21.1429 7.67227 21.1429C7.67227 20.8964 7.76471 20.6807 7.94958 20.4958C8.13445 20.3109 8.35014 20.2185 8.59664 20.2185H15.4832C15.7297 20.2493 15.9454 20.3494 16.1303 20.5189C16.3151 20.6884 16.4076 20.9118 16.4076 21.1891V41.4328H7.67227V40.5084C7.67227 40.2927 7.59524 40.1001 7.44118 39.9307C7.28712 39.7612 7.10224 39.6765 6.88655 39.6765C6.64006 39.6765 6.43978 39.7612 6.28571 39.9307C6.13165 40.1001 6.05462 40.2927 6.05462 40.5084V41.4328H0.831933C0.616247 41.4328 0.431373 41.5098 0.277311 41.6639C0.123249 41.8179 0.0462185 42.0028 0.0462185 42.2185C0.0462185 42.2493 0.0462185 42.2647 0.0462185 42.2647C0.0462185 42.4804 0.123249 42.6653 0.277311 42.8193C0.431373 42.9734 0.616247 43.0658 0.831933 43.0966H11.2311V45.9622C10.8613 46.1162 10.5378 46.3319 10.2605 46.6092C9.98319 46.8866 9.76751 47.2101 9.61345 47.5798H0.831933C0.616247 47.5798 0.423669 47.6646 0.254202 47.834C0.0847339 48.0035 0 48.1961 0 48.4118C0 48.6583 0.0847339 48.8585 0.254202 49.0126C0.423669 49.1667 0.616247 49.2437 0.831933 49.2437H9.65966C9.81373 49.7675 10.1064 50.1912 10.5378 50.5147C10.9692 50.8382 11.4622 51 12.0168 51C12.5714 51 13.0721 50.8382 13.5189 50.5147C13.9657 50.1912 14.2661 49.7675 14.4202 49.2437H25.1429C25.2969 49.7675 25.5896 50.1912 26.021 50.5147C26.4524 50.8382 26.9454 51 27.5 51C28.0854 51 28.5938 50.8382 29.0252 50.5147C29.4566 50.1912 29.7493 49.7675 29.9034 49.2437H40.6261C40.7801 49.7675 41.0728 50.1912 41.5042 50.5147C41.9356 50.8382 42.444 51 43.0294 51C43.584 51 44.077 50.8382 44.5084 50.5147C44.9398 50.1912 45.2325 49.7675 45.3866 49.2437H54.2143C54.43 49.2437 54.6148 49.1667 54.7689 49.0126C54.923 48.8585 55 48.6737 55 48.458C55 48.4272 55 48.4118 55 48.4118C55 48.1653 54.923 47.965 54.7689 47.8109C54.6148 47.6569 54.4146 47.5798 54.1681 47.5798ZM23.1555 21.1891C23.1555 21.1891 23.1555 21.1814 23.1555 21.166C23.1555 21.1506 23.1555 21.1429 23.1555 21.1429C23.1555 20.8964 23.2479 20.6807 23.4328 20.4958C23.6176 20.3109 23.8333 20.2185 24.0798 20.2185H30.9664C31.2129 20.2493 31.4286 20.3494 31.6134 20.5189C31.7983 20.6884 31.8908 20.9118 31.8908 21.1891V41.4328H23.1555V21.1891ZM12.0168 49.3361C11.7703 49.3361 11.5546 49.2437 11.3697 49.0588C11.1849 48.8739 11.0924 48.6583 11.0924 48.4118C11.0924 48.1345 11.1849 47.9034 11.3697 47.7185C11.5546 47.5336 11.7703 47.4412 12.0168 47.4412C12.2633 47.4412 12.479 47.5336 12.6639 47.7185C12.8487 47.9034 12.9412 48.1345 12.9412 48.4118C12.9412 48.6583 12.8564 48.8739 12.687 49.0588C12.5175 49.2437 12.2941 49.3361 12.0168 49.3361ZM25.1429 47.5798H14.4202C14.2969 47.1793 14.0966 46.8403 13.8193 46.563C13.542 46.2857 13.2185 46.0854 12.8487 45.9622V43.0504H26.7143V45.9622C26.3445 46.0854 26.021 46.2857 25.7437 46.563C25.4664 46.8403 25.2661 47.1639 25.1429 47.5336V47.5798ZM27.5 49.3361C27.2535 49.3361 27.0378 49.2437 26.8529 49.0588C26.6681 48.8739 26.5756 48.6583 26.5756 48.4118C26.5756 48.1345 26.6681 47.9034 26.8529 47.7185C27.0378 47.5336 27.2535 47.4412 27.5 47.4412C27.7773 47.4412 28.0007 47.5336 28.1702 47.7185C28.3396 47.9034 28.4244 48.1345 28.4244 48.4118C28.4244 48.6583 28.3396 48.8739 28.1702 49.0588C28.0007 49.2437 27.7773 49.3361 27.5 49.3361ZM40.5798 47.5798H29.9034C29.7801 47.1793 29.5798 46.8403 29.3025 46.563C29.0252 46.2857 28.7017 46.0854 28.3319 45.9622V43.0504H42.1975V45.9622C41.8277 46.0854 41.5042 46.2857 41.2269 46.563C40.9496 46.8403 40.7493 47.1639 40.6261 47.5336L40.5798 47.5798ZM42.9832 49.3361C42.7367 49.3361 42.521 49.2437 42.3361 49.0588C42.1513 48.8739 42.0588 48.6583 42.0588 48.4118C42.0588 48.1345 42.1513 47.9034 42.3361 47.7185C42.521 47.5336 42.7367 47.4412 42.9832 47.4412C43.2297 47.4412 43.4454 47.5336 43.6303 47.7185C43.8151 47.9034 43.9076 48.1345 43.9076 48.4118C43.9076 48.6583 43.8228 48.8739 43.6534 49.0588C43.4839 49.2437 43.2605 49.3361 42.9832 49.3361ZM29.2563 22.9916H25.7899C25.5742 22.9916 25.3817 23.0686 25.2122 23.2227C25.0427 23.3768 24.958 23.577 24.958 23.8235C24.958 24.0392 25.0427 24.2318 25.2122 24.4013C25.3817 24.5707 25.5742 24.6555 25.7899 24.6555H29.2563C29.472 24.6555 29.6646 24.5707 29.834 24.4013C30.0035 24.2318 30.0882 24.0392 30.0882 23.8235C30.0882 23.577 30.0035 23.3768 29.834 23.2227C29.6646 23.0686 29.472 22.9916 29.2563 22.9916ZM29.2563 30.0168H25.7899C25.5742 30.0168 25.3817 30.0938 25.2122 30.2479C25.0427 30.402 24.958 30.6022 24.958 30.8487C24.958 31.0644 25.0427 31.257 25.2122 31.4265C25.3817 31.5959 25.5742 31.6807 25.7899 31.6807H29.2563C29.472 31.6807 29.6646 31.5959 29.834 31.4265C30.0035 31.257 30.0882 31.0644 30.0882 30.8487C30.0882 30.6022 30.0035 30.402 29.834 30.2479C29.6646 30.0938 29.472 30.0168 29.2563 30.0168ZM29.2563 26.5042H25.7899C25.5742 26.5042 25.3894 26.5812 25.2353 26.7353C25.0812 26.8894 25.0042 27.0742 25.0042 27.2899C25.0042 27.2899 25.0042 27.2976 25.0042 27.313C25.0042 27.3284 25.0042 27.3361 25.0042 27.3361C25.0042 27.5518 25.0812 27.7367 25.2353 27.8908C25.3894 28.0448 25.5742 28.1373 25.7899 28.1681H29.2563C29.472 28.1681 29.6646 28.0833 29.834 27.9139C30.0035 27.7444 30.0882 27.5518 30.0882 27.3361C30.0882 27.0896 30.0035 26.8894 29.834 26.7353C29.6646 26.5812 29.472 26.5042 29.2563 26.5042ZM44.6933 22.9916H41.2731C41.0574 22.9916 40.8648 23.0686 40.6954 23.2227C40.5259 23.3768 40.4412 23.577 40.4412 23.8235C40.4412 24.0392 40.5259 24.2318 40.6954 24.4013C40.8648 24.5707 41.0574 24.6555 41.2731 24.6555H44.6933C44.9398 24.6555 45.1401 24.5707 45.2941 24.4013C45.4482 24.2318 45.5252 24.0392 45.5252 23.8235C45.5252 23.577 45.4482 23.3768 45.2941 23.2227C45.1401 23.0686 44.9398 22.9916 44.6933 22.9916ZM44.6933 30.0168H41.2731C41.0574 30.0168 40.8648 30.0938 40.6954 30.2479C40.5259 30.402 40.4412 30.6022 40.4412 30.8487C40.4412 31.0644 40.5259 31.257 40.6954 31.4265C40.8648 31.5959 41.0574 31.6807 41.2731 31.6807H44.6933C44.9398 31.6807 45.1401 31.5959 45.2941 31.4265C45.4482 31.257 45.5252 31.0644 45.5252 30.8487C45.5252 30.6022 45.4482 30.402 45.2941 30.2479C45.1401 30.0938 44.9398 30.0168 44.6933 30.0168ZM44.6933 26.5042H41.2731C41.0574 26.5042 40.8726 26.5812 40.7185 26.7353C40.5644 26.8894 40.4874 27.0742 40.4874 27.2899C40.4874 27.2899 40.4874 27.2976 40.4874 27.313C40.4874 27.3284 40.4874 27.3361 40.4874 27.3361C40.4874 27.5518 40.5644 27.7367 40.7185 27.8908C40.8726 28.0448 41.0574 28.1373 41.2731 28.1681H44.6933C44.9398 28.1681 45.1401 28.0833 45.2941 27.9139C45.4482 27.7444 45.5252 27.5518 45.5252 27.3361C45.5252 27.0896 45.4482 26.8894 45.2941 26.7353C45.1401 26.5812 44.9398 26.5042 44.6933 26.5042ZM10.3067 24.6092H13.7731C13.9888 24.6092 14.1737 24.5322 14.3277 24.3782C14.4818 24.2241 14.5588 24.0238 14.5588 23.7773C14.5588 23.5616 14.4818 23.3768 14.3277 23.2227C14.1737 23.0686 13.9888 22.9916 13.7731 22.9916H10.3067C10.091 22.9916 9.89846 23.0686 9.72899 23.2227C9.55952 23.3768 9.47479 23.5616 9.47479 23.7773C9.47479 24.0238 9.55952 24.2241 9.72899 24.3782C9.89846 24.5322 10.091 24.6092 10.3067 24.6092ZM10.3067 31.6345H13.7731C13.9888 31.6345 14.1737 31.5574 14.3277 31.4034C14.4818 31.2493 14.5588 31.049 14.5588 30.8025C14.5588 30.5868 14.4818 30.402 14.3277 30.2479C14.1737 30.0938 13.9888 30.0168 13.7731 30.0168H10.3067C10.091 30.0168 9.89846 30.0938 9.72899 30.2479C9.55952 30.402 9.47479 30.5868 9.47479 30.8025C9.47479 31.049 9.55952 31.2493 9.72899 31.4034C9.89846 31.5574 10.091 31.6345 10.3067 31.6345ZM10.3067 28.1218H13.7731C13.9888 28.1218 14.1737 28.0448 14.3277 27.8908C14.4818 27.7367 14.5588 27.5364 14.5588 27.2899C14.5588 27.0742 14.4818 26.8894 14.3277 26.7353C14.1737 26.5812 13.9888 26.5042 13.7731 26.5042H10.3067C10.091 26.5042 9.89846 26.5812 9.72899 26.7353C9.55952 26.8894 9.47479 27.0742 9.47479 27.2899C9.47479 27.5364 9.55952 27.7367 9.72899 27.8908C9.89846 28.0448 10.091 28.1218 10.3067 28.1218Z" fill="#E21B22"/>
</svg>
