<svg width="55" height="43" viewBox="0 0 55 43" fill="none" xmlns="http://www.w3.org/2000/svg">
<path d="M47.5146 14.7397C48.2975 14.0107 48.9116 13.1401 49.3571 12.1277C49.8025 11.1154 50.0252 10.0287 50.0252 8.86789C50.0252 7.70704 49.8093 6.62718 49.3773 5.6283C48.9184 4.62943 48.3177 3.75204 47.5753 2.99614C46.8329 2.24023 45.9623 1.64631 44.9634 1.21436C43.9645 0.782417 42.8981 0.566444 41.7643 0.566444C40.9544 0.566444 40.185 0.674431 39.4561 0.890404C38.7272 1.10638 38.0523 1.40334 37.4313 1.78129H37.4718C37.3368 1.86228 37.2289 1.97027 37.1479 2.10525C37.0669 2.24023 37.0264 2.38871 37.0264 2.55069C37.0264 2.63168 37.0399 2.71267 37.0669 2.79366C37.0939 2.87465 37.1344 2.95564 37.1884 3.03663H37.1479C37.2289 3.17162 37.3436 3.2796 37.4921 3.36059C37.6406 3.44158 37.7958 3.48207 37.9578 3.48207C38.0388 3.48207 38.1197 3.46858 38.2007 3.44158C38.2817 3.41459 38.3627 3.38759 38.4437 3.36059H38.4032C38.8891 3.06363 39.4156 2.82741 39.9825 2.65193C40.5494 2.47645 41.1434 2.38871 41.7643 2.38871C43.5191 2.38871 45.0241 3.02313 46.2795 4.29197C47.5348 5.56081 48.1625 7.08612 48.1625 8.86789C48.1625 10.6497 47.5348 12.1682 46.2795 13.4236C45.0241 14.6789 43.5056 15.3066 41.7238 15.3066C41.4268 15.3066 41.1231 15.2863 40.8127 15.2458C40.5022 15.2053 40.212 15.1446 39.942 15.0636H39.9825C39.9555 15.0366 39.915 15.0231 39.861 15.0231C39.807 15.0231 39.7665 15.0231 39.7395 15.0231C39.4696 15.0231 39.2469 15.1109 39.0714 15.2863C38.8959 15.4618 38.8082 15.6845 38.8082 15.9545C38.8082 16.1435 38.8689 16.319 38.9904 16.4809C39.1119 16.6429 39.2671 16.7644 39.4561 16.8454C39.807 16.9264 40.1782 16.9939 40.5697 17.0479C40.9611 17.1019 41.3593 17.1423 41.7643 17.1693C42.4932 17.1423 43.2086 17.0344 43.9105 16.8454C44.6124 16.6564 45.2603 16.3864 45.8543 16.0355H45.8138C46.9746 16.4674 48.041 17.0479 49.0129 17.7768C49.9577 18.5327 50.7811 19.3966 51.4831 20.3684C52.185 21.3403 52.7249 22.4067 53.1029 23.5675C53.4808 24.7554 53.6698 25.9837 53.6698 27.2526C53.6698 27.2526 53.6698 27.2593 53.6698 27.2728C53.6698 27.2863 53.6698 27.2931 53.6698 27.2931V31.9095H45.2873C45.1254 30.3167 44.7744 28.8184 44.2345 27.4146C43.6675 25.9837 42.9454 24.6676 42.068 23.4663C41.1906 22.265 40.185 21.1783 39.0511 20.2065C37.8903 19.2616 36.6349 18.4787 35.2851 17.8578L35.1636 17.7768C36.0815 16.8859 36.7969 15.833 37.3098 14.6182C37.8228 13.4033 38.0793 12.094 38.0793 10.6902C38.0793 9.28634 37.8093 7.97701 37.2694 6.76216C36.7564 5.52032 36.041 4.44046 35.1231 3.52257C34.2052 2.60469 33.1389 1.88928 31.924 1.37634C30.7092 0.836411 29.3998 0.566444 27.996 0.566444C26.6192 0.566444 25.3099 0.836411 24.068 1.37634C22.8532 1.88928 21.7868 2.60469 20.8689 3.52257C19.951 4.44046 19.2356 5.52032 18.7227 6.76216C18.1828 8.00401 17.9128 9.31334 17.9128 10.6902C17.9128 10.6902 17.9128 10.6969 17.9128 10.7104C17.9128 10.7239 17.9128 10.7307 17.9128 10.7307C17.9128 12.1075 18.1693 13.4033 18.6822 14.6182C19.1951 15.833 19.9105 16.8994 20.8284 17.8173C19.8296 18.2762 18.9049 18.8026 18.0545 19.3966C17.2041 19.9905 16.4145 20.6384 15.6856 21.3403C14.3088 22.7171 13.1884 24.2964 12.3245 26.0782C11.4606 27.86 10.9207 29.7768 10.7047 31.8285V31.9095H2.32227V27.2931C2.32227 27.2931 2.32227 27.2863 2.32227 27.2728C2.32227 27.2593 2.32227 27.2526 2.32227 27.2526C2.32227 25.9567 2.52474 24.7284 2.92969 23.5675C3.30765 22.4067 3.84083 21.3403 4.52924 20.3684C5.21765 19.3966 6.0343 18.5462 6.97918 17.8173C7.92406 17.0884 8.96343 16.5079 10.0973 16.076L10.1783 16.0355C10.7722 16.3864 11.4134 16.6632 12.1018 16.8656C12.7902 17.0681 13.4989 17.1693 14.2278 17.1693H14.2683C14.6732 17.1693 15.0647 17.1356 15.4426 17.0681C15.8206 17.0006 16.1985 16.9129 16.5765 16.8049L16.536 16.8454C16.7249 16.7914 16.8802 16.6834 17.0017 16.5214C17.1231 16.3594 17.1839 16.1705 17.1839 15.9545C17.1839 15.6845 17.0962 15.4618 16.9207 15.2863C16.7452 15.1109 16.5225 15.0231 16.2525 15.0231C16.2255 15.0231 16.1918 15.0299 16.1513 15.0434C16.1108 15.0569 16.0635 15.0636 16.0095 15.0636C15.7396 15.1446 15.4561 15.2053 15.1591 15.2458C14.8622 15.2863 14.5517 15.3066 14.2278 15.3066C12.446 15.3066 10.9274 14.6789 9.67209 13.4236C8.41675 12.1682 7.78908 10.6497 7.78908 8.86789C7.78908 7.08612 8.41675 5.56081 9.67209 4.29197C10.9274 3.02313 12.446 2.38871 14.2278 2.38871C14.8487 2.38871 15.4426 2.47645 16.0095 2.65193C16.5765 2.82741 17.1164 3.06363 17.6293 3.36059H17.5888C17.6428 3.38759 17.7103 3.41459 17.7913 3.44158C17.8723 3.46858 17.9533 3.48207 18.0343 3.48207C18.2773 3.48207 18.4932 3.38759 18.6822 3.19861C18.8712 3.00964 18.9657 2.79366 18.9657 2.55069C18.9657 2.38871 18.9252 2.24023 18.8442 2.10525C18.7632 1.97027 18.6552 1.86228 18.5202 1.78129C17.9263 1.40334 17.2649 1.10638 16.536 0.890404C15.8071 0.674431 15.0512 0.566444 14.2683 0.566444C13.1344 0.566444 12.0545 0.782417 11.0287 1.21436C10.0298 1.64631 9.15916 2.24023 8.41675 2.99614C7.67434 3.75204 7.08717 4.62943 6.65522 5.6283C6.22328 6.62718 6.0073 7.70704 6.0073 8.86789C6.0073 10.0287 6.23003 11.1154 6.67547 12.1277C7.12091 13.1401 7.72159 14.0107 8.47749 14.7397C7.72159 15.1176 7.01293 15.5361 6.35151 15.995C5.69009 16.4539 5.07592 16.9669 4.50899 17.5338H4.54949C3.28065 18.7756 2.28852 20.2335 1.57311 21.9072C0.857705 23.581 0.5 25.3628 0.5 27.2526C0.5 27.2526 0.5 27.2593 0.5 27.2728C0.5 27.2863 0.5 27.2931 0.5 27.2931V32.8004C0.5 32.8004 0.5 32.8071 0.5 32.8206C0.5 32.8341 0.5 32.8409 0.5 32.8409C0.5 33.0838 0.587739 33.2931 0.763217 33.4685C0.938695 33.644 1.16142 33.7318 1.43138 33.7318H10.5832V41.1018C10.5832 41.3718 10.671 41.5945 10.8464 41.77C11.0219 41.9455 11.2446 42.0332 11.5146 42.0332H44.5179C44.7609 42.0332 44.9701 41.9455 45.1456 41.77C45.3211 41.5945 45.4088 41.3718 45.4088 41.1018V33.7318H54.6012C54.8441 33.7318 55.0534 33.644 55.2288 33.4685C55.4043 33.2931 55.4921 33.0838 55.4921 32.8409C55.4921 32.8409 55.4921 32.8341 55.4921 32.8206C55.4921 32.8071 55.4921 32.8004 55.4921 32.8004V27.2931C55.4921 27.2931 55.4921 27.2863 55.4921 27.2728C55.4921 27.2593 55.4921 27.2526 55.4921 27.2526C55.4921 25.8757 55.3031 24.5529 54.9251 23.2841C54.5472 22.0152 54.0072 20.8476 53.3053 19.7813C52.6034 18.7149 51.78 17.7498 50.8351 16.8859C49.8633 16.049 48.7834 15.3471 47.5955 14.7801L47.5146 14.7397ZM19.7351 10.6902C19.7351 9.55631 19.951 8.48994 20.383 7.49107C20.8419 6.4652 21.4426 5.58106 22.185 4.83865C22.9274 4.09625 23.7981 3.50907 24.7969 3.07713C25.7958 2.64518 26.8622 2.42921 27.996 2.42921C29.1299 2.42921 30.1962 2.64518 31.1951 3.07713C32.221 3.50907 33.1051 4.09625 33.8475 4.83865C34.5899 5.58106 35.1771 6.4652 35.6091 7.49107C36.041 8.48994 36.257 9.55631 36.257 10.6902C36.257 11.851 36.041 12.9309 35.6091 13.9298C35.1771 14.9286 34.5899 15.806 33.8475 16.5619C33.1051 17.3178 32.221 17.9118 31.1951 18.3437C30.1962 18.7756 29.1299 18.9916 27.996 18.9916C26.8622 18.9916 25.7958 18.7756 24.7969 18.3437C23.7981 17.9118 22.9274 17.3178 22.185 16.5619C21.4426 15.806 20.8419 14.9286 20.383 13.9298C19.951 12.9309 19.7351 11.851 19.7351 10.6902ZM43.5866 40.1704H12.4055V33.7318C12.4055 33.7318 12.4055 33.725 12.4055 33.7115C12.4055 33.698 12.4055 33.6913 12.4055 33.6913C12.4055 32.0175 12.6485 30.4382 13.1344 28.9534C13.6203 27.4415 14.302 26.058 15.1794 24.8026C16.0568 23.5473 17.1029 22.4337 18.3177 21.4618C19.5326 20.4899 20.8689 19.7205 22.3267 19.1536H22.4077C23.1906 19.6665 24.0613 20.0782 25.0197 20.3887C25.978 20.6992 26.9702 20.8544 27.996 20.8544C29.0489 20.8544 30.0478 20.6992 30.9926 20.3887C31.9375 20.0782 32.8149 19.653 33.6248 19.1131H33.5843C35.0691 19.707 36.419 20.4899 37.6338 21.4618C38.8756 22.4337 39.9353 23.554 40.8127 24.8229C41.69 26.0917 42.3717 27.482 42.8576 28.9939C43.3436 30.5057 43.5866 32.085 43.5866 33.7318V40.1704Z" fill="#E21B22"/>
</svg>
