<svg width="55" height="55" viewBox="0 0 55 55" fill="none" xmlns="http://www.w3.org/2000/svg">
<path d="M6.01562 13.75C5.72917 13.75 5.48747 13.8485 5.29053 14.0454C5.09359 14.2424 4.99512 14.4841 4.99512 14.7705C4.99512 15.057 5.09359 15.2987 5.29053 15.4956C5.48747 15.6925 5.72917 15.791 6.01562 15.791C6.30208 15.791 6.54378 15.6925 6.74072 15.4956C6.93766 15.2987 7.03613 15.057 7.03613 14.7705C7.03613 14.4841 6.93766 14.2424 6.74072 14.0454C6.54378 13.8485 6.30208 13.75 6.01562 13.75ZM6.01562 8.00293C5.72917 8.00293 5.48747 8.1014 5.29053 8.29834C5.09359 8.49528 4.99512 8.73698 4.99512 9.02344C4.99512 9.27409 5.09359 9.50684 5.29053 9.72168C5.48747 9.93652 5.72917 10.0439 6.01562 10.0439C6.30208 10.0439 6.54378 9.94548 6.74072 9.74854C6.93766 9.55159 7.03613 9.30989 7.03613 9.02344C7.03613 8.73698 6.93766 8.49528 6.74072 8.29834C6.54378 8.1014 6.30208 8.00293 6.01562 8.00293ZM54.7314 46.084L26.4258 14.4482C26.4616 14.2692 26.4884 14.0723 26.5063 13.8574C26.5243 13.6426 26.5332 13.4456 26.5332 13.2666C26.5332 11.6553 26.2557 10.1156 25.7007 8.64746C25.1457 7.17936 24.3669 5.85449 23.3643 4.67285L23.6328 4.4043C23.8118 4.18945 23.9014 3.94775 23.9014 3.6792C23.9014 3.41064 23.8118 3.16895 23.6328 2.9541C23.418 2.73926 23.1763 2.63184 22.9077 2.63184C22.6392 2.63184 22.3975 2.73926 22.1826 2.9541L21.9141 3.22266C20.6966 2.18425 19.3449 1.38753 17.8589 0.83252C16.3729 0.277508 14.8421 0 13.2666 0C11.4762 0 9.77539 0.331219 8.16406 0.993652C6.55273 1.65609 5.12044 2.61393 3.86719 3.86719C2.61393 5.12044 1.65609 6.55273 0.993652 8.16406C0.331217 9.77539 0 11.4762 0 13.2666C0 14.8779 0.277507 16.4176 0.83252 17.8857C1.38753 19.3538 2.18424 20.6966 3.22266 21.9141L2.9541 22.1826C2.73926 22.3617 2.63184 22.5944 2.63184 22.8809C2.63184 23.1673 2.73926 23.418 2.9541 23.6328C3.06152 23.7044 3.1779 23.7671 3.30322 23.8208C3.42855 23.8745 3.54492 23.9014 3.65234 23.9014C3.79557 23.9014 3.92985 23.8745 4.05518 23.8208C4.1805 23.7671 4.29688 23.6865 4.4043 23.5791L4.67285 23.3105C5.85449 24.349 7.17936 25.1367 8.64746 25.6738C10.1156 26.2109 11.6553 26.4795 13.2666 26.4795C13.4456 26.4795 13.6426 26.4795 13.8574 26.4795C14.0723 26.4795 14.2692 26.4616 14.4482 26.4258C14.4482 26.4258 15.2002 27.0972 16.7041 28.4399C18.208 29.7827 18.96 30.4541 18.96 30.4541L46.084 54.7314C46.1914 54.8031 46.2988 54.8657 46.4062 54.9194C46.5137 54.9731 46.639 55 46.7822 55C46.8896 55 47.006 54.9731 47.1313 54.9194C47.2567 54.8657 47.373 54.7852 47.4805 54.6777L50.3809 51.7773L50.9717 52.3682L52.3682 50.918L51.8311 50.3809L54.6777 47.4805C54.8926 47.3014 55 47.0776 55 46.8091C55 46.5405 54.9105 46.2988 54.7314 46.084ZM13.2666 24.4922C11.9417 24.4922 10.6706 24.2684 9.45312 23.8208C8.23568 23.3732 7.12565 22.7376 6.12305 21.9141L16.8652 11.0645C17.0801 10.8854 17.1785 10.6527 17.1606 10.3662C17.1427 10.0798 17.0443 9.847 16.8652 9.66797C16.6504 9.45312 16.4087 9.3457 16.1401 9.3457C15.8716 9.3457 15.6299 9.45312 15.415 9.66797L4.67285 20.4639C3.81348 19.4613 3.15999 18.3423 2.7124 17.1069C2.26481 15.8716 2.04102 14.5915 2.04102 13.2666C2.04102 11.7627 2.32747 10.3304 2.90039 8.96973C3.47331 7.60905 4.27897 6.3916 5.31738 5.31738C6.3916 4.27897 7.60905 3.47331 8.96973 2.90039C10.3304 2.32747 11.7627 2.04102 13.2666 2.04102C14.5915 2.04102 15.8716 2.26481 17.1069 2.7124C18.3423 3.15999 19.4613 3.79557 20.4639 4.61914L18.3154 6.76758C18.1006 6.94661 17.9932 7.17936 17.9932 7.46582C17.9932 7.75228 18.1006 7.98503 18.3154 8.16406C18.387 8.27148 18.4945 8.35205 18.6377 8.40576C18.7809 8.45947 18.9062 8.48633 19.0137 8.48633C19.1569 8.48633 19.2912 8.45947 19.4165 8.40576C19.5418 8.35205 19.6582 8.28939 19.7656 8.21777L21.8604 6.06934C22.7197 7.07194 23.3643 8.19092 23.7939 9.42627C24.2236 10.6616 24.4385 11.9417 24.4385 13.2666C24.4385 14.7705 24.161 16.2028 23.606 17.5635C23.0509 18.9242 22.2363 20.1237 21.1621 21.1621C20.1237 22.2363 18.9242 23.0599 17.5635 23.6328C16.2028 24.2057 14.7705 24.4922 13.2666 24.4922ZM16.9727 25.9961C18.0469 25.6738 19.0584 25.2262 20.0073 24.6533C20.9562 24.0804 21.8245 23.4001 22.6123 22.6123C23.4001 21.8245 24.0804 20.9562 24.6533 20.0073C25.2262 19.0584 25.6738 18.0469 25.9961 16.9727L28.5205 19.873C28.1266 20.8398 27.6343 21.7529 27.0435 22.6123C26.4526 23.4717 25.7812 24.2773 25.0293 25.0293C24.2773 25.7812 23.4717 26.4526 22.6123 27.0435C21.7529 27.6343 20.8398 28.1266 19.873 28.5205L16.9727 25.9961ZM49.6289 49.6289L46.7285 52.583L21.5381 30.0244C22.4333 29.5589 23.2926 29.0308 24.1162 28.4399C24.9398 27.8491 25.7275 27.1956 26.4795 26.4795C27.1956 25.7275 27.8491 24.9398 28.4399 24.1162C29.0308 23.2926 29.5589 22.4333 30.0244 21.5381L52.583 46.7285C52.583 46.7285 52.0907 47.2119 51.106 48.1787C50.1213 49.1455 49.6289 49.6289 49.6289 49.6289Z" fill="#E21B22"/>
</svg>
