<svg width="55" height="55" viewBox="0 0 55 55" fill="none" xmlns="http://www.w3.org/2000/svg">
<g clip-path="url(#clip0_639_43507)">
<path d="M54.8926 53.4961L39.0479 15.7373C39.012 15.5225 38.9494 15.3345 38.8599 15.1733C38.7703 15.0122 38.654 14.86 38.5107 14.7168C37.9736 14.2155 37.2127 14.0902 36.228 14.3408C35.2433 14.5915 33.9632 15.2539 32.3877 16.3281C32.1012 16.543 31.7969 16.7578 31.4746 16.9727C31.1523 17.1875 30.8301 17.4202 30.5078 17.6709C29.6484 16.5967 28.9144 15.4508 28.3057 14.2334C27.6611 13.0159 27.124 11.709 26.6943 10.3125C26.2646 8.91602 25.9424 7.44792 25.7275 5.9082C25.5127 4.4043 25.4053 2.81087 25.4053 1.12793C25.4053 1.12793 25.4053 1.11898 25.4053 1.10107C25.4053 1.08317 25.4053 1.07422 25.4053 1.07422C25.4053 0.787762 25.2979 0.537109 25.083 0.322266C24.8682 0.107422 24.6175 0 24.3311 0C24.0446 0 23.7939 0.0984688 23.5791 0.29541C23.3643 0.492352 23.2568 0.734051 23.2568 1.02051C23.2568 1.02051 23.2568 1.02946 23.2568 1.04736C23.2568 1.06527 23.2568 1.07422 23.2568 1.07422C23.2568 1.07422 23.2568 1.08317 23.2568 1.10107C23.2568 1.11898 23.2568 1.12793 23.2568 1.12793C23.2568 3.31218 23.4269 5.389 23.7671 7.3584C24.1073 9.3278 24.6354 11.1898 25.3516 12.9443C25.8171 14.0902 26.3452 15.1733 26.936 16.1938C27.5269 17.2144 28.1803 18.1722 28.8965 19.0674L28.8428 19.0137C28.0192 19.694 27.1688 20.437 26.2915 21.2427C25.4142 22.0483 24.5459 22.8809 23.6865 23.7402C22.863 24.5638 22.0752 25.3784 21.3232 26.1841C20.5713 26.9897 19.873 27.7865 19.2285 28.5742C18.2259 28.0729 17.1427 27.6164 15.979 27.2046C14.8153 26.7928 13.6068 26.4437 12.3535 26.1572L12.1924 26.1035C12.1566 26.1035 12.1118 26.1035 12.0581 26.1035C12.0044 26.1035 11.9596 26.1035 11.9238 26.1035C11.6374 26.1035 11.3867 26.2109 11.1719 26.4258C10.957 26.6406 10.8496 26.8913 10.8496 27.1777C10.8496 27.4284 10.9302 27.6522 11.0913 27.8491C11.2524 28.0461 11.4583 28.1624 11.709 28.1982C12.8906 28.4847 13.9917 28.807 15.0122 29.165C16.0327 29.5231 17.0264 29.917 17.9932 30.3467L17.832 30.293C17.5456 30.651 17.277 31.0091 17.0264 31.3672C16.7757 31.7253 16.5251 32.0654 16.2744 32.3877C15.236 33.999 14.5825 35.297 14.314 36.2817C14.0454 37.2664 14.1618 38.0273 14.6631 38.5645C14.6631 38.5645 14.681 38.5645 14.7168 38.5645L14.7705 38.6182C14.8779 38.7256 15.0122 38.8241 15.1733 38.9136C15.3345 39.0031 15.5046 39.0479 15.6836 39.0479L53.4961 54.9463C53.5319 54.9463 53.5856 54.9552 53.6572 54.9731C53.7288 54.991 53.8005 55 53.8721 55C54.1943 55 54.4539 54.8926 54.6509 54.6777C54.8478 54.4629 54.9463 54.2122 54.9463 53.9258C54.9463 53.8542 54.9373 53.7826 54.9194 53.7109C54.9015 53.6393 54.8926 53.5677 54.8926 53.4961ZM18.4766 32.9785C18.6914 32.7279 18.9062 32.4593 19.1211 32.1729C19.3359 31.8864 19.5687 31.582 19.8193 31.2598C19.9626 31.3672 20.1058 31.4567 20.249 31.5283C20.3923 31.5999 20.5355 31.6895 20.6787 31.7969C20.7503 31.8327 20.8309 31.8595 20.9204 31.8774C21.0099 31.8953 21.1084 31.9043 21.2158 31.9043C21.5023 31.9043 21.7529 31.8058 21.9678 31.6089C22.1826 31.4119 22.29 31.1523 22.29 30.8301C22.29 30.651 22.2453 30.481 22.1558 30.3198C22.0662 30.1587 21.932 30.0244 21.7529 29.917C21.5739 29.8096 21.377 29.7021 21.1621 29.5947C21.7708 28.8786 22.4154 28.1535 23.0957 27.4194C23.776 26.6854 24.4743 25.9603 25.1904 25.2441C26.0498 24.3848 26.9002 23.5702 27.7417 22.8003C28.5832 22.0304 29.4157 21.3053 30.2393 20.625C30.3109 20.6966 30.3825 20.7682 30.4541 20.8398C30.5257 20.9115 30.5973 20.9831 30.6689 21.0547C30.7406 21.1621 30.848 21.2427 30.9912 21.2964C31.1344 21.3501 31.2777 21.377 31.4209 21.377C31.7074 21.377 31.958 21.2695 32.1729 21.0547C32.3877 20.8398 32.4951 20.5892 32.4951 20.3027C32.4951 20.1595 32.4683 20.0252 32.4146 19.8999C32.3608 19.7746 32.2803 19.6582 32.1729 19.5508C32.137 19.4792 32.1012 19.4255 32.0654 19.3896C32.0296 19.3538 31.9938 19.318 31.958 19.2822C32.1012 19.1748 32.2624 19.0495 32.4414 18.9062C32.6204 18.763 32.7995 18.6377 32.9785 18.5303C34.0885 17.7425 34.9569 17.2054 35.5835 16.9189C36.2101 16.6325 36.6488 16.4534 36.8994 16.3818C36.8278 16.6325 36.6488 17.0711 36.3623 17.6978C36.0758 18.3244 35.5387 19.1927 34.751 20.3027C33.9274 21.4844 32.9338 22.7376 31.77 24.0625C30.6063 25.3874 29.362 26.7122 28.0371 28.0371C26.7122 29.3978 25.3784 30.651 24.0356 31.7969C22.6929 32.9427 21.4307 33.9274 20.249 34.751C19.139 35.5745 18.2707 36.1296 17.644 36.416C17.0174 36.7025 16.5967 36.8636 16.3818 36.8994C16.4176 36.6488 16.5788 36.2191 16.8652 35.6104C17.1517 35.0016 17.6888 34.1243 18.4766 32.9785ZM18.96 38.1348C19.2464 37.9915 19.5508 37.8215 19.873 37.6245C20.1953 37.4276 20.5176 37.2038 20.8398 36.9531C21.1621 36.7741 21.4754 36.5682 21.7798 36.3354C22.0841 36.1027 22.3975 35.861 22.7197 35.6104C22.8271 36.4697 22.9972 37.2933 23.23 38.0811C23.4627 38.8688 23.7402 39.6208 24.0625 40.3369V40.2295L18.96 38.1348ZM27.7686 41.7871C27.5179 41.5723 26.9718 40.8561 26.1304 39.6387C25.2889 38.4212 24.8324 36.5413 24.7607 33.999C25.5485 33.3545 26.3452 32.6562 27.1509 31.9043C27.9565 31.1523 28.7533 30.3825 29.541 29.5947C30.0781 29.0576 30.5973 28.5205 31.0986 27.9834C30.6331 29.8454 30.4272 31.6268 30.481 33.3276C30.5347 35.0285 30.6868 36.5413 30.9375 37.8662C31.1523 39.012 31.4209 40.0952 31.7432 41.1157C32.0654 42.1362 32.4593 43.1299 32.9248 44.0967L32.8711 43.9355L27.7686 41.7871ZM36.04 45.2783C35.7178 44.8844 35.2254 43.9893 34.563 42.5928C33.9006 41.1963 33.3903 39.4775 33.0322 37.4365C32.6742 35.5387 32.6025 33.2471 32.8174 30.5615C33.0322 27.876 34.0527 25.1367 35.8789 22.3438C36.0579 22.0931 36.237 21.8514 36.416 21.6187C36.5951 21.3859 36.7741 21.1442 36.9531 20.8936C37.3828 20.2132 37.7588 19.5866 38.0811 19.0137L39.8535 23.2568C39.2448 23.9014 38.6003 24.716 37.9199 25.7007C37.2396 26.6854 36.7383 27.5358 36.416 28.252C36.3802 28.3236 36.3534 28.3952 36.3354 28.4668C36.3175 28.5384 36.3086 28.6279 36.3086 28.7354C36.3086 29.0218 36.416 29.2725 36.6309 29.4873C36.8457 29.7021 37.0964 29.8096 37.3828 29.8096C37.5977 29.8096 37.7946 29.7469 37.9736 29.6216C38.1527 29.4963 38.278 29.3441 38.3496 29.165C38.3496 29.165 38.3586 29.1561 38.3765 29.1382C38.3944 29.1203 38.4033 29.1113 38.4033 29.1113C38.6182 28.61 38.9494 28.0103 39.397 27.312C39.8446 26.6138 40.3011 25.9961 40.7666 25.459L41.9482 28.1982C40.1221 31.3493 38.8599 34.2765 38.1616 36.98C37.4634 39.6834 37.3291 42.1273 37.7588 44.3115C37.8304 44.7054 37.9199 45.0635 38.0273 45.3857C38.1348 45.708 38.2422 46.0124 38.3496 46.2988V46.2451L36.04 45.2783ZM44.5801 48.877L41.7334 47.6953C41.5902 47.5521 41.2948 47.1672 40.8472 46.5405C40.3996 45.9139 40.0684 44.974 39.8535 43.7207C39.6387 42.5033 39.6924 40.8293 40.0146 38.6987C40.3369 36.5682 41.3395 33.9095 43.0225 30.7227L46.1914 38.4033C45.0098 40.7308 44.3652 42.7808 44.2578 44.5532C44.1504 46.3257 44.2578 47.7669 44.5801 48.877ZM47.4268 50.0586C47.1761 49.6647 46.9702 49.244 46.8091 48.7964C46.6479 48.3488 46.5316 47.8923 46.46 47.4268V47.373C46.3167 46.4062 46.3167 45.3947 46.46 44.3384C46.6032 43.2821 46.9076 42.1989 47.373 41.0889L51.8848 51.9385L47.4268 50.0586ZM36.9531 30.4541C36.8815 30.4541 36.8099 30.4452 36.7383 30.4272C36.6667 30.4093 36.5951 30.4004 36.5234 30.4004C36.3086 30.4004 36.1117 30.4541 35.9326 30.5615C35.7536 30.6689 35.6283 30.8122 35.5566 30.9912C35.5566 31.027 35.5477 31.0539 35.5298 31.0718C35.5119 31.0897 35.5029 31.0986 35.5029 31.0986C35.5029 31.1702 35.494 31.2329 35.4761 31.2866C35.4582 31.3403 35.4492 31.403 35.4492 31.4746C35.4492 31.7611 35.5566 32.0117 35.7715 32.2266C35.9863 32.4414 36.237 32.5488 36.5234 32.5488C36.8099 32.5488 37.0605 32.4414 37.2754 32.2266C37.4902 32.0117 37.5977 31.7611 37.5977 31.4746C37.5977 31.2598 37.5439 31.0628 37.4365 30.8838C37.3291 30.7048 37.168 30.5615 36.9531 30.4541ZM4.24316 12.9443C5.63965 13.0518 7.20622 13.3919 8.94287 13.9648C10.6795 14.5378 12.1566 15.4329 13.374 16.6504C13.4456 16.7578 13.5531 16.8384 13.6963 16.8921C13.8395 16.9458 13.9827 16.9727 14.126 16.9727C14.4124 16.9727 14.6631 16.8652 14.8779 16.6504C15.0928 16.4355 15.2002 16.1849 15.2002 15.8984C15.2002 15.7552 15.1733 15.6209 15.1196 15.4956C15.0659 15.3703 14.9854 15.2539 14.8779 15.1465C13.4814 13.7142 11.7896 12.6579 9.80225 11.9775C7.81494 11.2972 6.01562 10.9033 4.4043 10.7959C4.4043 10.7959 4.39535 10.7959 4.37744 10.7959C4.35954 10.7959 4.33268 10.7959 4.29688 10.7959C4.01042 10.7959 3.75977 10.8944 3.54492 11.0913C3.33008 11.2882 3.22266 11.5479 3.22266 11.8701C3.22266 12.1208 3.32113 12.3535 3.51807 12.5684C3.71501 12.7832 3.95671 12.9085 4.24316 12.9443ZM0.913086 10.957L0.805664 11.0107C0.555013 11.0466 0.358073 11.1629 0.214844 11.3599C0.0716146 11.5568 0 11.7806 0 12.0312C0 12.3177 0.107422 12.5684 0.322266 12.7832C0.537109 12.998 0.78776 13.1055 1.07422 13.1055C1.11003 13.1055 1.15479 13.0965 1.2085 13.0786C1.26221 13.0607 1.30697 13.0518 1.34277 13.0518H1.39648C1.61133 12.9801 1.79036 12.8459 1.93359 12.6489C2.07682 12.452 2.14844 12.2461 2.14844 12.0312C2.14844 11.709 2.04997 11.4494 1.85303 11.2524C1.65609 11.0555 1.39648 10.957 1.07422 10.957C1.03841 10.957 1.0026 10.957 0.966797 10.957C0.93099 10.957 0.895182 10.957 0.859375 10.957H0.913086ZM42.8076 9.02344H43.8818V10.0977C43.8818 10.3841 43.9803 10.6348 44.1772 10.8496C44.3742 11.0645 44.6338 11.1719 44.9561 11.1719C45.2425 11.1719 45.4932 11.0645 45.708 10.8496C45.9229 10.6348 46.0303 10.3841 46.0303 10.0977V9.02344H47.1045C47.3909 9.02344 47.6416 8.91602 47.8564 8.70117C48.0713 8.48633 48.1787 8.23568 48.1787 7.94922C48.1787 7.66276 48.0713 7.41211 47.8564 7.19727C47.6416 6.98242 47.3909 6.875 47.1045 6.875H46.0303V5.80078C46.0303 5.51432 45.9229 5.26367 45.708 5.04883C45.4932 4.83398 45.2425 4.72656 44.9561 4.72656C44.6338 4.72656 44.3742 4.83398 44.1772 5.04883C43.9803 5.26367 43.8818 5.51432 43.8818 5.80078V6.875H42.8076C42.4854 6.875 42.2257 6.98242 42.0288 7.19727C41.8319 7.41211 41.7334 7.66276 41.7334 7.94922C41.7334 8.23568 41.8319 8.48633 42.0288 8.70117C42.2257 8.91602 42.4854 9.02344 42.8076 9.02344ZM17.6709 19.4434H18.7451V20.5176C18.7451 20.804 18.8525 21.0547 19.0674 21.2695C19.2822 21.4844 19.5329 21.5918 19.8193 21.5918C20.1058 21.5918 20.3564 21.4844 20.5713 21.2695C20.7861 21.0547 20.8936 20.804 20.8936 20.5176V19.4434H21.9678C21.9678 19.4434 21.9857 19.4434 22.0215 19.4434C22.3079 19.4434 22.5586 19.3359 22.7734 19.1211C22.9883 18.9062 23.0957 18.6556 23.0957 18.3691C23.0957 18.0827 22.9883 17.832 22.7734 17.6172C22.5586 17.4023 22.3079 17.2949 22.0215 17.2949C22.0215 17.2949 22.0036 17.2949 21.9678 17.2949H20.8936V16.2207C20.8936 15.9342 20.7861 15.6836 20.5713 15.4688C20.3564 15.2539 20.1058 15.1465 19.8193 15.1465C19.5329 15.1465 19.2822 15.2539 19.0674 15.4688C18.8525 15.6836 18.7451 15.9342 18.7451 16.2207V17.2949H17.6709C17.6709 17.2949 17.6619 17.2949 17.644 17.2949C17.6261 17.2949 17.6172 17.2949 17.6172 17.2949C17.3307 17.2949 17.0801 17.3934 16.8652 17.5903C16.6504 17.7873 16.543 18.0469 16.543 18.3691C16.543 18.6556 16.6414 18.8973 16.8384 19.0942C17.0353 19.2912 17.277 19.4076 17.5635 19.4434H17.6709ZM11.333 44.8486H10.2588V43.7744C10.2588 43.488 10.1514 43.2373 9.93652 43.0225C9.72168 42.8076 9.47103 42.7002 9.18457 42.7002C8.89811 42.7002 8.64746 42.8076 8.43262 43.0225C8.21777 43.2373 8.11035 43.488 8.11035 43.7744V44.8486H7.03613C6.74967 44.8486 6.49902 44.9561 6.28418 45.1709C6.06934 45.3857 5.96191 45.6364 5.96191 45.9229C5.96191 46.2451 6.06934 46.5047 6.28418 46.7017C6.49902 46.8986 6.74967 46.9971 7.03613 46.9971H8.11035V48.0713C8.11035 48.3936 8.21777 48.6532 8.43262 48.8501C8.64746 49.047 8.89811 49.1455 9.18457 49.1455C9.47103 49.1455 9.72168 49.047 9.93652 48.8501C10.1514 48.6532 10.2588 48.3936 10.2588 48.0713V46.9971H11.333C11.6195 46.9971 11.8701 46.8986 12.085 46.7017C12.2998 46.5047 12.4072 46.2451 12.4072 45.9229C12.4072 45.6364 12.2998 45.3857 12.085 45.1709C11.8701 44.9561 11.6195 44.8486 11.333 44.8486ZM13.1055 6.49902C14.0007 6.49902 14.7616 6.18571 15.3882 5.55908C16.0148 4.93245 16.3281 4.17155 16.3281 3.27637C16.3281 2.38118 16.0148 1.62028 15.3882 0.993652C14.7616 0.367023 14.0007 0.0537109 13.1055 0.0537109C12.2103 0.0537109 11.4494 0.367023 10.8228 0.993652C10.1961 1.62028 9.88281 2.38118 9.88281 3.27637C9.88281 4.17155 10.1961 4.93245 10.8228 5.55908C11.4494 6.18571 12.2103 6.49902 13.1055 6.49902ZM13.1055 2.20215C13.3919 2.20215 13.6426 2.30062 13.8574 2.49756C14.0723 2.6945 14.1797 2.9541 14.1797 3.27637C14.1797 3.56282 14.0723 3.81348 13.8574 4.02832C13.6426 4.24316 13.3919 4.35059 13.1055 4.35059C12.819 4.35059 12.5684 4.24316 12.3535 4.02832C12.1387 3.81348 12.0312 3.56282 12.0312 3.27637C12.0312 2.9541 12.1387 2.6945 12.3535 2.49756C12.5684 2.30062 12.819 2.20215 13.1055 2.20215ZM6.3916 25.1367C7.28678 25.1367 8.04769 24.8234 8.67432 24.1968C9.30094 23.5702 9.61426 22.8092 9.61426 21.9141C9.61426 21.0189 9.30094 20.258 8.67432 19.6313C8.04769 19.0047 7.28678 18.6914 6.3916 18.6914C5.49642 18.6914 4.73551 19.0047 4.10889 19.6313C3.48226 20.258 3.16895 21.0189 3.16895 21.9141C3.16895 22.8092 3.48226 23.5702 4.10889 24.1968C4.73551 24.8234 5.49642 25.1367 6.3916 25.1367ZM6.3916 20.8398C6.67806 20.8398 6.92871 20.9383 7.14355 21.1353C7.3584 21.3322 7.46582 21.5918 7.46582 21.9141C7.46582 22.2005 7.3584 22.4512 7.14355 22.666C6.92871 22.8809 6.67806 22.9883 6.3916 22.9883C6.10514 22.9883 5.85449 22.8809 5.63965 22.666C5.4248 22.4512 5.31738 22.2005 5.31738 21.9141C5.31738 21.5918 5.4248 21.3322 5.63965 21.1353C5.85449 20.9383 6.10514 20.8398 6.3916 20.8398ZM33.6768 10.3125C34.5719 10.3125 35.3328 9.99919 35.9595 9.37256C36.5861 8.74593 36.8994 7.98503 36.8994 7.08984C36.8994 6.19466 36.5861 5.43376 35.9595 4.80713C35.3328 4.1805 34.5719 3.86719 33.6768 3.86719C32.7816 3.86719 32.0207 4.1805 31.394 4.80713C30.7674 5.43376 30.4541 6.19466 30.4541 7.08984C30.4541 7.98503 30.7674 8.74593 31.394 9.37256C32.0207 9.99919 32.7816 10.3125 33.6768 10.3125ZM33.6768 6.01562C33.9632 6.01562 34.2139 6.12305 34.4287 6.33789C34.6436 6.55273 34.751 6.80339 34.751 7.08984C34.751 7.3763 34.6436 7.62695 34.4287 7.8418C34.2139 8.05664 33.9632 8.16406 33.6768 8.16406C33.3545 8.16406 33.0949 8.05664 32.8979 7.8418C32.701 7.62695 32.6025 7.3763 32.6025 7.08984C32.6025 6.80339 32.701 6.55273 32.8979 6.33789C33.0949 6.12305 33.3545 6.01562 33.6768 6.01562ZM7.8418 30.5615C7.51953 30.5615 7.25993 30.66 7.06299 30.8569C6.86605 31.0539 6.76758 31.3135 6.76758 31.6357C6.76758 31.9222 6.86605 32.1729 7.06299 32.3877C7.25993 32.6025 7.51953 32.71 7.8418 32.71C8.12825 32.71 8.37891 32.6025 8.59375 32.3877C8.80859 32.1729 8.91602 31.9222 8.91602 31.6357C8.91602 31.3135 8.80859 31.0539 8.59375 30.8569C8.37891 30.66 8.12825 30.5615 7.8418 30.5615ZM18.96 10.2588C19.2822 10.2588 19.5418 10.1514 19.7388 9.93652C19.9357 9.72168 20.0342 9.47103 20.0342 9.18457C20.0342 8.89811 19.9357 8.64746 19.7388 8.43262C19.5418 8.21777 19.2822 8.11035 18.96 8.11035C18.6735 8.11035 18.4229 8.21777 18.208 8.43262C17.9932 8.64746 17.8857 8.89811 17.8857 9.18457C17.8857 9.47103 17.9932 9.72168 18.208 9.93652C18.4229 10.1514 18.6735 10.2588 18.96 10.2588ZM4.61914 38.5645C4.29688 38.5645 4.03727 38.6719 3.84033 38.8867C3.64339 39.1016 3.54492 39.3522 3.54492 39.6387C3.54492 39.9609 3.64339 40.2205 3.84033 40.4175C4.03727 40.6144 4.29688 40.7129 4.61914 40.7129C4.9056 40.7129 5.15625 40.6144 5.37109 40.4175C5.58594 40.2205 5.69336 39.9609 5.69336 39.6387C5.69336 39.3522 5.58594 39.1016 5.37109 38.8867C5.15625 38.6719 4.9056 38.5645 4.61914 38.5645ZM40.0146 3.27637C40.3369 3.27637 40.5965 3.16895 40.7935 2.9541C40.9904 2.73926 41.0889 2.48861 41.0889 2.20215C41.0889 1.87988 40.9904 1.62028 40.7935 1.42334C40.5965 1.2264 40.3369 1.12793 40.0146 1.12793C39.7282 1.12793 39.4775 1.2264 39.2627 1.42334C39.0479 1.62028 38.9404 1.87988 38.9404 2.20215C38.9404 2.48861 39.0479 2.73926 39.2627 2.9541C39.4775 3.16895 39.7282 3.27637 40.0146 3.27637Z" fill="#E21B22"/>
</g>
<defs>
<clipPath id="clip0_639_43507">
<rect width="55" height="55" fill="white"/>
</clipPath>
</defs>
</svg>
