<svg width="39" height="38" viewBox="0 0 39 38" fill="none" xmlns="http://www.w3.org/2000/svg">
<path d="M22.5236 29.7669C22.3547 29.8513 22.228 29.8935 22.1436 29.8935L20.8769 30.1469C20.8769 31.3291 21.088 32.448 21.5102 33.5035C21.9325 34.5591 22.5658 35.5091 23.4102 36.3535C23.5791 36.6069 23.8113 36.7335 24.1069 36.7335C24.4025 36.7335 24.6347 36.6069 24.8036 36.3535L29.6169 31.6669C30.4613 30.738 30.9469 29.6402 31.0736 28.3735C31.2002 27.1069 30.8836 25.9669 30.1236 24.9535C28.1813 26.6424 26.028 28.078 23.6636 29.2602L22.5236 29.7669ZM8.46357 16.2135C8.46357 16.1291 8.50579 16.0446 8.59023 15.9602L8.7169 15.5802C10.068 12.9624 11.7147 10.5558 13.6569 8.3602H13.5302C12.5169 7.6002 11.3558 7.26242 10.0469 7.34687C8.73801 7.43131 7.61912 7.93798 6.69023 8.86687L2.00357 13.5535C1.83468 13.8069 1.75023 14.0602 1.75023 14.3135C1.75023 14.5669 1.83468 14.778 2.00357 14.9469C2.84801 15.7913 3.81912 16.4458 4.9169 16.9102C6.01468 17.3746 7.11246 17.5646 8.21023 17.4802L8.46357 16.2135ZM22.2702 27.4869L22.6502 27.2335C26.028 25.5446 28.9836 23.2858 31.5169 20.4569C34.0502 17.628 35.9925 14.4402 37.3436 10.8935L27.9702 1.64687C24.3391 2.82909 21.0458 4.68687 18.0902 7.2202C15.1347 9.75354 12.7702 12.7513 10.9969 16.2135L22.2702 27.4869ZM21.2569 10.7669C22.2702 9.83798 23.4313 9.37354 24.7402 9.37354C26.0491 9.37354 27.168 9.83798 28.0969 10.7669C29.0258 11.6958 29.4902 12.8358 29.4902 14.1869C29.4902 15.538 29.0258 16.678 28.0969 17.6069C27.168 18.5358 26.0491 19.0002 24.7402 19.0002C23.4313 19.0002 22.2913 18.5358 21.3202 17.6069C20.3491 16.678 19.8636 15.538 19.8636 14.1869C19.8636 12.8358 20.328 11.6958 21.2569 10.7669ZM30.5036 0.886868L37.9769 8.48687C38.3991 6.62909 38.7369 4.30687 38.9902 1.5202C38.9902 1.09798 38.8636 0.760201 38.6102 0.50687C38.3569 0.253536 38.0613 0.126869 37.7236 0.126869C34.768 0.295757 32.3613 0.549091 30.5036 0.886868ZM19.7369 27.9935L10.3636 18.7469L9.8569 22.1669C9.77246 22.5046 9.8569 22.8424 10.1102 23.1802L15.3036 28.2469C15.5569 28.5002 15.8525 28.6269 16.1902 28.6269L19.7369 27.9935ZM22.9036 12.2869C22.3969 12.7935 22.1436 13.4058 22.1436 14.1235C22.1436 14.8413 22.3969 15.4535 22.9036 15.9602C23.4102 16.4669 24.0225 16.7202 24.7402 16.7202C25.458 16.7202 26.0702 16.4669 26.5769 15.9602C27.0836 15.4535 27.3369 14.8413 27.3369 14.1235C27.3369 13.4058 27.0836 12.7935 26.5769 12.2869C26.0702 11.7802 25.458 11.5269 24.7402 11.5269C24.0225 11.5269 23.4102 11.7802 22.9036 12.2869ZM9.73023 29.0069C9.56135 28.838 9.30801 28.7535 8.97023 28.7535C8.63246 28.7535 8.37912 28.838 8.21023 29.0069L4.5369 32.6802C4.36801 32.9335 4.28357 33.208 4.28357 33.5035C4.28357 33.7991 4.38912 34.0524 4.60023 34.2635C4.81135 34.4746 5.06468 34.5802 5.36023 34.5802C5.65579 34.5802 5.93023 34.4535 6.18357 34.2002L9.73023 30.6535C9.98357 30.4002 10.1102 30.1258 10.1102 29.8302C10.1102 29.5346 9.98357 29.2602 9.73023 29.0069ZM6.56357 25.8402C6.31023 25.5869 6.03579 25.4602 5.74023 25.4602C5.44468 25.4602 5.17023 25.5869 4.9169 25.8402L1.37023 29.3869C1.1169 29.6402 0.990234 29.9146 0.990234 30.2102C0.990234 30.5058 1.09579 30.7591 1.3069 30.9702C1.51801 31.1813 1.77135 31.2869 2.0669 31.2869C2.36246 31.2869 2.6369 31.2024 2.89023 31.0335L6.56357 27.3602C6.73246 27.1913 6.8169 26.938 6.8169 26.6002C6.8169 26.2624 6.73246 26.0091 6.56357 25.8402ZM11.3769 32.3002L7.83023 35.9735C7.5769 36.1424 7.45023 36.3746 7.45023 36.6702C7.45023 36.9658 7.55579 37.2402 7.7669 37.4935C7.97801 37.7469 8.25246 37.8735 8.59023 37.8735C8.92801 37.8735 9.18134 37.7469 9.35023 37.4935L13.0236 33.8202C13.1925 33.6513 13.2769 33.398 13.2769 33.0602C13.2769 32.7224 13.1713 32.448 12.9602 32.2369C12.7491 32.0258 12.4958 31.9202 12.2002 31.9202C11.9047 31.9202 11.6302 32.0469 11.3769 32.3002Z" fill="white"/>
</svg>
