<svg width="241" height="189" viewBox="0 0 241 189" fill="none" xmlns="http://www.w3.org/2000/svg">
<path d="M105.52 40.2192L33.0358 96.3182C33.0358 96.3182 29.8488 103.293 34.9627 109.23C40.0025 115.24 45.7093 112.421 45.7093 112.421L68.6848 97.8765" stroke="#383838" stroke-width="2" stroke-miterlimit="10"/>
<path d="M122.566 61.6646L101.221 76.654" stroke="#383838" stroke-width="2" stroke-miterlimit="10"/>
<path d="M32.219 101.735L24.5853 108.191C23.3253 109.23 22.5842 110.788 22.5842 112.421V112.569C22.5101 115.315 24.3629 117.689 27.031 118.283C28.5874 118.654 30.218 118.283 31.4779 117.393L38.5929 112.495" stroke="#383838" stroke-width="2" stroke-miterlimit="10"/>
<path d="M110.855 34.8022L107.223 37.6962C103.74 40.2934 104.777 47.4913 109.447 53.8729C114.19 60.2545 120.786 63.3712 124.269 60.774L127.827 58.7704" stroke="#383838" stroke-width="2" stroke-miterlimit="10"/>
<path d="M141.242 61.5902C158.025 61.5902 171.629 47.9689 171.629 31.1662C171.629 14.3635 158.025 0.742188 141.242 0.742188C124.46 0.742188 110.855 14.3635 110.855 31.1662C110.855 47.9689 124.46 61.5902 141.242 61.5902Z" stroke="#383838" stroke-width="2" stroke-miterlimit="10"/>
<path d="M105.074 73.9082C104.333 75.9859 103.222 76.0601 102.258 76.0601C101.295 76.0601 100.479 75.5407 99.8864 74.7987C98.7747 73.3146 97.663 72.0531 96.6254 71.0142C92.8455 67.3782 86.9164 67.0813 82.6918 70.198L69.4254 79.8446C63.7185 84.0001 63.2739 92.6079 68.7583 97.0601C69.1289 97.357 69.4254 97.5796 69.7959 97.8022C70.9076 98.47 72.3158 98.3958 73.3534 97.6538L107.668 72.1273" stroke="#383838" stroke-width="2" stroke-miterlimit="10"/>
<path d="M96.6996 80.29V91.1982C96.6996 92.3112 96.1808 93.3501 95.3656 94.0922C92.9198 96.1699 86.9906 99.3607 76.1699 95.5763" stroke="#383838" stroke-width="2" stroke-miterlimit="10"/>
<path d="M82.8398 97.2827V148.929" stroke="#383838" stroke-width="2" stroke-miterlimit="10"/>
<path d="M92.1782 95.6504V151.824C92.1782 159.244 98.1815 165.18 105.519 165.18H228.771C235.145 165.18 240.259 170.375 240.259 176.682C240.259 183.064 235.071 188.184 228.771 188.184H-167" stroke="#383838" stroke-width="2" stroke-miterlimit="10"/>
<path d="M79.5781 120.36H96.6986" stroke="#383838" stroke-width="2" stroke-miterlimit="10"/>
<path d="M79.5781 125.926H96.6986" stroke="#383838" stroke-width="2" stroke-miterlimit="10"/>
</svg>
