<svg width="15" height="15" viewBox="0 0 15 15" fill="none" xmlns="http://www.w3.org/2000/svg">
<path d="M7.55312 0.109375C8.86172 0.109375 10.0727 0.441406 11.1859 1.10547C12.2992 1.75 13.1781 2.62891 13.8227 3.74219C14.4867 4.85547 14.8187 6.06641 14.8187 7.375C14.8187 8.68359 14.4867 9.89453 13.8227 11.0078C13.1781 12.1211 12.2992 13 11.1859 13.6445C10.0727 14.3086 8.86172 14.6406 7.55312 14.6406C6.24453 14.6406 5.03359 14.3086 3.92031 13.6445C2.80703 13 1.91836 12.1211 1.2543 11.0078C0.609766 9.89453 0.2875 8.68359 0.2875 7.375C0.2875 6.06641 0.609766 4.85547 1.2543 3.74219C1.91836 2.62891 2.80703 1.75 3.92031 1.10547C5.03359 0.441406 6.24453 0.109375 7.55312 0.109375ZM6.70352 4.32812L8.93008 6.4375H3.56875C3.37344 6.4375 3.20742 6.50586 3.0707 6.64258C2.93398 6.7793 2.86562 6.94531 2.86562 7.14062V7.60938C2.86562 7.80469 2.93398 7.9707 3.0707 8.10742C3.20742 8.24414 3.37344 8.3125 3.56875 8.3125H8.93008L6.70352 10.4219C6.5668 10.5586 6.49844 10.7344 6.49844 10.9492C6.49844 11.1445 6.5668 11.3105 6.70352 11.4473L7.02578 11.7695C7.1625 11.9062 7.32852 11.9746 7.52383 11.9746C7.71914 11.9746 7.88516 11.9062 8.02187 11.7695L11.8891 7.87305C12.0258 7.73633 12.0941 7.57031 12.0941 7.375C12.0941 7.17969 12.0258 7.01367 11.8891 6.87695L8.02187 2.98047C7.88516 2.84375 7.71914 2.77539 7.52383 2.77539C7.32852 2.77539 7.1625 2.84375 7.02578 2.98047L6.70352 3.30273C6.5668 3.43945 6.49844 3.61523 6.49844 3.83008C6.49844 4.02539 6.5668 4.19141 6.70352 4.32812Z" fill="white"/>
</svg>
