<svg width="15" height="15" viewBox="0 0 15 15" fill="none" xmlns="http://www.w3.org/2000/svg">
<path d="M8.85742 3.29297L12.3574 6.79297L4.75586 14.3945L1.63867 14.75C1.41992 14.7682 1.23763 14.7044 1.0918 14.5586C0.945964 14.4128 0.882161 14.2305 0.900391 14.0117L1.25586 10.8945L8.85742 3.29297ZM14.5176 2.77344L12.877 1.13281C12.6217 0.877604 12.3118 0.75 11.9473 0.75C11.5827 0.75 11.2728 0.877604 11.0176 1.13281L9.45898 2.69141L12.959 6.19141L14.5176 4.63281C14.7728 4.3776 14.9004 4.06771 14.9004 3.70312C14.9004 3.33854 14.7728 3.02865 14.5176 2.77344Z" fill="#E21B22"/>
</svg>
