<svg width="14" height="15" viewBox="0 0 14 15" fill="none" xmlns="http://www.w3.org/2000/svg">
<path d="M6.90039 7.75C7.53841 7.75 8.12174 7.59505 8.65039 7.28516C9.19727 6.97526 9.62565 6.55599 9.93555 6.02734C10.2454 5.48047 10.4004 4.88802 10.4004 4.25C10.4004 3.61198 10.2454 3.02865 9.93555 2.5C9.62565 1.95312 9.19727 1.52474 8.65039 1.21484C8.12174 0.904948 7.53841 0.75 6.90039 0.75C6.26237 0.75 5.66992 0.904948 5.12305 1.21484C4.5944 1.52474 4.17513 1.95312 3.86523 2.5C3.55534 3.02865 3.40039 3.61198 3.40039 4.25C3.40039 4.88802 3.55534 5.48047 3.86523 6.02734C4.17513 6.55599 4.5944 6.97526 5.12305 7.28516C5.66992 7.59505 6.26237 7.75 6.90039 7.75ZM9.36133 8.625H8.89648C8.25846 8.91667 7.5931 9.0625 6.90039 9.0625C6.20768 9.0625 5.54232 8.91667 4.9043 8.625H4.43945C3.7832 8.625 3.17253 8.78906 2.60742 9.11719C2.04232 9.44531 1.5957 9.89193 1.26758 10.457C0.939453 11.0221 0.775391 11.6328 0.775391 12.2891V13.4375C0.775391 13.8021 0.902995 14.112 1.1582 14.3672C1.41341 14.6224 1.72331 14.75 2.08789 14.75H11.7129C12.0775 14.75 12.3874 14.6224 12.6426 14.3672C12.8978 14.112 13.0254 13.8021 13.0254 13.4375V12.2891C13.0254 11.6328 12.8613 11.0221 12.5332 10.457C12.2051 9.89193 11.7585 9.44531 11.1934 9.11719C10.6283 8.78906 10.0176 8.625 9.36133 8.625Z" fill="#E21B22"/>
</svg>
