<svg width="15" height="11" viewBox="0 0 15 11" fill="none" xmlns="http://www.w3.org/2000/svg">
<path d="M14.627 3.97266C14.6816 3.91797 14.7363 3.90885 14.791 3.94531C14.8639 3.98177 14.9004 4.03646 14.9004 4.10938V9.6875C14.9004 10.0521 14.7728 10.362 14.5176 10.6172C14.2624 10.8724 13.9525 11 13.5879 11H2.21289C1.84831 11 1.53841 10.8724 1.2832 10.6172C1.02799 10.362 0.900391 10.0521 0.900391 9.6875V4.10938C0.900391 4.03646 0.927734 3.99089 0.982422 3.97266C1.05534 3.9362 1.11914 3.9362 1.17383 3.97266C1.77539 4.42839 3.17904 5.45833 5.38477 7.0625L5.6582 7.30859C6.0957 7.63672 6.44206 7.8737 6.69727 8.01953C7.13477 8.25651 7.53581 8.375 7.90039 8.375C8.26497 8.375 8.66602 8.2474 9.10352 7.99219C9.37695 7.84635 9.72331 7.60938 10.1426 7.28125L10.416 7.0625C12.5671 5.51302 13.9707 4.48307 14.627 3.97266ZM7.90039 7.5C8.13737 7.5 8.42904 7.39062 8.77539 7.17188C8.97591 7.0625 9.25846 6.86198 9.62305 6.57031L9.89648 6.37891C12.1934 4.72005 13.7337 3.58073 14.5176 2.96094L14.6543 2.85156C14.8184 2.72396 14.9004 2.55078 14.9004 2.33203V1.8125C14.9004 1.44792 14.7728 1.13802 14.5176 0.882812C14.2624 0.627604 13.9525 0.5 13.5879 0.5H2.21289C1.84831 0.5 1.53841 0.627604 1.2832 0.882812C1.02799 1.13802 0.900391 1.44792 0.900391 1.8125V2.33203C0.900391 2.55078 0.982422 2.72396 1.14648 2.85156L1.33789 2.98828C2.13997 3.60807 3.66211 4.73828 5.9043 6.37891L6.17773 6.57031C6.54232 6.86198 6.82487 7.0625 7.02539 7.17188C7.37174 7.39062 7.66341 7.5 7.90039 7.5Z" fill="#E21B22"/>
</svg>
