<svg width="39" height="38" viewBox="0 0 39 38" fill="none" xmlns="http://www.w3.org/2000/svg">
<g clip-path="url(#clip0_244_64168)">
<path d="M22.5236 29.7666C22.3547 29.8511 22.228 29.8933 22.1436 29.8933L20.8769 30.1466C20.8769 31.3288 21.088 32.4477 21.5102 33.5033C21.9325 34.5588 22.5658 35.5088 23.4102 36.3533C23.5791 36.6066 23.8113 36.7333 24.1069 36.7333C24.4025 36.7333 24.6347 36.6066 24.8036 36.3533L29.6169 31.6666C30.4613 30.7377 30.9469 29.64 31.0736 28.3733C31.2002 27.1066 30.8836 25.9666 30.1236 24.9533C28.1813 26.6422 26.028 28.0777 23.6636 29.26L22.5236 29.7666ZM8.46357 16.2133C8.46357 16.1288 8.50579 16.0444 8.59023 15.96L8.7169 15.58C10.068 12.9622 11.7147 10.5555 13.6569 8.35996H13.5302C12.5169 7.59996 11.3558 7.26218 10.0469 7.34662C8.73801 7.43107 7.61912 7.93774 6.69023 8.86662L2.00357 13.5533C1.83468 13.8066 1.75023 14.06 1.75023 14.3133C1.75023 14.5666 1.83468 14.7777 2.00357 14.9466C2.84801 15.7911 3.81912 16.4455 4.9169 16.91C6.01468 17.3744 7.11246 17.5644 8.21023 17.48L8.46357 16.2133ZM22.2702 27.4866L22.6502 27.2333C26.028 25.5444 28.9836 23.2855 31.5169 20.4566C34.0502 17.6277 35.9925 14.44 37.3436 10.8933L27.9702 1.64663C24.3391 2.82885 21.0458 4.68663 18.0902 7.21996C15.1347 9.75329 12.7702 12.7511 10.9969 16.2133L22.2702 27.4866ZM21.2569 10.7666C22.2702 9.83774 23.4313 9.37329 24.7402 9.37329C26.0491 9.37329 27.168 9.83774 28.0969 10.7666C29.0258 11.6955 29.4902 12.8355 29.4902 14.1866C29.4902 15.5377 29.0258 16.6777 28.0969 17.6066C27.168 18.5355 26.0491 19 24.7402 19C23.4313 19 22.2913 18.5355 21.3202 17.6066C20.3491 16.6777 19.8636 15.5377 19.8636 14.1866C19.8636 12.8355 20.328 11.6955 21.2569 10.7666ZM30.5036 0.886623L37.9769 8.48663C38.3991 6.62885 38.7369 4.30663 38.9902 1.51996C38.9902 1.09774 38.8636 0.759956 38.6102 0.506626C38.3569 0.253292 38.0613 0.126625 37.7236 0.126625C34.768 0.295513 32.3613 0.548847 30.5036 0.886623ZM19.7369 27.9933L10.3636 18.7466L9.8569 22.1666C9.77246 22.5044 9.8569 22.8422 10.1102 23.18L15.3036 28.2466C15.5569 28.5 15.8525 28.6266 16.1902 28.6266L19.7369 27.9933ZM22.9036 12.2866C22.3969 12.7933 22.1436 13.4055 22.1436 14.1233C22.1436 14.8411 22.3969 15.4533 22.9036 15.96C23.4102 16.4666 24.0225 16.72 24.7402 16.72C25.458 16.72 26.0702 16.4666 26.5769 15.96C27.0836 15.4533 27.3369 14.8411 27.3369 14.1233C27.3369 13.4055 27.0836 12.7933 26.5769 12.2866C26.0702 11.78 25.458 11.5266 24.7402 11.5266C24.0225 11.5266 23.4102 11.78 22.9036 12.2866ZM9.73023 29.0066C9.56135 28.8377 9.30801 28.7533 8.97023 28.7533C8.63246 28.7533 8.37912 28.8377 8.21023 29.0066L4.5369 32.68C4.36801 32.9333 4.28357 33.2077 4.28357 33.5033C4.28357 33.7988 4.38912 34.0522 4.60023 34.2633C4.81135 34.4744 5.06468 34.58 5.36023 34.58C5.65579 34.58 5.93023 34.4533 6.18357 34.2L9.73023 30.6533C9.98357 30.4 10.1102 30.1255 10.1102 29.83C10.1102 29.5344 9.98357 29.26 9.73023 29.0066ZM6.56357 25.84C6.31023 25.5866 6.03579 25.46 5.74023 25.46C5.44468 25.46 5.17023 25.5866 4.9169 25.84L1.37023 29.3866C1.1169 29.64 0.990234 29.9144 0.990234 30.21C0.990234 30.5055 1.09579 30.7588 1.3069 30.97C1.51801 31.1811 1.77135 31.2866 2.0669 31.2866C2.36246 31.2866 2.6369 31.2022 2.89023 31.0333L6.56357 27.36C6.73246 27.1911 6.8169 26.9377 6.8169 26.6C6.8169 26.2622 6.73246 26.0088 6.56357 25.84ZM11.3769 32.3L7.83023 35.9733C7.5769 36.1422 7.45023 36.3744 7.45023 36.67C7.45023 36.9655 7.55579 37.24 7.7669 37.4933C7.97801 37.7466 8.25246 37.8733 8.59023 37.8733C8.92801 37.8733 9.18134 37.7466 9.35023 37.4933L13.0236 33.82C13.1925 33.6511 13.2769 33.3977 13.2769 33.06C13.2769 32.7222 13.1713 32.4477 12.9602 32.2366C12.7491 32.0255 12.4958 31.92 12.2002 31.92C11.9047 31.92 11.6302 32.0466 11.3769 32.3Z" fill="white"/>
</g>
<defs>
<clipPath id="clip0_244_64168">
<rect width="38.02" height="38" fill="white" transform="matrix(1 0 0 -1 0.980469 38)"/>
</clipPath>
</defs>
</svg>
