<svg width="39" height="38" viewBox="0 0 39 38" fill="none" xmlns="http://www.w3.org/2000/svg">
<g clip-path="url(#clip0_244_64164)">
<path d="M29.9969 17.2266C29.9969 15.2844 29.5325 13.49 28.6036 11.8433C27.6747 10.1966 26.3869 8.90886 24.7402 7.97997C23.0936 7.05108 21.2991 6.58664 19.3569 6.58664C19.188 6.58664 19.0402 6.62886 18.9136 6.7133C18.7869 6.79775 18.7236 6.92442 18.7236 7.09331V7.4733C18.3013 7.05108 17.7525 6.77664 17.0769 6.64997C16.4013 6.52331 15.768 6.56553 15.1769 6.77664C14.5858 6.98775 14.0791 7.34664 13.6569 7.85331C13.2347 8.35997 12.9813 8.90886 12.8969 9.49997C11.7147 9.66886 10.8491 10.26 10.3002 11.2733C9.75135 12.2866 9.68801 13.3 10.1102 14.3133C9.68801 14.6511 9.35023 15.0733 9.0969 15.58C8.84357 16.0866 8.7169 16.6355 8.7169 17.2266C8.7169 17.8177 8.84357 18.3666 9.0969 18.8733C9.35023 19.38 9.68801 19.76 10.1102 20.0133C9.68801 21.1111 9.75135 22.1455 10.3002 23.1166C10.8491 24.0877 11.7147 24.7 12.8969 24.9533C12.9813 25.2911 13.108 25.6711 13.2769 26.0933C12.6013 26.7689 12.2636 27.5711 12.2636 28.5C12.2636 29.4289 12.6013 30.2311 13.2769 30.9066L13.4036 31.16V32.0466C13.4036 32.5533 13.5725 32.9755 13.9102 33.3133C14.248 33.6511 14.6702 33.82 15.1769 33.82H15.8102C15.8102 34.8333 16.148 35.6777 16.8236 36.3533C17.4991 37.0289 18.3436 37.3666 19.3569 37.3666C20.3702 37.3666 21.2147 37.0289 21.8902 36.3533C22.5658 35.6777 22.9036 34.8333 22.9036 33.82H23.5369C24.0436 33.82 24.4658 33.6511 24.8036 33.3133C25.1413 32.9755 25.3102 32.5533 25.3102 32.0466V30.9066C25.3102 30.7377 25.2469 30.59 25.1202 30.4633C24.9936 30.3366 24.8458 30.2733 24.6769 30.2733C24.8458 27.9933 25.7325 26.0089 27.3369 24.32C28.1813 23.3911 28.8358 22.3144 29.3002 21.09C29.7647 19.8655 29.9969 18.5777 29.9969 17.2266ZM14.2902 30.2733L14.0369 30.1466C13.6147 29.7244 13.4036 29.1966 13.4036 28.5633C13.4036 27.93 13.6147 27.4022 14.0369 26.98C14.7125 27.6555 15.5569 27.9722 16.5702 27.93C17.5836 27.8877 18.3858 27.4866 18.9769 26.7266H24.4236C23.9169 27.8244 23.6213 29.0066 23.5369 30.2733H14.2902ZM10.9969 21.4066C10.9969 21.1533 11.0391 20.9 11.1236 20.6466C11.4613 20.7311 11.8413 20.7733 12.2636 20.7733V19.6333C11.588 19.6333 11.018 19.4011 10.5536 18.9366C10.0891 18.4722 9.8569 17.9022 9.8569 17.2266C9.8569 16.5511 10.0891 15.9811 10.5536 15.5166C11.018 15.0522 11.588 14.82 12.2636 14.82V13.68C11.8413 13.68 11.4613 13.7222 11.1236 13.8066C11.0391 13.3844 11.0391 12.9411 11.1236 12.4766C11.208 12.0122 11.4402 11.6111 11.8202 11.2733C12.2002 10.9355 12.6225 10.7455 13.0869 10.7033C13.5513 10.6611 13.9947 10.7244 14.4169 10.8933C14.8391 11.0622 15.1769 11.3577 15.4302 11.78C15.6836 12.2022 15.8102 12.6244 15.8102 13.0466H16.9502C16.9502 12.2022 16.6758 11.4422 16.1269 10.7666C15.578 10.0911 14.8813 9.71108 14.0369 9.62664C14.2058 9.03553 14.5436 8.54997 15.0502 8.16997C15.5569 7.78997 16.1058 7.64219 16.6969 7.72664C17.288 7.81108 17.7736 8.08553 18.1536 8.54997C18.5336 9.01442 18.7236 9.54219 18.7236 10.1333V17.2266C18.7236 17.7333 18.5547 18.1555 18.2169 18.4933C17.8791 18.8311 17.4569 19 16.9502 19C16.4436 19 16.0213 18.8311 15.6836 18.4933C15.3458 18.1555 15.1769 17.7333 15.1769 17.2266H14.0369C14.0369 18.0711 14.3325 18.7677 14.9236 19.3166C15.5147 19.8655 16.1691 20.14 16.8869 20.14C17.6047 20.14 18.2169 19.9711 18.7236 19.6333V24.32C18.7236 24.9111 18.5336 25.4389 18.1536 25.9033C17.7736 26.3677 17.288 26.6211 16.6969 26.6633C16.1058 26.7055 15.5569 26.5577 15.0502 26.22C14.5436 25.8822 14.2058 25.4177 14.0369 24.8266C14.8813 24.6577 15.578 24.2566 16.1269 23.6233C16.6758 22.99 16.9502 22.2511 16.9502 21.4066H15.8102C15.8102 22.0822 15.578 22.6522 15.1136 23.1166C14.6491 23.5811 14.0791 23.8133 13.4036 23.8133C12.728 23.8133 12.158 23.5811 11.6936 23.1166C11.2291 22.6522 10.9969 22.0822 10.9969 21.4066ZM19.3569 36.2266C18.6813 36.2266 18.1113 35.9944 17.6469 35.53C17.1825 35.0655 16.9502 34.4955 16.9502 33.82H21.7636C21.7636 34.4955 21.5313 35.0655 21.0669 35.53C20.6025 35.9944 20.0325 36.2266 19.3569 36.2266ZM24.1702 32.0466C24.1702 32.2155 24.1069 32.3633 23.9802 32.49C23.8536 32.6166 23.7058 32.68 23.5369 32.68H15.1769C15.008 32.68 14.8602 32.6166 14.7336 32.49C14.6069 32.3633 14.5436 32.2155 14.5436 32.0466V31.4133H24.1702V32.0466ZM24.9302 25.5866H19.7369C19.9058 25.1644 19.9902 24.7422 19.9902 24.32V10.7666C21.6791 10.8511 23.0936 11.5266 24.2336 12.7933C25.3736 14.06 25.9436 15.5378 25.9436 17.2266H27.0836C27.0836 15.2 26.3869 13.4478 24.9936 11.97C23.6002 10.4922 21.9325 9.66886 19.9902 9.49997V7.72664C21.7636 7.81108 23.3891 8.40219 24.8669 9.49997C26.3447 10.5977 27.4425 11.9911 28.1602 13.68C28.878 15.3689 29.068 17.1 28.7302 18.8733C28.3925 20.6466 27.6325 22.2089 26.4502 23.56C25.8591 24.1511 25.3525 24.8266 24.9302 25.5866ZM32.4036 17.86H35.4436C35.6125 17.86 35.7391 17.7966 35.8236 17.67C35.908 17.5433 35.9502 17.3955 35.9502 17.2266C35.9502 14.1866 35.2113 11.4 33.7336 8.86664C32.2558 6.33331 30.2502 4.32775 27.7169 2.84997C25.1836 1.37219 22.3969 0.633305 19.3569 0.633305C16.3169 0.633305 13.5302 1.37219 10.9969 2.84997C8.46357 4.32775 6.45801 6.33331 4.98023 8.86664C3.50246 11.4 2.76357 14.1866 2.76357 17.2266C2.76357 17.3955 2.80579 17.5433 2.89023 17.67C2.97468 17.7966 3.10135 17.86 3.27023 17.86H6.31023C6.47912 17.86 6.6269 17.7966 6.75357 17.67C6.88023 17.5433 6.94357 17.3955 6.94357 17.2266C6.94357 14.9466 7.49246 12.8566 8.59023 10.9566C9.68801 9.05664 11.1869 7.55775 13.0869 6.45997C14.9869 5.36219 17.0769 4.79219 19.3569 4.74997C21.6369 4.70775 23.7269 5.25664 25.6269 6.39664C27.5269 7.53664 29.0258 9.05664 30.1236 10.9566C31.2213 12.8566 31.7702 14.9466 31.7702 17.2266C31.7702 17.3955 31.8336 17.5433 31.9602 17.67C32.0869 17.7966 32.2347 17.86 32.4036 17.86ZM19.3569 3.54664C16.9925 3.54664 14.7758 4.13775 12.7069 5.31997C10.638 6.50219 8.99135 8.08553 7.7669 10.07C6.54246 12.0544 5.84579 14.2289 5.6769 16.5933H3.90357C3.98801 13.8911 4.74801 11.4 6.18357 9.11997C7.61912 6.83997 9.49801 5.04553 11.8202 3.73664C14.1425 2.42775 16.6547 1.7733 19.3569 1.7733C22.0591 1.7733 24.5713 2.42775 26.8936 3.73664C29.2158 5.04553 31.0947 6.83997 32.5302 9.11997C33.9658 11.4 34.7258 13.8911 34.8102 16.5933H33.0369C32.868 14.2289 32.1713 12.0544 30.9469 10.07C29.7225 8.08553 28.0758 6.50219 26.0069 5.31997C23.938 4.13775 21.7213 3.54664 19.3569 3.54664ZM37.2169 2.91331C36.7102 2.91331 36.288 2.74442 35.9502 2.40664C35.6125 2.06886 35.4436 1.64664 35.4436 1.13997C35.4436 0.971085 35.3802 0.844418 35.2536 0.759972C35.1269 0.675526 34.9791 0.633305 34.8102 0.633305C34.6413 0.633305 34.4936 0.675526 34.3669 0.759972C34.2402 0.844418 34.1769 0.971085 34.1769 1.13997C34.1769 1.64664 34.008 2.06886 33.6702 2.40664C33.3325 2.74442 32.9102 2.91331 32.4036 2.91331C32.2347 2.91331 32.0869 2.97664 31.9602 3.10331C31.8336 3.22997 31.7702 3.37775 31.7702 3.54664C31.7702 3.71553 31.8336 3.8633 31.9602 3.98997C32.0869 4.11664 32.2347 4.17997 32.4036 4.17997C32.9102 4.17997 33.3325 4.34886 33.6702 4.68664C34.008 5.02442 34.1769 5.44664 34.1769 5.9533C34.1769 6.12219 34.2402 6.26997 34.3669 6.39664C34.4936 6.52331 34.6413 6.58664 34.8102 6.58664C34.9791 6.58664 35.1269 6.52331 35.2536 6.39664C35.3802 6.26997 35.4436 6.12219 35.4436 5.9533C35.4436 5.44664 35.6125 5.02442 35.9502 4.68664C36.288 4.34886 36.7102 4.17997 37.2169 4.17997C37.3858 4.17997 37.5125 4.11664 37.5969 3.98997C37.6813 3.8633 37.7236 3.71553 37.7236 3.54664C37.7236 3.37775 37.6813 3.22997 37.5969 3.10331C37.5125 2.97664 37.3858 2.91331 37.2169 2.91331ZM34.8102 4.17997C34.6413 3.92664 34.4302 3.71553 34.1769 3.54664C34.4302 3.37775 34.6413 3.16664 34.8102 2.91331C34.9791 3.16664 35.1902 3.37775 35.4436 3.54664C35.1902 3.71553 34.9791 3.92664 34.8102 4.17997ZM6.31023 2.91331C5.80357 2.91331 5.38135 2.74442 5.04357 2.40664C4.70579 2.06886 4.5369 1.64664 4.5369 1.13997C4.5369 0.971085 4.47357 0.844418 4.3469 0.759972C4.22023 0.675526 4.07246 0.633305 3.90357 0.633305C3.73468 0.633305 3.5869 0.675526 3.46023 0.759972C3.33357 0.844418 3.27023 0.971085 3.27023 1.13997C3.27023 1.64664 3.10135 2.06886 2.76357 2.40664C2.42579 2.74442 2.00357 2.91331 1.4969 2.91331C1.32801 2.91331 1.20135 2.97664 1.1169 3.10331C1.03246 3.22997 0.990234 3.37775 0.990234 3.54664C0.990234 3.71553 1.03246 3.8633 1.1169 3.98997C1.20135 4.11664 1.32801 4.17997 1.4969 4.17997C2.00357 4.17997 2.42579 4.34886 2.76357 4.68664C3.10135 5.02442 3.27023 5.44664 3.27023 5.9533C3.27023 6.12219 3.33357 6.26997 3.46023 6.39664C3.5869 6.52331 3.73468 6.58664 3.90357 6.58664C4.07246 6.58664 4.22023 6.52331 4.3469 6.39664C4.47357 6.26997 4.5369 6.12219 4.5369 5.9533C4.5369 5.44664 4.70579 5.02442 5.04357 4.68664C5.38135 4.34886 5.80357 4.17997 6.31023 4.17997C6.47912 4.17997 6.6269 4.11664 6.75357 3.98997C6.88023 3.8633 6.94357 3.71553 6.94357 3.54664C6.94357 3.37775 6.88023 3.22997 6.75357 3.10331C6.6269 2.97664 6.47912 2.91331 6.31023 2.91331ZM3.90357 4.17997C3.73468 3.92664 3.52357 3.71553 3.27023 3.54664C3.52357 3.37775 3.73468 3.16664 3.90357 2.91331C4.07246 3.16664 4.28357 3.37775 4.5369 3.54664C4.28357 3.71553 4.07246 3.92664 3.90357 4.17997Z" fill="white"/>
</g>
<defs>
<clipPath id="clip0_244_64164">
<rect width="38.02" height="38" fill="white" transform="matrix(1 0 0 -1 0.980469 38)"/>
</clipPath>
</defs>
</svg>
