<svg width="65" height="64" viewBox="0 0 65 64" fill="none" xmlns="http://www.w3.org/2000/svg">
<path d="M4.17334 34.56H15.0533C16.0489 34.56 16.8667 34.9156 17.5067 35.6267C18.1467 36.3378 18.4667 37.12 18.4667 37.9733V55.2533C18.4667 57.6711 17.6133 59.7333 15.9067 61.44C14.2 63.1467 12.1378 64 9.72001 64H4.17334C3.32001 64 2.53779 63.6444 1.82668 62.9333C1.11557 62.2222 0.76001 61.44 0.76001 60.5867V37.9733C0.76001 37.12 1.11557 36.3378 1.82668 35.6267C2.53779 34.9156 3.32001 34.56 4.17334 34.56ZM15.0533 36.48H4.17334C3.74668 36.48 3.39112 36.6222 3.10668 36.9067C2.82223 37.1911 2.68001 37.5467 2.68001 37.9733V60.5867C2.68001 61.0133 2.82223 61.3689 3.10668 61.6533C3.39112 61.9378 3.74668 62.08 4.17334 62.08H9.72001C11.5689 62.08 13.1689 61.4044 14.52 60.0533C15.8711 58.7022 16.5467 57.1022 16.5467 55.2533V37.9733C16.5467 37.5467 16.4045 37.1911 16.12 36.9067C15.8356 36.6222 15.48 36.48 15.0533 36.48ZM20.6 34.56L25.72 31.7867C26.1467 31.0756 26.3956 30.1867 26.4667 29.12C26.5378 28.0533 26.4311 26.4533 26.1467 24.32C25.8622 22.7556 26.2889 21.4756 27.4267 20.48C27.9956 19.9111 28.6356 19.5556 29.3467 19.4133C30.0578 19.2711 30.7689 19.3422 31.48 19.6267C33.1867 20.0533 34.3956 21.3333 35.1067 23.4667C35.8178 25.6 36.2445 27.7333 36.3867 29.8667C36.3867 31.4311 36.2445 33.0667 35.96 34.7733H46.2C48.1911 34.7733 49.8978 35.4844 51.32 36.9067C52.7422 38.3289 53.3111 39.8933 53.0267 41.6L51.1067 56.5333C50.8222 58.0978 50.1111 59.3067 48.9733 60.16C47.8356 61.0133 46.4133 61.44 44.7067 61.44H25.2933C22.8756 61.44 20.8133 60.5867 19.1067 58.88C17.4 57.1733 16.5467 55.1111 16.5467 52.6933V39.8933C16.5467 38.6133 16.9733 37.5467 17.8267 36.6933C18.3956 35.9822 19.32 35.2711 20.6 34.56ZM46.84 45.2267C47.1245 45.2267 47.3733 45.3333 47.5867 45.5467C47.8 45.76 47.9067 46.0089 47.9067 46.2933C47.9067 46.5778 47.8 46.8267 47.5867 47.04C47.3733 47.2533 47.1245 47.36 46.84 47.36H36.1733V49.92H46.2C46.4845 49.92 46.7333 50.0267 46.9467 50.24C47.16 50.4533 47.2667 50.7022 47.2667 50.9867C47.2667 51.2711 47.16 51.4844 46.9467 51.6267C46.7333 51.7689 46.4845 51.84 46.2 51.84H36.1733V54.6133H43.4267C43.7111 54.6133 43.96 54.6844 44.1733 54.8267C44.3867 54.9689 44.4933 55.1822 44.4933 55.4667C44.4933 55.7511 44.3867 56 44.1733 56.2133C43.96 56.4267 43.7111 56.5333 43.4267 56.5333H36.1733C36.1733 57.3867 36.4578 58.0978 37.0267 58.6667C37.5956 59.2356 38.3778 59.52 39.3733 59.52H44.7067C47.2667 59.52 48.6889 58.3822 48.9733 56.1067L51.1067 41.3867C51.1067 40.6756 50.8933 39.8933 50.4667 39.04C50.3245 39.8933 49.9689 40.6044 49.4 41.1733C48.8311 41.7422 48.12 42.0267 47.2667 42.0267H39.3733C38.52 42.0267 37.7733 42.3467 37.1333 42.9867C36.4933 43.6267 36.1733 44.3733 36.1733 45.2267H46.84ZM35.1067 59.52C34.3956 58.5244 34.04 57.4578 34.04 56.32V45.2267C34.04 43.8044 34.5733 42.5956 35.64 41.6C36.7067 40.6044 37.9511 40.1067 39.3733 40.1067H47.2667C47.6933 40.1067 48.0489 39.8578 48.3333 39.36C48.6178 38.8622 48.6889 38.4356 48.5467 38.08C48.4045 37.7244 48.12 37.4044 47.6933 37.12C47.2667 36.8356 46.7689 36.6933 46.2 36.6933H35.5333C33.8267 42.3822 31.5511 46.0089 28.7067 47.5733C28.4222 47.7156 28.1378 47.7511 27.8533 47.68C27.5689 47.6089 27.3556 47.4667 27.2133 47.2533C27.0711 47.04 27.0356 46.7911 27.1067 46.5067C27.1778 46.2222 27.3556 46.0089 27.64 45.8667C29.7733 44.7289 31.48 42.3822 32.76 38.8267C33.8978 35.84 34.3956 32.8533 34.2533 29.8667C34.2533 28.0178 33.9333 26.24 33.2933 24.5333C32.6533 22.8267 31.8356 21.8311 30.84 21.5467C30.4133 21.4044 30.0222 21.3689 29.6667 21.44C29.3111 21.5111 28.9911 21.6889 28.7067 21.9733C28.1378 22.5422 27.9245 23.2533 28.0667 24.1067C28.4933 26.3822 28.6356 28.0889 28.4933 29.2267C28.4933 29.9378 28.3511 30.7556 28.0667 31.68C27.7822 32.6044 27.3556 33.2089 26.7867 33.4933L21.6667 36.2667C20.5289 36.9778 19.7111 37.5822 19.2133 38.08C18.7156 38.5778 18.4667 39.1822 18.4667 39.8933V52.6933C18.4667 54.5422 19.1422 56.1422 20.4933 57.4933C21.8445 58.8444 23.4445 59.52 25.2933 59.52H35.1067ZM55.5867 7.46667L58.1467 12.8L63.9067 13.6533C64.1911 13.6533 64.4045 13.76 64.5467 13.9733C64.6889 14.1867 64.76 14.4 64.76 14.6133C64.76 14.8267 64.6889 15.0756 64.5467 15.36L60.28 19.2L61.3467 24.96C61.3467 25.2444 61.2756 25.4933 61.1333 25.7067C60.9911 25.92 60.7778 26.0622 60.4933 26.1333C60.2089 26.2044 59.9956 26.1689 59.8533 26.0267L54.7333 23.2533L49.6133 26.0267C49.3289 26.1689 49.0445 26.2044 48.76 26.1333C48.4756 26.0622 48.2978 25.92 48.2267 25.7067C48.1556 25.4933 48.12 25.2444 48.12 24.96L49.1867 19.2L44.92 15.36C44.6356 14.9333 44.5645 14.5422 44.7067 14.1867C44.8489 13.8311 45.1333 13.6533 45.56 13.6533L51.32 12.8L53.88 7.46667C53.88 7.32444 54.0222 7.18222 54.3067 7.04C54.5911 6.89778 54.84 6.89778 55.0533 7.04C55.2667 7.18222 55.4445 7.32444 55.5867 7.46667ZM56.44 14.08L54.7333 10.24L52.8133 14.08C52.6711 14.5067 52.4578 14.72 52.1733 14.72L47.9067 15.36L50.8933 18.1333C51.1778 18.4178 51.32 18.7733 51.32 19.2L50.4667 23.2533L54.3067 21.3333C54.5911 21.0489 54.8756 21.0489 55.16 21.3333L59 23.2533L58.1467 19.2C58.1467 18.7733 58.2178 18.4178 58.36 18.1333L61.56 15.36L57.2933 14.72C57.0089 14.72 56.7245 14.5067 56.44 14.08ZM53.88 28.5867C53.88 28.3022 54.0222 28.0889 54.3067 27.9467C54.5911 27.8044 54.84 27.7333 55.0533 27.7333C55.2667 27.7333 55.4445 27.8756 55.5867 28.16C55.7289 28.4444 55.8 28.7289 55.8 29.0133C55.5156 29.8667 55.2311 30.7556 54.9467 31.68C54.6622 32.6044 54.2356 33.5644 53.6667 34.56C53.5245 34.8444 53.3467 35.0222 53.1333 35.0933C52.92 35.1644 52.6711 35.1289 52.3867 34.9867C52.1022 34.8444 51.9245 34.6311 51.8533 34.3467C51.7822 34.0622 51.8178 33.8489 51.96 33.7067C52.3867 32.8533 52.7778 31.9644 53.1333 31.04C53.4889 30.1156 53.7378 29.2978 53.88 28.5867ZM33.8267 2.13333V11.3067C36.1022 11.1644 38.3067 10.7378 40.44 10.0267L40.8667 9.81333C40.0133 7.68 38.9467 5.93777 37.6667 4.58667C36.3867 3.23555 35.1067 2.41778 33.8267 2.13333ZM33.8267 13.2267V14.9333C33.8267 15.2178 33.72 15.4311 33.5067 15.5733C33.2933 15.7156 33.0445 15.7867 32.76 15.7867C32.4756 15.7867 32.2267 15.7156 32.0133 15.5733C31.8 15.4311 31.6933 15.2178 31.6933 14.9333V13.2267C29.2756 13.2267 26.8578 12.7289 24.44 11.7333H24.0133C23.0178 15.0044 22.4489 18.6311 22.3067 22.6133H23.16C23.4445 22.6133 23.6578 22.72 23.8 22.9333C23.9422 23.1467 24.0133 23.3956 24.0133 23.68C24.0133 23.9644 23.9422 24.1778 23.8 24.32C23.6578 24.4622 23.4445 24.5333 23.16 24.5333H22.3067V26.4533L22.7333 29.44C22.7333 29.7244 22.6622 29.9733 22.52 30.1867C22.3778 30.4 22.1645 30.5067 21.88 30.5067C21.5956 30.5067 21.3467 30.4356 21.1333 30.2933C20.92 30.1511 20.7422 29.9378 20.6 29.6533L20.3867 26.6667L20.1733 24.5333H11.2133C11.2133 25.3867 11.2845 26.1689 11.4267 26.88C11.5689 27.8756 11.7822 28.9422 12.0667 30.08C12.2089 30.3644 12.2089 30.6133 12.0667 30.8267C11.9245 31.04 11.7467 31.1822 11.5333 31.2533C11.32 31.3244 11.0711 31.3244 10.7867 31.2533C10.5022 31.1822 10.36 31.0044 10.36 30.72C9.93334 29.5822 9.61334 28.4089 9.40001 27.2C9.18668 25.9911 9.08001 24.8178 9.08001 23.68C9.08001 20.4089 9.72001 17.3511 11 14.5067C12.28 11.6622 13.9867 9.13778 16.12 6.93333C18.2533 4.72889 20.7778 3.02222 23.6933 1.81333C26.6089 0.604443 29.6667 0 32.8667 0C36.0667 0 39.1245 0.639999 42.04 1.92C44.9556 3.2 47.5511 4.97778 49.8267 7.25333C49.9689 7.39555 50.04 7.60889 50.04 7.89333C50.04 8.17778 49.9333 8.42667 49.72 8.64C49.5067 8.85333 49.2578 8.96 48.9733 8.96C48.6889 8.96 48.4756 8.81778 48.3333 8.53333L47.6933 7.89333C46.4133 9.03111 44.9911 10.0267 43.4267 10.88L43.64 11.52C43.64 11.8044 43.5689 12.0889 43.4267 12.3733C43.2845 12.6578 43.1067 12.8356 42.8933 12.9067C42.68 12.9778 42.4311 12.9422 42.1467 12.8C41.8622 12.6578 41.72 12.4444 41.72 12.16L41.5067 11.7333H41.08C38.8045 12.7289 36.3867 13.2267 33.8267 13.2267ZM31.6933 11.3067V2.13333C29.4178 2.56 27.3556 4.55111 25.5067 8.10667L24.6533 9.81333L25.08 10.0267C27.2133 10.7378 29.4178 11.1644 31.6933 11.3067ZM44.92 22.6133C45.2045 22.6133 45.4533 22.72 45.6667 22.9333C45.88 23.1467 45.9867 23.3956 45.9867 23.68C45.9867 23.9644 45.88 24.1778 45.6667 24.32C45.4533 24.4622 45.2045 24.5333 44.92 24.5333H38.0933C37.8089 24.5333 37.5956 24.4622 37.4533 24.32C37.3111 24.1778 37.24 23.9644 37.24 23.68C37.24 23.3956 37.3111 23.1467 37.4533 22.9333C37.5956 22.72 37.8089 22.6133 38.0933 22.6133H44.92ZM11.2133 22.6133H20.3867C20.3867 18.3467 21.0267 14.4356 22.3067 10.88C20.7422 10.0267 19.2489 9.03111 17.8267 7.89333L17.6133 8.32C15.6222 10.1689 14.0933 12.3378 13.0267 14.8267C11.96 17.3156 11.3556 19.9111 11.2133 22.6133ZM19.32 6.61333C20.4578 7.46667 21.6667 8.24889 22.9467 8.96L23.8 7.25333C24.6533 5.40444 25.6489 3.91111 26.7867 2.77333C24.0845 3.62667 21.5956 4.90667 19.32 6.61333ZM42.5733 8.96C43.8533 8.24889 45.0622 7.46667 46.2 6.61333C44.6356 5.47556 43 4.48 41.2933 3.62667C40.5822 3.34222 39.7289 3.05778 38.7333 2.77333L39.16 3.2C40.44 4.76444 41.5778 6.68444 42.5733 8.96ZM43.2133 26.24C43.2133 25.9556 43.32 25.7067 43.5333 25.4933C43.7467 25.28 43.9956 25.1733 44.28 25.1733C44.5645 25.1733 44.8133 25.28 45.0267 25.4933C45.24 25.7067 45.2756 25.9556 45.1333 26.24L44.92 29.0133L44.4933 31.5733C44.4933 31.8578 44.3867 32.0711 44.1733 32.2133C43.96 32.3556 43.7111 32.3911 43.4267 32.32C43.1422 32.2489 42.9289 32.1067 42.7867 31.8933C42.6445 31.68 42.5733 31.4311 42.5733 31.1467L43 28.8L43.2133 26.24ZM11 55.2533C11 54.9689 11.1067 54.72 11.32 54.5067C11.5333 54.2933 11.7822 54.1867 12.0667 54.1867C12.3511 54.1867 12.6 54.2933 12.8133 54.5067C13.0267 54.72 13.1333 54.9689 13.1333 55.2533C13.1333 56.2489 12.7422 57.1378 11.96 57.92C11.1778 58.7022 10.2533 59.0933 9.18668 59.0933C8.12001 59.0933 7.19557 58.7022 6.41334 57.92C5.63112 57.1378 5.24001 56.2489 5.24001 55.2533C5.24001 54.9689 5.34668 54.72 5.56001 54.5067C5.77334 54.2933 6.02223 54.1867 6.30668 54.1867C6.59112 54.1867 6.84001 54.2933 7.05334 54.5067C7.26668 54.72 7.37334 55.0044 7.37334 55.36C7.37334 55.7156 7.55112 56.0711 7.90668 56.4267C8.26223 56.7822 8.6889 56.96 9.18668 56.96C9.68445 56.96 10.1111 56.7822 10.4667 56.4267C10.8222 56.0711 11 55.68 11 55.2533Z" fill="#E21B22"/>
</svg>
