<svg width="61" height="60" viewBox="0 0 61 60" fill="none" xmlns="http://www.w3.org/2000/svg">
<path d="M47.49 45.4999C48.3167 45.4999 49.0055 45.2243 49.5567 44.6732C50.1078 44.1221 50.3833 43.4332 50.3833 42.6066C50.3833 41.7799 50.1078 41.091 49.5567 40.5399C49.0055 39.9888 48.3167 39.7132 47.49 39.7132C46.6633 39.7132 45.9744 39.9888 45.4233 40.5399C44.8722 41.091 44.5967 41.7799 44.5967 42.6066C44.5967 43.4332 44.8722 44.1221 45.4233 44.6732C45.9744 45.2243 46.6633 45.4999 47.49 45.4999ZM47.49 41.5732C47.7655 41.5732 47.9722 41.6766 48.11 41.8832C48.2478 42.0899 48.3167 42.331 48.3167 42.6066C48.3167 42.8821 48.2478 43.1232 48.11 43.3299C47.9722 43.5366 47.7655 43.6399 47.49 43.6399C47.2144 43.6399 46.9733 43.5366 46.7667 43.3299C46.56 43.1232 46.4567 42.8821 46.4567 42.6066C46.4567 42.331 46.56 42.0899 46.7667 41.8832C46.9733 41.6766 47.2144 41.5732 47.49 41.5732ZM57.2033 38.4732C56.9278 37.7843 57.0655 37.0954 57.6167 36.4066L59.0633 34.9599L54.93 31.0332L53.4833 32.2732C52.9322 32.9621 52.2778 33.1343 51.52 32.7899C50.7622 32.4454 50.3833 31.8599 50.3833 31.0332V28.9666H48.3167C48.1789 27.451 47.9033 26.0043 47.49 24.6266L58.65 13.2599C60.1655 11.7443 60.9233 9.91878 60.9233 7.78322C60.9233 5.64766 60.1655 3.82211 58.65 2.30655C57.1344 0.790997 55.3089 0.0332222 53.1733 0.0332222C51.0378 0.0332222 49.2122 0.790997 47.6967 2.30655L36.5367 13.4666C35.0211 12.9154 33.4367 12.6399 31.7833 12.6399C31.0944 11.3999 30.1644 10.4354 28.9933 9.74656C27.8222 9.05766 26.5478 8.71322 25.17 8.71322C24.4811 8.71322 23.7922 8.78211 23.1033 8.91989C22.1389 7.40433 20.8989 6.16433 19.3833 5.19989C17.8678 4.23544 16.2144 3.75322 14.4233 3.75322C11.8055 3.75322 9.53221 4.71767 7.60332 6.64655C5.67443 8.57544 4.70999 10.8488 4.70999 13.4666C4.70999 14.2932 4.84777 15.051 5.12332 15.7399C3.88332 16.1532 2.88443 16.8421 2.12666 17.8066C1.36888 18.771 0.98999 19.9421 0.98999 21.3199C0.98999 22.8354 1.5411 24.1788 2.64332 25.3499C3.74555 26.521 5.12332 27.1066 6.77666 27.1066H13.8033C13.6655 28.071 13.5967 29.0354 13.5967 29.9999C13.5967 31.9288 13.9411 33.7199 14.63 35.3732L5.94999 44.0532L1.19666 56.4532C1.05888 56.7288 0.98999 57.0732 0.98999 57.4866C0.98999 58.1754 1.2311 58.761 1.71332 59.2432C2.19555 59.7254 2.7811 59.9666 3.46999 59.9666C3.88332 59.9666 4.22777 59.8977 4.50332 59.7599L16.9033 55.0066L23.31 48.8066L23.1033 49.4266C23.1033 50.1154 23.3789 50.7354 23.93 51.2866C23.3789 51.8377 23.1378 52.4577 23.2067 53.1466C23.2755 53.8354 23.4822 54.4554 23.8267 55.0066C24.1711 55.5577 24.6878 55.9021 25.3767 56.0399C25.79 57.2799 26.5133 58.2443 27.5467 58.9332C28.58 59.6221 29.7167 59.9666 30.9567 59.9666C32.1967 59.9666 33.3333 59.6221 34.3667 58.9332C35.4 58.2443 36.1233 57.2799 36.5367 56.0399C37.2255 55.9021 37.7767 55.5577 38.19 55.0066C38.6033 54.4554 38.81 53.9043 38.81 53.3532L38.6033 52.9399L39.8433 54.1799L41.29 52.7332C41.8411 52.1821 42.53 52.0788 43.3567 52.4232C44.1833 52.7677 44.5967 53.3532 44.5967 54.1799V56.2466H50.3833V54.1799C50.3833 53.3532 50.7622 52.7677 51.52 52.4232C52.2778 52.0788 52.9322 52.1821 53.4833 52.7332L54.93 54.1799L59.0633 50.0466L57.6167 48.8066C57.0655 48.1177 56.9622 47.3943 57.3067 46.6366C57.6511 45.8788 58.2367 45.4999 59.0633 45.4999H60.9233V39.7132H59.0633C58.2367 39.7132 57.6167 39.2999 57.2033 38.4732ZM42.7367 41.3666C44.1144 39.9888 45.1478 38.8866 45.8367 38.0599C46.3878 37.7843 46.9389 37.6466 47.49 37.6466C48.73 37.6466 49.8322 38.1288 50.7967 39.0932C51.7611 40.0577 52.2433 41.2288 52.2433 42.6066C52.2433 43.9843 51.7611 45.121 50.7967 46.0166C49.8322 46.9121 48.6955 47.3599 47.3867 47.3599C46.0778 47.3599 44.9411 46.9121 43.9767 46.0166C43.0122 45.121 42.53 43.9843 42.53 42.6066C42.53 42.1932 42.5989 41.7799 42.7367 41.3666ZM43.9767 18.4266L48.3167 13.8799L51.83 17.3932L46.6633 22.5599C45.9744 21.0443 45.0789 19.6666 43.9767 18.4266ZM45.01 7.67989L46.4567 6.23322L54.7233 14.4999L53.2767 15.9466L45.01 7.67989ZM53.07 1.89322C54.7233 1.89322 56.1355 2.47878 57.3067 3.64989C58.4778 4.821 59.0633 6.19878 59.0633 7.78322C59.0633 9.36766 58.5122 10.7799 57.41 12.0199L56.17 13.0532L47.9033 4.78655L48.9367 3.54655C50.1767 2.44433 51.5544 1.89322 53.07 1.89322ZM43.5633 9.12655L47.0767 12.6399L42.53 16.9799C41.29 15.8777 39.9122 14.9821 38.3967 14.2932L43.5633 9.12655ZM46.4567 29.9999C46.4567 32.2043 45.9055 34.2021 44.8033 35.9932C44.2522 37.0954 43.0811 38.4732 41.29 40.1266C40.05 41.3666 39.1544 42.331 38.6033 43.0199C37.6389 44.1221 36.8811 45.2932 36.33 46.5332H31.99V41.5732C31.99 40.7466 31.68 40.0577 31.06 39.5066C30.44 38.9554 29.7855 38.6799 29.0967 38.6799H27.03C26.7544 38.6799 26.5478 38.5766 26.41 38.3699C26.2722 38.1632 26.2033 37.9566 26.2033 37.7499C26.2033 37.5432 26.2722 37.3366 26.41 37.1299C26.5478 36.9232 26.7544 36.8199 27.03 36.8199H36.7433C37.57 36.8199 38.2589 36.5443 38.81 35.9932C39.3611 35.4421 39.6367 34.7532 39.6367 33.9266C39.6367 33.0999 39.3611 32.411 38.81 31.8599C38.2589 31.3088 37.57 31.0332 36.7433 31.0332H29.0967C28.8211 31.0332 28.58 30.9299 28.3733 30.7232C28.1667 30.5166 28.0633 30.2754 28.0633 29.9999V27.1066H32.8167C34.1944 27.1066 35.3655 26.6243 36.33 25.6599C37.2944 24.6954 37.7767 23.5588 37.7767 22.2499C37.7767 20.941 37.2944 19.8043 36.33 18.8399C35.3655 17.8754 34.1944 17.3932 32.8167 17.3932V16.3599C32.8167 15.8088 32.7478 15.1888 32.61 14.4999C35.2278 14.9132 37.57 15.8432 39.6367 17.2899C41.7033 18.7366 43.3567 20.5621 44.5967 22.7666C45.8367 24.971 46.4567 27.3821 46.4567 29.9999ZM25.17 49.4266C25.17 49.151 25.2733 48.9099 25.48 48.7032C25.6867 48.4966 25.9278 48.3932 26.2033 48.3932H35.71C35.9855 48.3932 36.2267 48.4966 36.4333 48.7032C36.64 48.9099 36.7433 49.151 36.7433 49.4266C36.7433 49.7021 36.64 49.9088 36.4333 50.0466C36.2267 50.1843 35.9855 50.2532 35.71 50.2532H26.2033C25.9278 50.2532 25.6867 50.1843 25.48 50.0466C25.2733 49.9088 25.17 49.7021 25.17 49.4266ZM12.9767 49.4266L20.0033 42.1932C21.5189 43.7088 22.5522 45.0177 23.1033 46.1199L16.49 52.9399L12.9767 49.4266ZM2.84999 21.3199C2.84999 20.2177 3.22888 19.2877 3.98666 18.5299C4.74443 17.7721 5.67443 17.3932 6.77666 17.3932C7.87888 17.3932 8.80888 17.7721 9.56666 18.5299C10.3244 19.2877 10.7033 20.2177 10.7033 21.3199H12.5633C12.5633 19.8043 12.0122 18.461 10.91 17.2899C9.80777 16.1188 8.49888 15.5332 6.98332 15.5332C6.84555 14.8443 6.77666 14.1554 6.77666 13.4666C6.77666 11.3999 7.53443 9.60878 9.04999 8.09322C10.5655 6.57766 12.3567 5.81989 14.4233 5.81989C15.9389 5.81989 17.2822 6.16433 18.4533 6.85322C19.6244 7.54211 20.5544 8.50655 21.2433 9.74656C20.1411 10.2977 19.28 11.0899 18.66 12.1232C18.04 13.1566 17.6611 14.2932 17.5233 15.5332C16.5589 15.8088 15.8011 16.291 15.25 16.9799C14.6989 17.6688 14.4233 18.4266 14.4233 19.2532H16.49C16.49 18.8399 16.6622 18.4266 17.0067 18.0132C17.3511 17.5999 17.7989 17.3932 18.35 17.3932C18.9011 17.3932 19.3489 17.5999 19.6933 18.0132C20.0378 18.4266 20.21 18.8399 20.21 19.2532H22.2767C22.2767 18.4266 22.0011 17.6688 21.45 16.9799C20.8989 16.291 20.21 15.8088 19.3833 15.5332C19.6589 14.1554 20.3133 12.9843 21.3467 12.0199C22.38 11.0554 23.6889 10.5732 25.2733 10.5732C26.8578 10.5732 28.2011 11.1588 29.3033 12.3299C30.4055 13.501 30.9567 14.8443 30.9567 16.3599C30.9567 16.911 30.8878 17.4621 30.75 18.0132C29.9233 18.4266 29.2689 19.0121 28.7867 19.7699C28.3044 20.5277 28.0633 21.3199 28.0633 22.1466H29.9233C29.9233 21.4577 30.2333 20.8032 30.8533 20.1832C31.4733 19.5632 32.1622 19.2532 32.92 19.2532C33.6778 19.2532 34.3322 19.5632 34.8833 20.1832C35.4344 20.8032 35.71 21.4921 35.71 22.2499C35.71 23.0077 35.4344 23.6966 34.8833 24.3166C34.3322 24.9366 33.6433 25.2466 32.8167 25.2466H6.77666C5.67443 25.2466 4.74443 24.8677 3.98666 24.1099C3.22888 23.3521 2.84999 22.4221 2.84999 21.3199ZM26.2033 27.1066V29.9999C26.2033 30.8266 26.4789 31.5154 27.03 32.0666C27.5811 32.6177 28.27 32.8932 29.0967 32.8932H36.7433C37.0189 32.8932 37.26 32.9966 37.4667 33.2032C37.6733 33.4099 37.7767 33.651 37.7767 33.9266C37.7767 34.2021 37.6733 34.4088 37.4667 34.5466C37.26 34.6843 37.0189 34.7532 36.7433 34.7532H27.03C26.2033 34.7532 25.5144 35.0632 24.9633 35.6832C24.4122 36.3032 24.1367 36.9921 24.1367 37.7499C24.1367 38.5077 24.4122 39.1966 24.9633 39.8166C25.5144 40.4366 26.2033 40.7466 27.03 40.7466H29.0967C29.3722 40.7466 29.5789 40.8154 29.7167 40.9532C29.8544 41.091 29.9233 41.2977 29.9233 41.5732V46.5332H25.5833C25.0322 45.2932 24.2744 44.1221 23.31 43.0199C22.7589 42.331 21.8633 41.3666 20.6233 40.1266C18.8322 38.4732 17.6611 37.0954 17.11 35.9932C16.0078 34.2021 15.4567 32.2043 15.4567 29.9999C15.4567 29.1732 15.5255 28.2088 15.6633 27.1066H26.2033ZM18.7633 40.9532L11.53 47.9799L8.01666 44.4666L15.4567 37.2332C16.1455 38.1977 17.2478 39.4377 18.7633 40.9532ZM7.18999 46.3266L14.63 53.7666L8.22332 56.2466L4.70999 52.7332L7.18999 46.3266ZM3.67666 58.1066C3.53888 58.1066 3.36666 58.0377 3.15999 57.8999C2.95332 57.7621 2.84999 57.6243 2.84999 57.4866L3.88332 54.5932L6.36332 57.0732L3.67666 58.1066ZM30.9567 58.1066C30.2678 58.1066 29.6133 57.9343 28.9933 57.5899C28.3733 57.2454 27.8567 56.7977 27.4433 56.2466H34.47C34.0567 56.7977 33.54 57.2454 32.92 57.5899C32.3 57.9343 31.6455 58.1066 30.9567 58.1066ZM35.71 54.1799H26.2033C25.9278 54.1799 25.6867 54.0766 25.48 53.8699C25.2733 53.6632 25.17 53.4566 25.17 53.2499C25.17 53.0432 25.2733 52.8366 25.48 52.6299C25.6867 52.4232 25.9278 52.3199 26.2033 52.3199H35.71C35.9855 52.3199 36.2267 52.4232 36.4333 52.6299C36.64 52.8366 36.7433 53.0432 36.7433 53.2499C36.7433 53.4566 36.64 53.6632 36.4333 53.8699C36.2267 54.0766 35.9855 54.1799 35.71 54.1799ZM59.0633 43.6399C58.2367 43.6399 57.5133 43.8466 56.8933 44.2599C56.2733 44.6732 55.7911 45.2243 55.4467 45.9132C55.1022 46.6021 55.0333 47.3254 55.24 48.0832C55.4467 48.841 55.8255 49.4954 56.3767 50.0466L54.93 51.4932C54.3789 50.9421 53.7244 50.5977 52.9667 50.4599C52.2089 50.3221 51.4855 50.391 50.7967 50.6666C50.1078 50.9421 49.5222 51.3899 49.04 52.0099C48.5578 52.6299 48.3167 53.3532 48.3167 54.1799H46.4567C46.4567 53.3532 46.25 52.6299 45.8367 52.0099C45.4233 51.3899 44.8378 50.9421 44.08 50.6666C43.3222 50.391 42.5644 50.3221 41.8067 50.4599C41.0489 50.5977 40.3944 50.9421 39.8433 51.4932L38.6033 50.2532V49.4266C38.7411 48.7377 38.5344 48.1177 37.9833 47.5666C38.5344 46.1888 39.43 44.811 40.67 43.4332C40.9455 45.0866 41.7033 46.4988 42.9433 47.6699C44.1833 48.841 45.6989 49.4266 47.49 49.4266C49.2811 49.4266 50.8655 48.7721 52.2433 47.4632C53.6211 46.1543 54.31 44.5354 54.31 42.6066C54.31 40.6777 53.6211 39.0588 52.2433 37.7499C50.8655 36.441 49.2811 35.7866 47.49 35.7866H47.0767C47.7655 34.4088 48.1789 32.8243 48.3167 31.0332C48.3167 31.8599 48.5578 32.5832 49.04 33.2032C49.5222 33.8232 50.1078 34.271 50.7967 34.5466C51.4855 34.8221 52.2089 34.891 52.9667 34.7532C53.7244 34.6154 54.3789 34.271 54.93 33.7199L56.3767 35.1666C55.8255 35.7177 55.4811 36.3721 55.3433 37.1299C55.2055 37.8877 55.2744 38.611 55.55 39.2999C55.8255 39.9888 56.2733 40.5399 56.8933 40.9532C57.5133 41.3666 58.2367 41.5732 59.0633 41.5732V43.6399Z" fill="#E21B22"/>
</svg>
