<svg width="63" height="62" viewBox="0 0 63 62" fill="none" xmlns="http://www.w3.org/2000/svg">
<path d="M62.99 26.04H60.7167L57.41 27.6933C56.9967 27.5556 56.5833 27.4178 56.17 27.28L52.0367 26.2467V25.8333C53.0011 25.1444 53.7244 24.2833 54.2067 23.25C54.6889 22.2167 54.93 21.1489 54.93 20.0467V18.1867C54.93 16.2578 54.2755 14.6044 52.9667 13.2267C51.6578 11.8489 50.0389 11.0911 48.11 10.9533H47.6967L48.73 8.47334L43.3567 3.1L40.2567 5.16667C39.1544 4.47778 37.9144 3.99556 36.5367 3.72L35.71 0H28.27L27.4433 3.72C26.0655 3.99556 24.8255 4.47778 23.7233 5.16667L20.6233 3.1L15.25 8.47334L16.2833 10.9533C14.2167 10.9533 12.4944 11.6422 11.1167 13.02C9.73888 14.3978 9.04999 16.0511 9.04999 17.98V20.0467C9.04999 21.1489 9.2911 22.2167 9.77332 23.25C10.2555 24.2833 10.9789 25.1444 11.9433 25.8333V26.2467L9.25666 26.8667L4.29666 23.9733H0.98999V44.64L10.91 47.9467H12.77L12.9767 47.12L16.0767 48.98C16.0767 49.8067 16.3522 50.4956 16.9033 51.0467C17.4544 51.5978 18.1433 51.9422 18.97 52.08C18.97 52.7689 19.28 53.4233 19.9 54.0433C20.52 54.6633 21.2433 54.9733 22.07 54.9733C22.07 55.8 22.3455 56.4889 22.8967 57.04C23.4478 57.5911 24.1367 57.9356 24.9633 58.0733C24.9633 58.9 25.2733 59.5889 25.8933 60.14C26.5133 60.6911 27.2022 60.9667 27.96 60.9667C28.7178 60.9667 29.3722 60.8289 29.9233 60.5533L30.75 61.1733C31.3011 61.7244 31.99 62 32.8167 62H33.0233C33.85 62 34.5389 61.69 35.09 61.07C35.6411 60.45 35.9167 59.7267 35.9167 58.9C36.7433 58.9 37.4667 58.6244 38.0867 58.0733C38.7067 57.5222 39.0167 56.8333 39.0167 56.0067C39.8433 56.0067 40.5322 55.6967 41.0833 55.0767C41.6344 54.4567 41.91 53.7333 41.91 52.9067C42.7367 52.9067 43.46 52.6311 44.08 52.08C44.7 51.5289 45.01 50.84 45.01 50.0133V49.6L62.99 40.7133V26.04ZM53.07 18.1867V20.0467C53.07 20.8733 52.8289 21.6656 52.3467 22.4233C51.8644 23.1811 51.2789 23.8356 50.59 24.3867L49.97 24.5933V27.6933L54.93 28.9333L43.9767 34.72V32.0333C43.9767 30.7933 43.4944 29.6911 42.53 28.7267L46.0433 27.6933V24.5933L45.4233 24.3867C44.7344 23.8356 44.1489 23.1811 43.6667 22.4233C43.1844 21.6656 42.9433 20.8733 42.9433 20.0467V17.98C42.9433 16.6022 43.46 15.4311 44.4933 14.4667C45.5267 13.5022 46.7322 13.02 48.11 13.02C49.4878 13.02 50.6589 13.5367 51.6233 14.57C52.5878 15.6033 53.07 16.8089 53.07 18.1867ZM33.4367 34.1L28.89 32.6533C26.8233 31.9644 24.6878 31.8267 22.4833 32.24L22.07 32.4467V32.0333C22.07 31.3444 22.2767 30.7589 22.69 30.2767C23.1033 29.7944 23.6544 29.4156 24.3433 29.14L29.9233 27.6933V24.5933L29.51 24.3867C28.6833 23.8356 28.0633 23.1811 27.65 22.4233C27.2367 21.6656 27.03 20.8733 27.03 20.0467V17.98C27.03 16.6022 27.5467 15.4311 28.58 14.4667C29.6133 13.5022 30.7844 13.02 32.0933 13.02C33.4022 13.02 34.5389 13.5367 35.5033 14.57C36.4678 15.6033 36.95 16.8089 36.95 18.1867V20.0467C36.95 20.8733 36.7433 21.6656 36.33 22.4233C35.9167 23.1811 35.2967 23.8356 34.47 24.3867L34.0567 24.5933V27.6933L39.6367 29.14C40.3255 29.4156 40.8767 29.7944 41.29 30.2767C41.7033 30.7589 41.91 31.3444 41.91 32.0333V35.96H41.7033H41.0833L34.8833 34.3067C34.47 34.1689 33.9878 34.1 33.4367 34.1ZM22.2767 14.88C23.2411 13.0889 24.5844 11.6767 26.3067 10.6433C28.0289 9.61 29.9233 9.09333 31.99 9.09333C34.0567 9.09333 35.9511 9.61 37.6733 10.6433C39.3955 11.6767 40.7389 13.0889 41.7033 14.88C41.29 15.8444 41.0833 16.8778 41.0833 17.98V20.0467C41.0833 21.1489 41.3244 22.2167 41.8067 23.25C42.2889 24.2833 43.0122 25.1444 43.9767 25.8333V26.2467L40.05 27.28L35.9167 26.2467V25.8333C36.8811 25.1444 37.6389 24.2833 38.19 23.25C38.7411 22.2167 39.0167 21.1489 39.0167 20.0467V18.1867C39.0167 16.2578 38.3622 14.6044 37.0533 13.2267C35.7444 11.8489 34.1255 11.1256 32.1967 11.0567C30.2678 10.9878 28.58 11.6422 27.1333 13.02C25.6867 14.3978 24.9633 16.0511 24.9633 17.98V20.0467C24.9633 21.1489 25.2389 22.2167 25.79 23.25C26.3411 24.2833 27.0989 25.1444 28.0633 25.8333V26.2467L23.93 27.28L20.0033 26.2467V25.8333C20.9678 25.1444 21.6911 24.2833 22.1733 23.25C22.6555 22.2167 22.8967 21.1489 22.8967 20.0467V18.1867C22.8967 17.0844 22.69 15.9822 22.2767 14.88ZM17.5233 8.88667L20.83 5.78667L23.7233 7.64667L24.1367 7.23333C25.5144 6.40667 26.9611 5.78667 28.4767 5.37333H29.0967L29.7167 2.06667H34.2633L34.8833 5.37333H35.5033C37.0189 5.78667 38.4655 6.40667 39.8433 7.23333L40.2567 7.64667L43.15 5.78667L46.4567 8.88667L45.2167 11.5733C44.39 11.8489 43.7011 12.3311 43.15 13.02H42.9433C41.8411 11.2289 40.2911 9.78222 38.2933 8.68C36.2955 7.57778 34.1944 7.02667 31.99 7.02667C29.7855 7.02667 27.6844 7.57778 25.6867 8.68C23.6889 9.78222 22.1389 11.2978 21.0367 13.2267C20.3478 12.5378 19.59 11.9867 18.7633 11.5733L17.5233 8.88667ZM14.01 27.6933V24.5933L13.39 24.3867C12.7011 23.8356 12.1155 23.1811 11.6333 22.4233C11.1511 21.6656 10.91 20.8733 10.91 20.0467V17.98C10.91 16.6022 11.4267 15.4311 12.46 14.4667C13.4933 13.5022 14.6989 13.02 16.0767 13.02C17.4544 13.02 18.6255 13.5367 19.59 14.57C20.5544 15.6033 21.0367 16.8089 21.0367 18.1867V20.0467C21.0367 20.8733 20.7955 21.6656 20.3133 22.4233C19.8311 23.1811 19.2455 23.8356 18.5567 24.3867L17.9367 24.5933V27.6933L21.45 28.7267C20.4855 29.6911 20.0033 30.7933 20.0033 32.0333V32.86L16.9033 33.48V33.2733V31.4133L11.7367 28.3133L14.01 27.6933ZM3.05666 26.04H3.67666L10.91 30.1733L7.18999 44.64L3.05666 43.1933V26.04ZM11.1167 46.0867L9.25666 45.26L12.77 31.2067L15.0433 32.6533V32.86L11.3233 46.0867H11.1167ZM17.9367 48.98C17.9367 48.5667 18.0744 48.2911 18.35 48.1533L20.0033 46.2933C20.2789 46.1556 20.5544 46.0867 20.83 46.0867C21.1055 46.0867 21.3811 46.19 21.6567 46.3967C21.9322 46.6033 22.07 46.8444 22.07 47.12C22.07 47.3956 21.9322 47.6711 21.6567 47.9467L20.0033 49.6C19.7278 49.8756 19.4178 50.0133 19.0733 50.0133C18.7289 50.0133 18.4533 49.91 18.2467 49.7033C18.04 49.4967 17.9367 49.2556 17.9367 48.98ZM21.0367 51.8733C21.0367 51.5978 21.1055 51.3222 21.2433 51.0467L23.1033 49.3933C23.2411 49.1178 23.4822 48.98 23.8267 48.98C24.1711 48.98 24.4467 49.0833 24.6533 49.29C24.86 49.4967 24.9633 49.7722 24.9633 50.1167C24.9633 50.4611 24.8944 50.7022 24.7567 50.84L22.8967 52.7C22.6211 52.8378 22.3455 52.9067 22.07 52.9067C21.7944 52.9067 21.5533 52.8033 21.3467 52.5967C21.14 52.39 21.0367 52.1489 21.0367 51.8733ZM23.93 54.9733C23.93 54.56 24.0678 54.2844 24.3433 54.1467L25.9967 52.2867C26.2722 52.1489 26.5478 52.08 26.8233 52.08C27.0989 52.08 27.3744 52.1833 27.65 52.39C27.9255 52.5967 28.0633 52.8378 28.0633 53.1133C28.0633 53.3889 27.9255 53.6644 27.65 53.94L25.9967 55.5933C25.7211 55.8689 25.4111 56.0067 25.0667 56.0067C24.7222 56.0067 24.4467 55.9033 24.24 55.6967C24.0333 55.49 23.93 55.2489 23.93 54.9733ZM28.0633 58.9C27.7878 58.9 27.5467 58.7967 27.34 58.59C27.1333 58.3833 27.03 58.1422 27.03 57.8667C27.03 57.5911 27.0989 57.3156 27.2367 57.04L29.0967 55.3867C29.2344 55.1111 29.4755 54.9733 29.82 54.9733C30.1644 54.9733 30.44 55.0767 30.6467 55.2833C30.8533 55.49 30.9567 55.7656 30.9567 56.11C30.9567 56.4544 30.8878 56.6956 30.75 56.8333L28.89 58.6933C28.6144 58.8311 28.3389 58.9 28.0633 58.9ZM33.0233 59.9333H32.8167C32.5411 59.9333 32.2655 59.8644 31.99 59.7267L31.37 59.1067L31.99 58.28C32.2655 58.0044 32.4722 57.7289 32.61 57.4533L33.6433 58.0733C33.9189 58.3489 34.0567 58.6244 34.0567 58.9C34.0567 59.1756 33.9533 59.4167 33.7467 59.6233C33.54 59.83 33.2989 59.9333 33.0233 59.9333ZM41.91 51.0467H41.7033C41.4278 51.0467 41.2211 50.9778 41.0833 50.84L35.71 46.2933L34.2633 47.74L39.6367 52.08C39.9122 52.3556 40.05 52.6311 40.05 52.9067C40.05 53.1822 39.9467 53.4233 39.74 53.63C39.5333 53.8367 39.2922 53.94 39.0167 53.94H38.81C38.5344 53.94 38.2589 53.8711 37.9833 53.7333L32.61 49.1867L31.37 50.84L36.5367 55.18C36.8122 55.3178 36.95 55.5589 36.95 55.9033C36.95 56.2478 36.8467 56.5233 36.64 56.73C36.4333 56.9367 36.1578 57.04 35.8133 57.04C35.4689 57.04 35.1589 56.9022 34.8833 56.6267L32.61 54.7667C32.0589 53.6644 31.1633 53.1133 29.9233 53.1133C29.9233 52.2867 29.6478 51.5633 29.0967 50.9433C28.5455 50.3233 27.8567 50.0133 27.03 50.0133C27.03 49.1867 26.72 48.4978 26.1 47.9467C25.48 47.3956 24.7567 47.0511 23.93 46.9133C23.93 46.0867 23.62 45.3978 23 44.8467C22.38 44.2956 21.6567 44.02 20.83 44.02C20.0033 44.02 19.3144 44.2956 18.7633 44.8467L16.6967 46.9133L13.5967 45.26L16.2833 35.7533L22.8967 34.3067C24.8255 33.8933 26.6167 33.9622 28.27 34.5133L29.9233 34.9267L24.7567 37.4067C24.2055 37.6822 23.7578 38.0956 23.4133 38.6467C23.0689 39.1978 22.8967 39.8178 22.8967 40.5067V40.7133C22.8967 41.54 23.2411 42.2978 23.93 42.9867C24.6189 43.6756 25.4455 44.02 26.41 44.02C26.9611 44.02 27.5122 43.8822 28.0633 43.6067L31.7833 41.3333C32.1967 41.0578 32.61 40.9544 33.0233 41.0233C33.4367 41.0922 33.85 41.2644 34.2633 41.54L42.7367 49.1867C42.8744 49.3244 42.9433 49.5656 42.9433 49.91C42.9433 50.2544 42.84 50.53 42.6333 50.7367C42.4267 50.9433 42.1855 51.0467 41.91 51.0467ZM60.9233 39.4733L44.1833 47.74L35.5033 40.0933C34.8144 39.4044 34.0222 39.06 33.1267 39.06C32.2311 39.06 31.4389 39.1978 30.75 39.4733L27.03 41.7467C26.7544 41.8844 26.4789 41.9533 26.2033 41.9533C25.9278 41.9533 25.6522 41.8156 25.3767 41.54C25.1011 41.2644 24.9633 40.9889 24.9633 40.7133V40.5067C24.9633 39.9556 25.2389 39.5422 25.79 39.2667L31.37 36.3733C32.3344 35.96 33.3678 35.8911 34.47 36.1667L40.67 38.0267H42.3233L60.9233 28.1067V39.4733Z" fill="#E21B22"/>
</svg>
