<svg width="54" height="60" viewBox="0 0 54 60" fill="none" xmlns="http://www.w3.org/2000/svg">
<path d="M50.59 0.859894H4.08999C3.26332 0.859894 2.53999 1.1699 1.91999 1.78989C1.29999 2.40989 0.98999 3.06434 0.98999 3.75323V21.3199C0.98999 22.1466 1.29999 22.8354 1.91999 23.3866C2.53999 23.9377 3.26332 24.2132 4.08999 24.2132H23.93C23.7922 26.5555 23.31 28.691 22.4833 30.6199C21.5189 32.8243 20.21 33.9266 18.5567 33.9266H17.3167C17.1789 33.3754 16.8689 32.8932 16.3867 32.4799C15.9044 32.0666 15.3189 31.8599 14.63 31.8599H7.80999C6.98332 31.8599 6.29443 32.1699 5.74332 32.7899C5.19221 33.4099 4.91666 34.0643 4.91666 34.7532V53.1466C4.91666 53.9732 5.19221 54.6966 5.74332 55.3166C6.29443 55.9366 6.98332 56.2466 7.80999 56.2466H14.63C15.5944 56.2466 16.4211 55.7643 17.11 54.7999C17.7989 54.6621 18.5222 54.7654 19.28 55.1099C20.0378 55.4543 20.6922 55.971 21.2433 56.6599C22.6211 58.3132 24.4122 59.1399 26.6167 59.1399H36.5367C38.19 59.0021 39.43 58.3132 40.2567 57.0732C41.0833 55.8332 41.1522 54.5932 40.4633 53.3532C41.5655 52.8021 42.2889 51.8377 42.6333 50.4599C42.9778 49.0821 42.8055 47.911 42.1167 46.9466C43.0811 46.1199 43.7011 45.0866 43.9767 43.8466C44.2522 42.6066 44.0455 41.4354 43.3567 40.3332C44.0455 39.5066 44.4244 38.611 44.4933 37.6466C44.5622 36.6821 44.2867 35.821 43.6667 35.0632C43.0467 34.3054 42.1855 33.9266 41.0833 33.9266H31.1633C32.1278 30.7577 32.3344 27.5199 31.7833 24.2132H34.47C35.0211 24.2132 35.3655 24.4199 35.5033 24.8332L36.5367 28.5532C36.6744 29.2421 37.1222 29.6899 37.88 29.8966C38.6378 30.1032 39.2922 29.8621 39.8433 29.1732L43.77 24.6266C44.0455 24.351 44.3211 24.2132 44.5967 24.2132H50.59C51.2789 24.2132 51.9333 23.9377 52.5533 23.3866C53.1733 22.8354 53.4833 22.1466 53.4833 21.3199V3.75323C53.4833 3.06434 53.1733 2.40989 52.5533 1.78989C51.9333 1.1699 51.21 0.859894 50.3833 0.859894H50.59ZM15.6633 53.1466C15.6633 53.4221 15.56 53.6632 15.3533 53.8699C15.1467 54.0766 14.9055 54.1799 14.63 54.1799H7.80999C7.53443 54.1799 7.32777 54.0766 7.18999 53.8699C7.05221 53.6632 6.98332 53.4221 6.98332 53.1466V34.7532C6.98332 34.4777 7.05221 34.271 7.18999 34.1332C7.32777 33.9954 7.53443 33.9266 7.80999 33.9266H14.63C14.9055 33.9266 15.1467 33.9954 15.3533 34.1332C15.56 34.271 15.6633 34.4777 15.6633 34.7532V53.1466ZM41.0833 35.7866C42.0478 35.7866 42.53 36.2343 42.53 37.1299C42.53 38.0254 42.1167 38.7488 41.29 39.2999C41.0144 39.5754 40.8767 39.8854 40.8767 40.2299C40.8767 40.5743 41.0833 40.8843 41.4967 41.1599C41.91 41.4354 42.1511 41.9177 42.22 42.6066C42.2889 43.2954 42.1511 43.9154 41.8067 44.4666C41.4622 45.0177 41.0144 45.3277 40.4633 45.3966C39.9122 45.4654 39.5678 45.7066 39.43 46.1199C39.2922 46.5332 39.43 46.9466 39.8433 47.3599C40.2567 47.7732 40.5667 48.3243 40.7733 49.0132C40.98 49.7021 40.9111 50.3221 40.5667 50.8732C40.2222 51.4243 39.6367 51.6999 38.81 51.6999C38.2589 51.6999 37.9144 51.941 37.7767 52.4232C37.6389 52.9054 37.7767 53.2843 38.19 53.5599C39.0167 54.2488 39.1889 54.9721 38.7067 55.7299C38.2244 56.4877 37.5011 56.9354 36.5367 57.0732H26.6167C24.9633 57.0732 23.6544 56.5221 22.69 55.4199C21.8633 54.4554 21.0711 53.801 20.3133 53.4566C19.5555 53.1121 18.6255 52.9399 17.5233 52.9399V35.7866C20.83 36.0621 23.1033 34.6154 24.3433 31.4466C25.17 29.6554 25.7211 26.831 25.9967 22.9732C25.9967 22.2843 26.3067 21.8021 26.9267 21.5266C27.5467 21.251 28.1667 21.2166 28.7867 21.4232C29.4067 21.6299 29.7167 22.0777 29.7167 22.7666C30.13 24.5577 30.3022 26.4177 30.2333 28.3466C30.1644 30.2754 29.8544 31.9288 29.3033 33.3066C29.1655 33.8577 29.2689 34.4088 29.6133 34.9599C29.9578 35.511 30.4744 35.7866 31.1633 35.7866H41.0833ZM51.4167 21.3199C51.4167 21.5954 51.3133 21.8021 51.1067 21.9399C50.9 22.0777 50.6589 22.2155 50.3833 22.3532H44.5967C43.77 22.2155 43.0122 22.491 42.3233 23.1799L38.3967 27.9332L37.3633 24.4199C37.0878 23.731 36.7089 23.2143 36.2267 22.8699C35.7444 22.5254 35.1589 22.3532 34.47 22.3532H31.37C31.0944 21.1132 30.4055 20.2866 29.3033 19.8732C28.2011 19.4599 27.0989 19.4599 25.9967 19.8732C24.8944 20.2866 24.2055 21.1132 23.93 22.3532H4.08999C3.81443 22.2155 3.57332 22.0777 3.36666 21.9399C3.15999 21.8021 3.05666 21.5954 3.05666 21.3199V3.75323C3.05666 3.47767 3.15999 3.271 3.36666 3.13323C3.57332 2.99545 3.81443 2.92656 4.08999 2.92656H50.59C50.7278 2.92656 50.9 2.99545 51.1067 3.13323C51.3133 3.271 51.4167 3.47767 51.4167 3.75323V21.3199ZM13.8033 45.4999H9.04999C8.77443 45.4999 8.53332 45.3966 8.32666 45.1899C8.11999 44.9832 8.01666 44.7421 8.01666 44.4666C8.01666 44.191 8.11999 43.9843 8.32666 43.8466C8.53332 43.7088 8.77443 43.6399 9.04999 43.6399H13.8033C14.0789 43.6399 14.32 43.7088 14.5267 43.8466C14.7333 43.9843 14.8367 44.191 14.8367 44.4666C14.8367 44.7421 14.7333 44.9832 14.5267 45.1899C14.32 45.3966 14.0789 45.4999 13.8033 45.4999ZM13.8033 50.2532H9.04999C8.77443 50.2532 8.53332 50.1843 8.32666 50.0466C8.11999 49.9088 8.01666 49.7021 8.01666 49.4266C8.01666 49.151 8.11999 48.9099 8.32666 48.7032C8.53332 48.4966 8.77443 48.3932 9.04999 48.3932H13.8033C14.0789 48.3932 14.32 48.4966 14.5267 48.7032C14.7333 48.9099 14.8367 49.151 14.8367 49.4266C14.8367 49.7021 14.7333 49.9088 14.5267 50.0466C14.32 50.1843 14.0789 50.2532 13.8033 50.2532ZM13.8033 39.7132H9.04999C8.77443 39.7132 8.53332 39.6099 8.32666 39.4032C8.11999 39.1966 8.01666 38.9554 8.01666 38.6799C8.01666 38.4043 8.11999 38.1977 8.32666 38.0599C8.53332 37.9221 8.77443 37.7843 9.04999 37.6466H13.8033C14.0789 37.6466 14.32 37.7499 14.5267 37.9566C14.7333 38.1632 14.8367 38.4043 14.8367 38.6799C14.8367 38.9554 14.7333 39.1966 14.5267 39.4032C14.32 39.6099 14.0789 39.7132 13.8033 39.7132ZM17.9367 9.74656H13.8033L12.5633 5.81989C12.4255 5.40656 12.15 5.19989 11.7367 5.19989C11.3233 5.19989 11.0478 5.40656 10.91 5.81989L9.66999 9.74656H5.53666C5.12332 9.74656 4.84777 9.95323 4.70999 10.3666C4.57221 10.7799 4.70999 11.1243 5.12332 11.3999L8.22332 13.6732L6.98332 17.5999C6.84555 18.0132 6.98332 18.3577 7.39666 18.6332C7.80999 18.9088 8.15443 18.9088 8.42999 18.6332L11.7367 16.1532L15.0433 18.6332C15.3189 18.9088 15.6633 18.9088 16.0767 18.6332C16.49 18.3577 16.6278 18.0132 16.49 17.5999L15.25 13.6732L18.35 11.3999C18.7633 11.1243 18.9011 10.7799 18.7633 10.3666C18.6255 9.95323 18.35 9.74656 17.9367 9.74656ZM13.1833 13.6732L13.5967 15.3266L12.3567 14.2932C11.9433 14.0177 11.53 14.0177 11.1167 14.2932L9.87666 15.3266L10.29 13.6732C10.4278 13.2599 10.29 12.9154 9.87666 12.6399L8.63666 11.6066H10.29C10.7033 11.6066 10.9789 11.3999 11.1167 10.9866L11.7367 9.33323L12.3567 10.9866C12.4944 11.3999 12.77 11.6066 13.1833 11.6066H14.8367L13.5967 12.6399C13.1833 12.9154 13.0455 13.2599 13.1833 13.6732ZM33.4367 9.74656H29.3033L28.0633 5.81989C27.9255 5.40656 27.65 5.19989 27.2367 5.19989C26.8233 5.19989 26.5478 5.40656 26.41 5.81989L25.17 9.74656H21.0367C20.6233 9.74656 20.3478 9.95323 20.21 10.3666C20.0722 10.7799 20.21 11.1243 20.6233 11.3999L23.7233 13.6732L22.4833 17.5999C22.3455 18.0132 22.4833 18.3577 22.8967 18.6332C23.31 18.9088 23.6544 18.9088 23.93 18.6332L27.2367 16.1532L30.5433 18.6332C30.8189 18.9088 31.1633 18.9088 31.5767 18.6332C31.99 18.3577 32.1278 18.0132 31.99 17.5999L30.75 13.6732L33.85 11.3999C34.2633 11.1243 34.4011 10.7799 34.2633 10.3666C34.1255 9.95323 33.85 9.74656 33.4367 9.74656ZM28.6833 13.6732L29.0967 15.3266L27.8567 14.2932C27.4433 14.0177 27.03 14.0177 26.6167 14.2932L25.3767 15.3266L25.79 13.6732C25.9278 13.2599 25.79 12.9154 25.3767 12.6399L24.1367 11.6066H25.79C26.2033 11.6066 26.4789 11.3999 26.6167 10.9866L27.2367 9.33323L27.8567 10.9866C27.9944 11.3999 28.27 11.6066 28.6833 11.6066H30.3367L29.0967 12.6399C28.6833 12.9154 28.5455 13.2599 28.6833 13.6732ZM48.9367 9.74656H44.8033L43.5633 5.81989C43.4255 5.40656 43.15 5.19989 42.7367 5.19989C42.3233 5.19989 42.0478 5.40656 41.91 5.81989L40.67 9.74656H36.5367C36.1233 9.74656 35.8478 9.95323 35.71 10.3666C35.5722 10.7799 35.71 11.1243 36.1233 11.3999L39.2233 13.6732L37.9833 17.5999C37.8455 18.0132 37.9833 18.3577 38.3967 18.6332C38.81 18.9088 39.1544 18.9088 39.43 18.6332L42.7367 16.1532L46.0433 18.6332C46.3189 18.9088 46.6633 18.9088 47.0767 18.6332C47.49 18.3577 47.6278 18.0132 47.49 17.5999L46.25 13.6732L49.35 11.3999C49.7633 11.1243 49.9011 10.7799 49.7633 10.3666C49.6255 9.95323 49.35 9.74656 48.9367 9.74656ZM44.1833 13.6732L44.5967 15.3266L43.3567 14.2932C42.9433 14.0177 42.53 14.0177 42.1167 14.2932L40.8767 15.3266L41.29 13.6732C41.4278 13.2599 41.29 12.9154 40.8767 12.6399L39.6367 11.6066H41.29C41.7033 11.6066 41.9789 11.3999 42.1167 10.9866L42.7367 9.33323L43.3567 10.9866C43.4944 11.3999 43.77 11.6066 44.1833 11.6066H45.8367L44.5967 12.6399C44.1833 12.9154 44.0455 13.2599 44.1833 13.6732Z" fill="#E21B22"/>
</svg>
