<svg width="39" height="38" viewBox="0 0 39 38" fill="none" xmlns="http://www.w3.org/2000/svg">
<g clip-path="url(#clip0_20_86959)">
<path d="M29.9967 17.2267C29.9967 15.2844 29.5322 13.49 28.6033 11.8433C27.6744 10.1967 26.3867 8.90889 24.74 7.98C23.0933 7.05111 21.2989 6.58667 19.3567 6.58667C19.1878 6.58667 19.04 6.62889 18.9133 6.71334C18.7867 6.79778 18.7233 6.92445 18.7233 7.09334V7.47334C18.3011 7.05111 17.7522 6.77667 17.0767 6.65C16.4011 6.52334 15.7678 6.56556 15.1767 6.77667C14.5855 6.98778 14.0789 7.34667 13.6567 7.85334C13.2344 8.36 12.9811 8.90889 12.8967 9.5C11.7144 9.66889 10.8489 10.26 10.3 11.2733C9.7511 12.2867 9.68777 13.3 10.11 14.3133C9.68777 14.6511 9.34999 15.0733 9.09666 15.58C8.84332 16.0867 8.71666 16.6356 8.71666 17.2267C8.71666 17.8178 8.84332 18.3667 9.09666 18.8733C9.34999 19.38 9.68777 19.76 10.11 20.0133C9.68777 21.1111 9.7511 22.1456 10.3 23.1167C10.8489 24.0878 11.7144 24.7 12.8967 24.9533C12.9811 25.2911 13.1078 25.6711 13.2767 26.0933C12.6011 26.7689 12.2633 27.5711 12.2633 28.5C12.2633 29.4289 12.6011 30.2311 13.2767 30.9067L13.4033 31.16V32.0467C13.4033 32.5533 13.5722 32.9756 13.91 33.3133C14.2478 33.6511 14.67 33.82 15.1767 33.82H15.81C15.81 34.8333 16.1478 35.6778 16.8233 36.3533C17.4989 37.0289 18.3433 37.3667 19.3567 37.3667C20.37 37.3667 21.2144 37.0289 21.89 36.3533C22.5655 35.6778 22.9033 34.8333 22.9033 33.82H23.5367C24.0433 33.82 24.4655 33.6511 24.8033 33.3133C25.1411 32.9756 25.31 32.5533 25.31 32.0467V30.9067C25.31 30.7378 25.2467 30.59 25.12 30.4633C24.9933 30.3367 24.8455 30.2733 24.6767 30.2733C24.8455 27.9933 25.7322 26.0089 27.3367 24.32C28.1811 23.3911 28.8355 22.3144 29.3 21.09C29.7644 19.8656 29.9967 18.5778 29.9967 17.2267ZM14.29 30.2733L14.0367 30.1467C13.6144 29.7244 13.4033 29.1967 13.4033 28.5633C13.4033 27.93 13.6144 27.4022 14.0367 26.98C14.7122 27.6556 15.5567 27.9722 16.57 27.93C17.5833 27.8878 18.3855 27.4867 18.9767 26.7267H24.4233C23.9167 27.8244 23.6211 29.0067 23.5367 30.2733H14.29ZM10.9967 21.4067C10.9967 21.1533 11.0389 20.9 11.1233 20.6467C11.4611 20.7311 11.8411 20.7733 12.2633 20.7733V19.6333C11.5878 19.6333 11.0178 19.4011 10.5533 18.9367C10.0889 18.4722 9.85666 17.9022 9.85666 17.2267C9.85666 16.5511 10.0889 15.9811 10.5533 15.5167C11.0178 15.0522 11.5878 14.82 12.2633 14.82V13.68C11.8411 13.68 11.4611 13.7222 11.1233 13.8067C11.0389 13.3844 11.0389 12.9411 11.1233 12.4767C11.2078 12.0122 11.44 11.6111 11.82 11.2733C12.2 10.9356 12.6222 10.7456 13.0867 10.7033C13.5511 10.6611 13.9944 10.7244 14.4167 10.8933C14.8389 11.0622 15.1767 11.3578 15.43 11.78C15.6833 12.2022 15.81 12.6244 15.81 13.0467H16.95C16.95 12.2022 16.6755 11.4422 16.1267 10.7667C15.5778 10.0911 14.8811 9.71111 14.0367 9.62667C14.2055 9.03556 14.5433 8.55 15.05 8.17C15.5567 7.79 16.1055 7.64223 16.6967 7.72667C17.2878 7.81111 17.7733 8.08556 18.1533 8.55C18.5333 9.01445 18.7233 9.54222 18.7233 10.1333V17.2267C18.7233 17.7333 18.5544 18.1556 18.2167 18.4933C17.8789 18.8311 17.4567 19 16.95 19C16.4433 19 16.0211 18.8311 15.6833 18.4933C15.3455 18.1556 15.1767 17.7333 15.1767 17.2267H14.0367C14.0367 18.0711 14.3322 18.7678 14.9233 19.3167C15.5144 19.8656 16.1689 20.14 16.8867 20.14C17.6044 20.14 18.2167 19.9711 18.7233 19.6333V24.32C18.7233 24.9111 18.5333 25.4389 18.1533 25.9033C17.7733 26.3678 17.2878 26.6211 16.6967 26.6633C16.1055 26.7056 15.5567 26.5578 15.05 26.22C14.5433 25.8822 14.2055 25.4178 14.0367 24.8267C14.8811 24.6578 15.5778 24.2567 16.1267 23.6233C16.6755 22.99 16.95 22.2511 16.95 21.4067H15.81C15.81 22.0822 15.5778 22.6522 15.1133 23.1167C14.6489 23.5811 14.0789 23.8133 13.4033 23.8133C12.7278 23.8133 12.1578 23.5811 11.6933 23.1167C11.2289 22.6522 10.9967 22.0822 10.9967 21.4067ZM19.3567 36.2267C18.6811 36.2267 18.1111 35.9944 17.6467 35.53C17.1822 35.0656 16.95 34.4956 16.95 33.82H21.7633C21.7633 34.4956 21.5311 35.0656 21.0667 35.53C20.6022 35.9944 20.0322 36.2267 19.3567 36.2267ZM24.17 32.0467C24.17 32.2156 24.1067 32.3633 23.98 32.49C23.8533 32.6167 23.7055 32.68 23.5367 32.68H15.1767C15.0078 32.68 14.86 32.6167 14.7333 32.49C14.6067 32.3633 14.5433 32.2156 14.5433 32.0467V31.4133H24.17V32.0467ZM24.93 25.5867H19.7367C19.9055 25.1644 19.99 24.7422 19.99 24.32V10.7667C21.6789 10.8511 23.0933 11.5267 24.2333 12.7933C25.3733 14.06 25.9433 15.5378 25.9433 17.2267H27.0833C27.0833 15.2 26.3867 13.4478 24.9933 11.97C23.6 10.4922 21.9322 9.66889 19.99 9.5V7.72667C21.7633 7.81111 23.3889 8.40223 24.8667 9.5C26.3444 10.5978 27.4422 11.9911 28.16 13.68C28.8778 15.3689 29.0678 17.1 28.73 18.8733C28.3922 20.6467 27.6322 22.2089 26.45 23.56C25.8589 24.1511 25.3522 24.8267 24.93 25.5867ZM32.4033 17.86H35.4433C35.6122 17.86 35.7389 17.7967 35.8233 17.67C35.9078 17.5433 35.95 17.3956 35.95 17.2267C35.95 14.1867 35.2111 11.4 33.7333 8.86667C32.2555 6.33334 30.25 4.32778 27.7167 2.85C25.1833 1.37222 22.3967 0.633335 19.3567 0.633335C16.3167 0.633335 13.53 1.37222 10.9967 2.85C8.46332 4.32778 6.45777 6.33334 4.97999 8.86667C3.50221 11.4 2.76332 14.1867 2.76332 17.2267C2.76332 17.3956 2.80555 17.5433 2.88999 17.67C2.97443 17.7967 3.1011 17.86 3.26999 17.86H6.30999C6.47888 17.86 6.62666 17.7967 6.75332 17.67C6.87999 17.5433 6.94332 17.3956 6.94332 17.2267C6.94332 14.9467 7.49221 12.8567 8.58999 10.9567C9.68777 9.05667 11.1867 7.55778 13.0867 6.46C14.9867 5.36222 17.0767 4.79222 19.3567 4.75C21.6367 4.70778 23.7267 5.25667 25.6267 6.39667C27.5267 7.53667 29.0255 9.05667 30.1233 10.9567C31.2211 12.8567 31.77 14.9467 31.77 17.2267C31.77 17.3956 31.8333 17.5433 31.96 17.67C32.0867 17.7967 32.2344 17.86 32.4033 17.86ZM19.3567 3.54667C16.9922 3.54667 14.7755 4.13778 12.7067 5.32C10.6378 6.50222 8.9911 8.08556 7.76666 10.07C6.54221 12.0544 5.84555 14.2289 5.67666 16.5933H3.90332C3.98777 13.8911 4.74777 11.4 6.18332 9.12C7.61888 6.84 9.49777 5.04556 11.82 3.73667C14.1422 2.42778 16.6544 1.77333 19.3567 1.77333C22.0589 1.77333 24.5711 2.42778 26.8933 3.73667C29.2155 5.04556 31.0944 6.84 32.53 9.12C33.9655 11.4 34.7255 13.8911 34.81 16.5933H33.0367C32.8678 14.2289 32.1711 12.0544 30.9467 10.07C29.7222 8.08556 28.0755 6.50222 26.0067 5.32C23.9378 4.13778 21.7211 3.54667 19.3567 3.54667ZM37.2167 2.91334C36.71 2.91334 36.2878 2.74445 35.95 2.40667C35.6122 2.06889 35.4433 1.64667 35.4433 1.14C35.4433 0.971115 35.38 0.844448 35.2533 0.760002C35.1267 0.675556 34.9789 0.633335 34.81 0.633335C34.6411 0.633335 34.4933 0.675556 34.3667 0.760002C34.24 0.844448 34.1767 0.971115 34.1767 1.14C34.1767 1.64667 34.0078 2.06889 33.67 2.40667C33.3322 2.74445 32.91 2.91334 32.4033 2.91334C32.2344 2.91334 32.0867 2.97667 31.96 3.10334C31.8333 3.23 31.77 3.37778 31.77 3.54667C31.77 3.71556 31.8333 3.86333 31.96 3.99C32.0867 4.11667 32.2344 4.18 32.4033 4.18C32.91 4.18 33.3322 4.34889 33.67 4.68667C34.0078 5.02445 34.1767 5.44667 34.1767 5.95333C34.1767 6.12222 34.24 6.27 34.3667 6.39667C34.4933 6.52334 34.6411 6.58667 34.81 6.58667C34.9789 6.58667 35.1267 6.52334 35.2533 6.39667C35.38 6.27 35.4433 6.12222 35.4433 5.95333C35.4433 5.44667 35.6122 5.02445 35.95 4.68667C36.2878 4.34889 36.71 4.18 37.2167 4.18C37.3855 4.18 37.5122 4.11667 37.5967 3.99C37.6811 3.86333 37.7233 3.71556 37.7233 3.54667C37.7233 3.37778 37.6811 3.23 37.5967 3.10334C37.5122 2.97667 37.3855 2.91334 37.2167 2.91334ZM34.81 4.18C34.6411 3.92667 34.43 3.71556 34.1767 3.54667C34.43 3.37778 34.6411 3.16667 34.81 2.91334C34.9789 3.16667 35.19 3.37778 35.4433 3.54667C35.19 3.71556 34.9789 3.92667 34.81 4.18ZM6.30999 2.91334C5.80332 2.91334 5.3811 2.74445 5.04332 2.40667C4.70555 2.06889 4.53666 1.64667 4.53666 1.14C4.53666 0.971115 4.47332 0.844448 4.34666 0.760002C4.21999 0.675556 4.07221 0.633335 3.90332 0.633335C3.73443 0.633335 3.58666 0.675556 3.45999 0.760002C3.33332 0.844448 3.26999 0.971115 3.26999 1.14C3.26999 1.64667 3.1011 2.06889 2.76332 2.40667C2.42555 2.74445 2.00332 2.91334 1.49666 2.91334C1.32777 2.91334 1.2011 2.97667 1.11666 3.10334C1.03221 3.23 0.98999 3.37778 0.98999 3.54667C0.98999 3.71556 1.03221 3.86333 1.11666 3.99C1.2011 4.11667 1.32777 4.18 1.49666 4.18C2.00332 4.18 2.42555 4.34889 2.76332 4.68667C3.1011 5.02445 3.26999 5.44667 3.26999 5.95333C3.26999 6.12222 3.33332 6.27 3.45999 6.39667C3.58666 6.52334 3.73443 6.58667 3.90332 6.58667C4.07221 6.58667 4.21999 6.52334 4.34666 6.39667C4.47332 6.27 4.53666 6.12222 4.53666 5.95333C4.53666 5.44667 4.70555 5.02445 5.04332 4.68667C5.3811 4.34889 5.80332 4.18 6.30999 4.18C6.47888 4.18 6.62666 4.11667 6.75332 3.99C6.87999 3.86333 6.94332 3.71556 6.94332 3.54667C6.94332 3.37778 6.87999 3.23 6.75332 3.10334C6.62666 2.97667 6.47888 2.91334 6.30999 2.91334ZM3.90332 4.18C3.73443 3.92667 3.52332 3.71556 3.26999 3.54667C3.52332 3.37778 3.73443 3.16667 3.90332 2.91334C4.07221 3.16667 4.28332 3.37778 4.53666 3.54667C4.28332 3.71556 4.07221 3.92667 3.90332 4.18Z" fill="white"/>
</g>
<defs>
<clipPath id="clip0_20_86959">
<rect width="38.02" height="38" fill="white" transform="matrix(1 0 0 -1 0.97998 38)"/>
</clipPath>
</defs>
</svg>
