<svg width="39" height="38" viewBox="0 0 39 38" fill="none" xmlns="http://www.w3.org/2000/svg">
<g clip-path="url(#clip0_20_86963)">
<path d="M22.5233 29.7667C22.3544 29.8511 22.2278 29.8934 22.1433 29.8934L20.8767 30.1467C20.8767 31.3289 21.0878 32.4478 21.51 33.5034C21.9322 34.5589 22.5655 35.5089 23.41 36.3534C23.5789 36.6067 23.8111 36.7334 24.1067 36.7334C24.4022 36.7334 24.6344 36.6067 24.8033 36.3534L29.6167 31.6667C30.4611 30.7378 30.9467 29.64 31.0733 28.3734C31.2 27.1067 30.8833 25.9667 30.1233 24.9534C28.1811 26.6422 26.0278 28.0778 23.6633 29.26L22.5233 29.7667ZM8.46332 16.2134C8.46332 16.1289 8.50555 16.0445 8.58999 15.96L8.71666 15.58C10.0678 12.9622 11.7144 10.5556 13.6567 8.36002H13.53C12.5167 7.60002 11.3555 7.26224 10.0467 7.34669C8.73777 7.43113 7.61888 7.9378 6.68999 8.86669L2.00332 13.5534C1.83443 13.8067 1.74999 14.06 1.74999 14.3134C1.74999 14.5667 1.83443 14.7778 2.00332 14.9467C2.84777 15.7911 3.81888 16.4456 4.91666 16.91C6.01443 17.3745 7.11221 17.5645 8.20999 17.48L8.46332 16.2134ZM22.27 27.4867L22.65 27.2334C26.0278 25.5445 28.9833 23.2856 31.5167 20.4567C34.05 17.6278 35.9922 14.44 37.3433 10.8934L27.97 1.64669C24.3389 2.82891 21.0455 4.68669 18.09 7.22002C15.1344 9.75335 12.77 12.7511 10.9967 16.2134L22.27 27.4867ZM21.2567 10.7667C22.27 9.8378 23.4311 9.37335 24.74 9.37335C26.0489 9.37335 27.1678 9.8378 28.0967 10.7667C29.0255 11.6956 29.49 12.8356 29.49 14.1867C29.49 15.5378 29.0255 16.6778 28.0967 17.6067C27.1678 18.5356 26.0489 19 24.74 19C23.4311 19 22.2911 18.5356 21.32 17.6067C20.3489 16.6778 19.8633 15.5378 19.8633 14.1867C19.8633 12.8356 20.3278 11.6956 21.2567 10.7667ZM30.5033 0.886684L37.9767 8.48669C38.3989 6.62891 38.7367 4.30669 38.99 1.52002C38.99 1.0978 38.8633 0.760017 38.61 0.506687C38.3567 0.253353 38.0611 0.126686 37.7233 0.126686C34.7678 0.295574 32.3611 0.548908 30.5033 0.886684ZM19.7367 27.9934L10.3633 18.7467L9.85666 22.1667C9.77221 22.5045 9.85666 22.8422 10.11 23.18L15.3033 28.2467C15.5567 28.5 15.8522 28.6267 16.19 28.6267L19.7367 27.9934ZM22.9033 12.2867C22.3967 12.7934 22.1433 13.4056 22.1433 14.1234C22.1433 14.8411 22.3967 15.4534 22.9033 15.96C23.41 16.4667 24.0222 16.72 24.74 16.72C25.4578 16.72 26.07 16.4667 26.5767 15.96C27.0833 15.4534 27.3367 14.8411 27.3367 14.1234C27.3367 13.4056 27.0833 12.7934 26.5767 12.2867C26.07 11.78 25.4578 11.5267 24.74 11.5267C24.0222 11.5267 23.41 11.78 22.9033 12.2867ZM9.72999 29.0067C9.5611 28.8378 9.30777 28.7534 8.96999 28.7534C8.63221 28.7534 8.37888 28.8378 8.20999 29.0067L4.53666 32.68C4.36777 32.9334 4.28332 33.2078 4.28332 33.5034C4.28332 33.7989 4.38888 34.0522 4.59999 34.2634C4.8111 34.4745 5.06443 34.58 5.35999 34.58C5.65555 34.58 5.92999 34.4534 6.18332 34.2L9.72999 30.6534C9.98332 30.4 10.11 30.1256 10.11 29.83C10.11 29.5345 9.98332 29.26 9.72999 29.0067ZM6.56332 25.84C6.30999 25.5867 6.03555 25.46 5.73999 25.46C5.44443 25.46 5.16999 25.5867 4.91666 25.84L1.36999 29.3867C1.11666 29.64 0.98999 29.9145 0.98999 30.21C0.98999 30.5056 1.09555 30.7589 1.30666 30.97C1.51777 31.1811 1.7711 31.2867 2.06666 31.2867C2.36221 31.2867 2.63666 31.2022 2.88999 31.0334L6.56332 27.36C6.73221 27.1911 6.81666 26.9378 6.81666 26.6C6.81666 26.2622 6.73221 26.0089 6.56332 25.84ZM11.3767 32.3L7.82999 35.9734C7.57666 36.1422 7.44999 36.3745 7.44999 36.67C7.44999 36.9656 7.55555 37.24 7.76666 37.4934C7.97777 37.7467 8.25221 37.8734 8.58999 37.8734C8.92777 37.8734 9.1811 37.7467 9.34999 37.4934L13.0233 33.82C13.1922 33.6511 13.2767 33.3978 13.2767 33.06C13.2767 32.7222 13.1711 32.4478 12.96 32.2367C12.7489 32.0256 12.4955 31.92 12.2 31.92C11.9044 31.92 11.63 32.0467 11.3767 32.3Z" fill="white"/>
</g>
<defs>
<clipPath id="clip0_20_86963">
<rect width="38.02" height="38" fill="white" transform="matrix(1 0 0 -1 0.97998 38)"/>
</clipPath>
</defs>
</svg>
