<svg width="62" height="62" viewBox="0 0 62 62" fill="none" xmlns="http://www.w3.org/2000/svg">
<g clip-path="url(#clip0_585_44076)">
<path fill-rule="evenodd" clip-rule="evenodd" d="M47.6194 45.9093C49.1252 44.7623 51.0025 44.0795 53.0373 44.0795C57.9779 44.0795 61.9975 48.0988 61.9974 53.0393C61.9974 57.9801 57.9779 61.9995 53.0371 61.9995C48.0964 61.9995 44.0769 57.9801 44.0769 53.0393C44.0769 51.0048 44.7598 49.1273 45.9068 47.6215L36.4173 38.1321C34.9116 39.2789 33.0343 39.9618 30.9997 39.9618C26.0589 39.9618 22.0395 35.9423 22.0395 31.0016C22.0395 28.9672 22.7223 27.0898 23.8692 25.584L16.0413 17.7561C14.2526 19.1551 12.0927 19.8573 9.93104 19.8573C7.38844 19.8573 4.84595 18.8895 2.91027 16.9539C-0.960976 13.0825 -0.960976 6.78344 2.91027 2.91219C5.35842 0.464159 8.83454 -0.524208 12.2092 0.267987C12.8602 0.420928 13.264 1.07253 13.1112 1.72353C12.9583 2.37465 12.3063 2.77814 11.6557 2.62556C9.10313 2.02639 6.47418 2.77366 4.62302 4.62494C1.69594 7.55202 1.69594 12.3148 4.62302 15.2417C7.54308 18.1619 12.2902 18.1682 15.2188 15.2616C15.2217 15.2585 15.2244 15.2554 15.2272 15.2522C15.2307 15.2482 15.2342 15.2442 15.238 15.2404C15.2422 15.2361 15.2467 15.2323 15.2511 15.2284L15.2512 15.2284L15.2512 15.2283C15.2548 15.2252 15.2584 15.2221 15.262 15.2187C17.145 13.3195 17.8781 10.5392 17.1745 7.95393C16.9989 7.30862 17.3795 6.64321 18.0248 6.46762C18.6699 6.29167 19.3354 6.67251 19.5111 7.31794C20.3378 10.3558 19.6632 13.5976 17.7547 16.0446L25.5819 23.8718C26.7837 22.9564 28.2226 22.3385 29.7892 22.1259V18.9069C28.1083 18.3887 26.8832 16.8209 26.8832 14.972C26.8832 12.702 28.73 10.8552 31 10.8552C33.2701 10.8552 35.1168 12.7019 35.1168 14.972C35.1168 16.8207 33.8917 18.3885 32.2108 18.9069V22.1259C34.8118 22.479 37.0616 23.9507 38.4569 26.041L48.2232 21.3058C48.0478 20.6927 47.9519 20.0466 47.9519 19.3779C47.9519 15.5056 51.1024 12.3551 54.9748 12.3551C58.8471 12.3551 61.9976 15.5056 61.9976 19.3779C61.9976 23.2502 58.8471 26.4007 54.9748 26.4007C52.6344 26.4007 50.5591 25.2489 49.2823 23.4835L39.5153 28.2188C39.8027 29.0954 39.9601 30.0304 39.9601 31.0018C39.9601 33.0364 39.277 34.9141 38.13 36.4199L47.6194 45.9093ZM59.5757 19.3777C59.5757 16.8406 57.5116 14.7765 54.9745 14.7765C52.4375 14.7765 50.3733 16.8405 50.3733 19.3777C50.3733 21.9147 52.4375 23.9789 54.9745 23.9789C57.5116 23.9789 59.5757 21.9147 59.5757 19.3777ZM30.9997 13.2764C30.0648 13.2764 29.3045 14.0368 29.3045 14.9716C29.3045 15.9064 30.0649 16.6667 30.9997 16.6667C31.9345 16.6667 32.6949 15.9063 32.6949 14.9716C32.6949 14.0367 31.9344 13.2764 30.9997 13.2764ZM24.4611 31.0017C24.4611 34.6071 27.3942 37.5403 30.9997 37.5403C34.6051 37.5403 37.5382 34.607 37.5382 31.0017C37.5382 27.3963 34.6051 24.4631 30.9997 24.4631C27.3942 24.4631 24.4611 27.3963 24.4611 31.0017ZM46.4987 53.0397C46.4987 56.6451 49.4318 59.5783 53.0373 59.5783C56.6426 59.5783 59.5757 56.6451 59.5758 53.0397C59.5758 49.4342 56.6427 46.5011 53.0373 46.5011C49.4318 46.5011 46.4987 49.4342 46.4987 53.0397ZM16.9498 2.91022L16.9933 2.95393C17.464 3.4291 17.4603 4.19575 16.985 4.66632C16.749 4.90027 16.441 5.017 16.133 5.017C15.8213 5.017 15.5096 4.89736 15.2728 4.65833L15.2415 4.62672C14.7674 4.15494 14.7656 3.38841 15.2374 2.91433C15.7093 2.44025 16.4758 2.43856 16.9498 2.91022ZM20.0803 41.9211C19.6074 41.4482 18.8408 41.4482 18.3679 41.9211L11.0567 49.2322C9.91469 48.4284 8.52453 47.9543 7.02479 47.9543C3.15245 47.9543 0.00195312 51.1048 0.00195312 54.9771C0.00195312 58.8495 3.15245 62 7.02479 62C10.8971 62 14.0476 58.8495 14.0476 54.9771C14.0476 53.4772 13.5734 52.0868 12.7692 50.9446L20.0803 43.6336C20.5531 43.1607 20.5531 42.3939 20.0803 41.9211ZM7.02479 59.5783C4.48775 59.5783 2.42359 57.5142 2.42359 54.9771C2.42359 52.4401 4.48775 50.3759 7.02479 50.3759C9.56182 50.3759 11.626 52.4401 11.626 54.9771C11.626 57.5142 9.56182 59.5783 7.02479 59.5783ZM22.1005 38.6907C22.4188 38.6907 22.7312 38.8202 22.9565 39.0455C23.1816 39.2706 23.3113 39.5831 23.3113 39.9015C23.3113 40.2198 23.1817 40.5323 22.9565 40.7575C22.7314 40.9827 22.4189 41.1123 22.1005 41.1123C21.7821 41.1123 21.4697 40.9827 21.2445 40.7575C21.0192 40.5324 20.8896 40.2198 20.8896 39.9015C20.8896 39.5831 21.0192 39.2707 21.2445 39.0455C21.4696 38.8202 21.7821 38.6907 22.1005 38.6907Z" fill="white"/>
</g>
<defs>
<clipPath id="clip0_585_44076">
<rect width="62" height="62" fill="white"/>
</clipPath>
</defs>
</svg>
