<svg width="32" height="32" viewBox="0 0 32 32" fill="none" xmlns="http://www.w3.org/2000/svg">
<path d="M11.5156 23V12.4883H8.24609V23H11.5156ZM9.86328 11.082C10.918 11.082 11.7617 10.2031 11.7617 9.14844C11.7617 8.12891 10.918 7.28516 9.86328 7.28516C8.84375 7.28516 8 8.12891 8 9.14844C8 10.2031 8.84375 11.082 9.86328 11.082ZM23.7148 23H23.75V17.2344C23.75 14.4219 23.1172 12.2422 19.8125 12.2422C18.2305 12.2422 17.1758 13.1211 16.7188 13.9297H16.6836V12.4883H13.5547V23H16.8242V17.7969C16.8242 16.4258 17.0703 15.125 18.7578 15.125C20.4453 15.125 20.4805 16.6719 20.4805 17.9023V23H23.7148Z" fill="#E21B22"/>
<rect x="0.5" y="0.5" width="31" height="31" rx="15.5" stroke="#E21B22"/>
</svg>
