<svg width="32" height="32" viewBox="0 0 32 32" fill="none" xmlns="http://www.w3.org/2000/svg">
<path d="M14.383 8.40414L14.383 8.40413C14.5592 8.36007 14.7368 8.32332 14.9153 8.29389C14.7368 8.32332 14.5592 8.36007 14.383 8.40412L14.383 8.40414ZM14.383 8.40414L13.3332 8.66657M14.383 8.40414L13.5758 9.63672L13.3332 8.66657M13.3332 8.66657L13.3332 8.66657L13.3333 8.66656L13.3333 8.66656L14.383 8.40413L13.3332 8.66657ZM18.6666 8.66658L18.6666 8.66658L17.6169 8.40414L18.6666 8.66656L18.6666 8.66656L18.6666 8.66648L18.6666 8.66658ZM17.6168 8.40413C17.3519 8.3379 17.0839 8.28819 16.8144 8.25501C17.0839 8.28819 17.3519 8.33789 17.6168 8.40412C17.6168 8.40412 17.6168 8.40413 17.6168 8.40413L17.6168 8.40413Z" fill="black" stroke="#EDECEC" stroke-width="2"/>
<path d="M14.0002 13.3333L14.0417 13.3194L14.0003 13.3332L14.0002 13.3333L14.0002 13.3333L14.0002 13.3333ZM16.7128 13.0029C16.24 12.9391 15.7606 12.9391 15.2877 13.0029C15.7606 12.9391 16.24 12.9391 16.7128 13.0029Z" fill="black" stroke="#EDECEC" stroke-width="2"/>
<mask id="path-3-inside-1_576_44212" fill="white">
<path fill-rule="evenodd" clip-rule="evenodd" d="M16.0003 1.66699C12.5025 1.66699 9.66699 4.50253 9.66699 8.00033V13.3337C9.66699 16.8315 12.5025 19.667 16.0003 19.667C19.4982 19.667 22.3337 16.8315 22.3337 13.3337V8.00033C22.3337 4.50253 19.4982 1.66699 16.0003 1.66699ZM11.667 8.00033C11.667 5.60709 13.6071 3.66699 16.0003 3.66699C18.3935 3.66699 20.3337 5.60709 20.3337 8.00033V13.3337C20.3337 15.7269 18.3935 17.667 16.0003 17.667C13.6071 17.667 11.667 15.7269 11.667 13.3337V8.00033Z"/>
</mask>
<path fill-rule="evenodd" clip-rule="evenodd" d="M16.0003 1.66699C12.5025 1.66699 9.66699 4.50253 9.66699 8.00033V13.3337C9.66699 16.8315 12.5025 19.667 16.0003 19.667C19.4982 19.667 22.3337 16.8315 22.3337 13.3337V8.00033C22.3337 4.50253 19.4982 1.66699 16.0003 1.66699ZM11.667 8.00033C11.667 5.60709 13.6071 3.66699 16.0003 3.66699C18.3935 3.66699 20.3337 5.60709 20.3337 8.00033V13.3337C20.3337 15.7269 18.3935 17.667 16.0003 17.667C13.6071 17.667 11.667 15.7269 11.667 13.3337V8.00033Z" fill="black"/>
<path d="M16.0003 -0.333008C11.398 -0.333008 7.66699 3.39796 7.66699 8.00033H11.667C11.667 5.6071 13.6071 3.66699 16.0003 3.66699V-0.333008ZM7.66699 8.00033V13.3337H11.667V8.00033H7.66699ZM7.66699 13.3337C7.66699 17.9361 11.398 21.667 16.0003 21.667V17.667C13.6071 17.667 11.667 15.7269 11.667 13.3337H7.66699ZM16.0003 21.667C20.6028 21.667 24.3337 17.9361 24.3337 13.3337H20.3337C20.3337 15.727 18.3936 17.667 16.0003 17.667V21.667ZM24.3337 13.3337V8.00033H20.3337V13.3337H24.3337ZM24.3337 8.00033C24.3337 3.39797 20.6028 -0.333008 16.0003 -0.333008V3.66699C18.3936 3.66699 20.3337 5.60708 20.3337 8.00033H24.3337ZM13.667 8.00033C13.667 6.71167 14.7117 5.66699 16.0003 5.66699V1.66699C12.5026 1.66699 9.66699 4.5025 9.66699 8.00033H13.667ZM16.0003 5.66699C17.289 5.66699 18.3337 6.71167 18.3337 8.00033H22.3337C22.3337 4.5025 19.4981 1.66699 16.0003 1.66699V5.66699ZM18.3337 8.00033V13.3337H22.3337V8.00033H18.3337ZM18.3337 13.3337C18.3337 14.6223 17.289 15.667 16.0003 15.667V19.667C19.4981 19.667 22.3337 16.8314 22.3337 13.3337H18.3337ZM16.0003 15.667C14.7117 15.667 13.667 14.6223 13.667 13.3337H9.66699C9.66699 16.8314 12.5026 19.667 16.0003 19.667V15.667ZM13.667 13.3337V8.00033H9.66699V13.3337H13.667Z" fill="#EDECEC" mask="url(#path-3-inside-1_576_44212)"/>
<mask id="path-5-inside-2_576_44212" fill="white">
<path d="M6.33301 13.333C6.33301 12.7807 5.88529 12.333 5.33301 12.333C4.78073 12.333 4.33301 12.7807 4.33301 13.333C4.33301 19.4394 9.02447 24.4502 14.9997 24.9574V27.937C14.7111 27.975 14.4241 28.0294 14.1402 28.1005L13.0905 28.3629C12.5547 28.4969 12.2289 29.0398 12.3629 29.5755C12.4968 30.1113 13.0398 30.4371 13.5755 30.3031L14.6253 30.0407C15.0765 29.9279 15.5381 29.8715 15.9997 29.8715C16.4613 29.8715 16.9229 29.9279 17.3741 30.0407L18.4238 30.3031C18.9595 30.4371 19.5025 30.1113 19.6365 29.5755C19.7705 29.0398 19.4446 28.4969 18.9089 28.3629L17.8591 28.1005C17.5753 28.0294 17.2882 27.975 16.9997 27.937V24.9574C22.9749 24.4502 27.6663 19.4394 27.6663 13.333C27.6663 12.7807 27.2186 12.333 26.6663 12.333C26.1141 12.333 25.6663 12.7807 25.6663 13.333C25.6663 18.6718 21.3385 22.9997 15.9997 22.9997C10.6609 22.9997 6.33301 18.6718 6.33301 13.333Z"/>
</mask>
<path d="M6.33301 13.333C6.33301 12.7807 5.88529 12.333 5.33301 12.333C4.78073 12.333 4.33301 12.7807 4.33301 13.333C4.33301 19.4394 9.02447 24.4502 14.9997 24.9574V27.937C14.7111 27.975 14.4241 28.0294 14.1402 28.1005L13.0905 28.3629C12.5547 28.4969 12.2289 29.0398 12.3629 29.5755C12.4968 30.1113 13.0398 30.4371 13.5755 30.3031L14.6253 30.0407C15.0765 29.9279 15.5381 29.8715 15.9997 29.8715C16.4613 29.8715 16.9229 29.9279 17.3741 30.0407L18.4238 30.3031C18.9595 30.4371 19.5025 30.1113 19.6365 29.5755C19.7705 29.0398 19.4446 28.4969 18.9089 28.3629L17.8591 28.1005C17.5753 28.0294 17.2882 27.975 16.9997 27.937V24.9574C22.9749 24.4502 27.6663 19.4394 27.6663 13.333C27.6663 12.7807 27.2186 12.333 26.6663 12.333C26.1141 12.333 25.6663 12.7807 25.6663 13.333C25.6663 18.6718 21.3385 22.9997 15.9997 22.9997C10.6609 22.9997 6.33301 18.6718 6.33301 13.333Z" fill="black"/>
<path d="M14.9997 24.9574H16.9997V23.12L15.1688 22.9646L14.9997 24.9574ZM14.9997 27.937L15.2608 29.9199L16.9997 29.6909V27.937H14.9997ZM14.1402 28.1005L14.6252 30.0408L14.6259 30.0406L14.1402 28.1005ZM13.0905 28.3629L12.6055 26.4226L12.6052 26.4226L13.0905 28.3629ZM13.5755 30.3031L13.0905 28.3628L13.0903 28.3629L13.5755 30.3031ZM14.6253 30.0407L15.1103 31.981L15.1103 31.981L14.6253 30.0407ZM17.3741 30.0407L16.889 31.981L16.8891 31.981L17.3741 30.0407ZM18.4238 30.3031L18.9091 28.3629L18.9088 28.3628L18.4238 30.3031ZM18.9089 28.3629L19.3942 26.4226L19.3939 26.4226L18.9089 28.3629ZM17.8591 28.1005L17.3734 30.0406L17.3741 30.0408L17.8591 28.1005ZM16.9997 27.937H14.9997V29.6909L16.7385 29.9199L16.9997 27.937ZM16.9997 24.9574L16.8305 22.9646L14.9997 23.12V24.9574H16.9997ZM8.33301 13.333C8.33301 11.6762 6.98986 10.333 5.33301 10.333V14.333C4.78072 14.333 4.33301 13.8853 4.33301 13.333H8.33301ZM5.33301 10.333C3.67616 10.333 2.33301 11.6762 2.33301 13.333H6.33301C6.33301 13.8853 5.8853 14.333 5.33301 14.333V10.333ZM2.33301 13.333C2.33301 20.4872 7.82888 26.3559 14.8305 26.9502L15.1688 22.9646C10.2201 22.5445 6.33301 18.3916 6.33301 13.333H2.33301ZM12.9997 24.9574V27.937H16.9997V24.9574H12.9997ZM14.7385 25.9541C14.3753 26.002 14.0132 26.0705 13.6545 26.1603L14.6259 30.0406C14.8349 29.9883 15.047 29.948 15.2608 29.9199L14.7385 25.9541ZM13.6552 26.1602L12.6055 26.4226L13.5755 30.3032L14.6252 30.0408L13.6552 26.1602ZM12.6052 26.4226C10.9981 26.8246 10.0207 28.4532 10.4226 30.0607L14.3031 29.0904C14.4372 29.6264 14.1112 30.1692 13.5757 30.3031L12.6052 26.4226ZM10.4226 30.0607C10.8244 31.6677 12.453 32.6455 14.0608 32.2434L13.0903 28.3629C13.6265 28.2288 14.1692 28.5549 14.3031 29.0904L10.4226 30.0607ZM14.0606 32.2434L15.1103 31.981L14.1403 28.1004L13.0905 28.3628L14.0606 32.2434ZM15.1103 31.981C15.4023 31.908 15.701 31.8715 15.9997 31.8715V27.8715C15.3752 27.8715 14.7506 27.9478 14.1402 28.1005L15.1103 31.981ZM15.9997 31.8715C16.2984 31.8715 16.597 31.908 16.889 31.981L17.8591 28.1005C17.2487 27.9478 16.6242 27.8715 15.9997 27.8715V31.8715ZM16.8891 31.981L17.9388 32.2434L18.9088 28.3628L17.8591 28.1004L16.8891 31.981ZM17.9385 32.2434C19.5464 32.6455 21.1748 31.6675 21.5767 30.0608L17.6962 29.0902C17.8301 28.555 18.3727 28.2287 18.9091 28.3629L17.9385 32.2434ZM21.5767 30.0608C21.9789 28.453 21.0009 26.8245 19.3942 26.4226L18.4236 30.3031C17.8883 30.1692 17.5621 29.6267 17.6962 29.0902L21.5767 30.0608ZM19.3939 26.4226L18.3442 26.1602L17.3741 30.0408L18.4239 30.3032L19.3939 26.4226ZM18.3449 26.1603C17.9861 26.0705 17.624 26.002 17.2608 25.9541L16.7385 29.9199C16.9524 29.948 17.1644 29.9883 17.3734 30.0406L18.3449 26.1603ZM18.9997 27.937V24.9574H14.9997V27.937H18.9997ZM17.1688 26.9502C24.1705 26.3559 29.6663 20.4872 29.6663 13.333H25.6663C25.6663 18.3916 21.7793 22.5445 16.8305 22.9646L17.1688 26.9502ZM29.6663 13.333C29.6663 11.6761 28.3232 10.333 26.6663 10.333V14.333C26.1141 14.333 25.6663 13.8853 25.6663 13.333H29.6663ZM26.6663 10.333C25.0095 10.333 23.6663 11.6761 23.6663 13.333H27.6663C27.6663 13.8853 27.2186 14.333 26.6663 14.333V10.333ZM23.6663 13.333C23.6663 17.5672 20.2339 20.9997 15.9997 20.9997V24.9997C22.443 24.9997 27.6663 19.7764 27.6663 13.333H23.6663ZM15.9997 20.9997C11.7655 20.9997 8.33301 17.5672 8.33301 13.333H4.33301C4.33301 19.7764 9.55637 24.9997 15.9997 24.9997V20.9997Z" fill="#EDECEC" mask="url(#path-5-inside-2_576_44212)"/>
</svg>
