<svg width="52" height="56" viewBox="0 0 52 56" fill="none" xmlns="http://www.w3.org/2000/svg">
<path d="M1.61669 55.26C1.35891 55.26 1.13336 55.1633 0.940024 54.97C0.746691 54.7767 0.650024 54.5511 0.650024 54.2933V53.3267C0.650024 50.8778 1.52002 48.7511 3.26002 46.9467C5.00002 45.1422 7.15891 44.24 9.73669 44.24C11.0256 44.24 12.25 44.4978 13.41 45.0133C13.6678 43.5956 14.3767 42.3711 15.5367 41.34C16.6967 40.3089 18.05 39.7933 19.5967 39.7933C19.8545 39.7933 20.08 39.89 20.2734 40.0833C20.4667 40.2767 20.5634 40.5022 20.5634 40.76C20.5634 41.0178 20.4667 41.2111 20.2734 41.34C20.08 41.4689 19.8545 41.5333 19.5967 41.5333C18.3078 41.5333 17.2445 41.9845 16.4067 42.8867C15.5689 43.7889 15.15 44.8845 15.15 46.1733V46.56C15.15 46.9467 14.9889 47.2367 14.6667 47.43C14.3445 47.6233 14.0545 47.5911 13.7967 47.3333C12.5078 46.56 11.1545 46.1733 9.73669 46.1733C7.67447 46.1733 5.93447 46.8822 4.51669 48.3C3.09891 49.7178 2.39002 51.3933 2.39002 53.3267V54.1C2.51891 54.3578 2.48669 54.5833 2.29336 54.7767C2.10002 54.97 1.87447 55.1311 1.61669 55.26ZM50.3367 55.26C50.3367 55.26 50.2722 55.2278 50.1434 55.1633C50.0145 55.0989 49.8534 54.97 49.66 54.7767C49.4667 54.5833 49.4345 54.3578 49.5634 54.1V53.3267C49.5634 51.6511 48.9511 50.1689 47.7267 48.88C46.5022 47.5911 44.9878 46.9467 43.1834 46.9467C42.1522 46.9467 41.1211 47.2689 40.09 47.9133C39.8322 48.0422 39.6067 48.0745 39.4134 48.01C39.22 47.9456 39.0589 47.8489 38.93 47.72C38.1567 46.6889 37.19 46.1733 36.03 46.1733C35.7722 46.1733 35.5467 46.0767 35.3534 45.8833C35.16 45.69 35.0634 45.4645 35.0634 45.2067C35.0634 44.1756 34.7734 43.2089 34.1934 42.3067C33.6134 41.4045 32.8722 40.76 31.97 40.3733C31.7122 40.2445 31.5511 40.0511 31.4867 39.7933C31.4222 39.5356 31.4222 39.31 31.4867 39.1167C31.5511 38.9233 31.7122 38.7622 31.97 38.6333C32.2278 38.5045 32.4856 38.5045 32.7434 38.6333C33.9034 39.1489 34.8378 39.9222 35.5467 40.9533C36.2556 41.9845 36.6745 43.1445 36.8034 44.4333C37.9634 44.5622 38.9945 45.0778 39.8967 45.98C40.9278 45.4645 42.0234 45.2067 43.1834 45.2067C45.5034 45.2067 47.4367 46.0122 48.9834 47.6233C50.53 49.2345 51.3034 51.1356 51.3034 53.3267V54.4867C51.3034 54.6156 51.2067 54.7767 51.0134 54.97C50.82 55.1633 50.5945 55.26 50.3367 55.26ZM28.6834 42.5C28.4256 42.5 28.2 42.4033 28.0067 42.21C27.8134 42.0167 27.7167 41.7911 27.7167 41.5333V36.12C27.7167 35.8622 27.8134 35.6689 28.0067 35.54C28.2 35.4111 28.4256 35.3145 28.6834 35.25C28.9411 35.1856 29.1667 35.25 29.36 35.4433C29.5534 35.6367 29.65 35.8622 29.65 36.12V41.5333C29.65 41.7911 29.5534 42.0167 29.36 42.21C29.1667 42.4033 28.9411 42.5 28.6834 42.5ZM23.27 47.9133C23.0122 47.9133 22.7867 47.8167 22.5934 47.6233C22.4 47.43 22.3034 47.2045 22.3034 46.9467V36.12C22.3034 35.8622 22.4 35.6689 22.5934 35.54C22.7867 35.4111 23.0122 35.3145 23.27 35.25C23.5278 35.1856 23.7534 35.25 23.9467 35.4433C24.14 35.6367 24.2367 35.8622 24.2367 36.12V46.9467C24.2367 47.2045 24.14 47.43 23.9467 47.6233C23.7534 47.8167 23.5278 47.9133 23.27 47.9133ZM35.0634 55.26C34.8056 55.26 34.58 55.1633 34.3867 54.97C34.1934 54.7767 34.0967 54.5511 34.0967 54.2933C34.0967 53.0045 33.6456 51.9089 32.7434 51.0067C31.8411 50.1045 30.81 49.6533 29.65 49.6533C28.7478 49.6533 27.91 49.9111 27.1367 50.4267C26.3634 50.9422 25.8478 51.5867 25.59 52.36C25.3322 52.6178 25.0745 52.7789 24.8167 52.8433C24.5589 52.9078 24.3011 52.8111 24.0434 52.5533C23.27 51.9089 22.4322 51.5867 21.53 51.5867C20.6278 51.5867 19.8545 51.8445 19.21 52.36C18.5656 52.8756 18.1145 53.5845 17.8567 54.4867C17.8567 54.7445 17.76 54.9378 17.5667 55.0667C17.3734 55.1956 17.1478 55.2278 16.89 55.1633C16.6322 55.0989 16.4389 54.97 16.31 54.7767C16.1811 54.5833 16.1167 54.3578 16.1167 54.1C16.3745 52.8111 17.0189 51.7478 18.05 50.91C19.0811 50.0722 20.1767 49.6533 21.3367 49.6533C22.4967 49.6533 23.5278 49.9756 24.43 50.62C25.0745 49.8467 25.8478 49.2022 26.75 48.6867C27.6522 48.1711 28.6189 47.9133 29.65 47.9133C31.3256 47.9133 32.8078 48.5256 34.0967 49.75C35.3856 50.9745 36.03 52.4889 36.03 54.2933C36.03 54.5511 35.9334 54.7767 35.74 54.97C35.5467 55.1633 35.3211 55.26 35.0634 55.26ZM27.7167 45.2067C27.7167 45.4645 27.8134 45.69 28.0067 45.8833C28.2 46.0767 28.4256 46.1733 28.6834 46.1733C28.9411 46.1733 29.1667 46.0767 29.36 45.8833C29.5534 45.69 29.65 45.4645 29.65 45.2067C29.65 44.9489 29.5534 44.7233 29.36 44.53C29.1667 44.3367 28.9411 44.24 28.6834 44.24C28.4256 44.24 28.2 44.3367 28.0067 44.53C27.8134 44.7233 27.7167 44.9489 27.7167 45.2067ZM21.53 27.0333L20.5634 23.7467V31.0933L16.89 32.8333V27.42C16.89 25.6156 17.5345 24.1333 18.8234 22.9733L19.9834 21.62L19.5967 19.4933L17.47 21.62C15.9234 23.1667 15.15 25.1 15.15 27.42V34.38C15.15 34.6378 15.2467 34.8311 15.44 34.96C15.6334 35.0889 15.7945 35.1533 15.9234 35.1533H16.5034L21.9167 32.4467C22.0456 32.3178 22.1745 32.1245 22.3034 31.8667L21.53 31.6733V27.0333ZM34.4834 21.62L32.3567 19.4933L31.97 21.62L33.13 22.9733C34.4189 24.1333 35.0634 25.6156 35.0634 27.42V32.8333L31.39 31.0933V23.7467L30.4234 27.0333V31.6733L29.65 31.8667C29.7789 32.1245 29.9078 32.3178 30.0367 32.4467L35.45 35.1533L36.03 35.3467C36.1589 35.2178 36.32 35.0889 36.5134 34.96C36.7067 34.8311 36.8034 34.6378 36.8034 34.38V27.42C36.8034 25.1 36.03 23.1667 34.4834 21.62ZM25.9767 33.4133C24.8167 33.4133 23.6567 33.2845 22.4967 33.0267C21.8522 32.7689 21.3689 32.5756 21.0467 32.4467C20.7245 32.3178 20.5634 32.06 20.5634 31.6733V27.2267L19.4034 23.36C18.3722 19.3645 18.3722 15.3689 19.4034 11.3733C20.4345 7.37779 22.4322 3.96223 25.3967 1.12668C25.5256 0.8689 25.7189 0.740013 25.9767 0.740013C26.2345 0.740013 26.4278 0.8689 26.5567 1.12668C29.5211 3.96223 31.5189 7.37779 32.55 11.3733C33.5811 15.3689 33.5811 19.3645 32.55 23.36L31.39 27.2267V31.6733C31.39 32.06 31.2289 32.3178 30.9067 32.4467C30.5845 32.5756 30.1011 32.7689 29.4567 33.0267C28.2967 33.2845 27.1367 33.4133 25.9767 33.4133ZM22.3034 31.0933C23.4634 31.48 24.6878 31.6733 25.9767 31.6733C27.2656 31.6733 28.49 31.48 29.65 31.0933V26.84L30.81 22.9733C31.7122 19.3645 31.7445 15.82 30.9067 12.34C30.0689 8.86001 28.4256 5.76668 25.9767 3.06001C23.5278 5.76668 21.8845 8.86001 21.0467 12.34C20.2089 15.82 20.2411 19.3645 21.1434 22.9733L22.3034 27.0333V31.0933ZM24.2367 17.9467C24.2367 18.2045 24.3011 18.43 24.43 18.6233C24.5589 18.8167 24.7522 18.9133 25.01 18.9133C25.2678 18.9133 25.4934 18.8167 25.6867 18.6233C25.88 18.43 25.9767 18.2045 25.9767 17.9467C25.9767 17.6889 25.88 17.4956 25.6867 17.3667C25.4934 17.2378 25.2678 17.1733 25.01 17.1733C24.7522 17.1733 24.5589 17.2378 24.43 17.3667C24.3011 17.4956 24.2367 17.6889 24.2367 17.9467ZM24.2367 14.4667C24.2367 14.7245 24.3011 14.9178 24.43 15.0467C24.5589 15.1756 24.7522 15.24 25.01 15.24C25.2678 15.24 25.4934 15.1756 25.6867 15.0467C25.88 14.9178 25.9767 14.7245 25.9767 14.4667C25.9767 14.2089 25.88 13.9833 25.6867 13.79C25.4934 13.5967 25.2678 13.5 25.01 13.5C24.7522 13.5 24.5589 13.5967 24.43 13.79C24.3011 13.9833 24.2367 14.2089 24.2367 14.4667ZM25.9767 28C25.59 28 25.2678 28 25.01 28C24.7522 28 24.5267 27.9033 24.3334 27.71C24.14 27.5167 24.0756 27.2911 24.14 27.0333C24.2045 26.7756 24.3334 26.55 24.5267 26.3567C24.72 26.1633 24.9456 26.0667 25.2034 26.0667L25.9767 26.26C27.6522 26.26 29.0056 25.9378 30.0367 25.2933C30.2945 25.2933 30.5522 25.3256 30.81 25.39C31.0678 25.4545 31.2289 25.5833 31.2934 25.7767C31.3578 25.97 31.3578 26.1956 31.2934 26.4533C31.2289 26.7111 31.1322 26.9045 31.0034 27.0333C29.5856 27.6778 27.91 28 25.9767 28ZM41.4434 40.76C41.1856 40.76 40.96 40.6633 40.7667 40.47C40.5734 40.2767 40.4767 40.0511 40.4767 39.7933V28.9667C40.4767 28.7089 40.5734 28.4833 40.7667 28.29C40.96 28.0967 41.1856 28 41.4434 28C41.7011 28 41.8945 28.0967 42.0234 28.29C42.1522 28.4833 42.2167 28.7089 42.2167 28.9667V39.7933C42.2167 40.0511 42.1522 40.2767 42.0234 40.47C41.8945 40.6633 41.7011 40.76 41.4434 40.76ZM44.9234 33.4133C44.6656 33.4133 44.4722 33.3167 44.3434 33.1233C44.2145 32.93 44.15 32.7045 44.15 32.4467V19.88C44.15 19.6222 44.2145 19.3967 44.3434 19.2033C44.4722 19.01 44.6656 18.9133 44.9234 18.9133C45.1811 18.9133 45.4067 19.01 45.6 19.2033C45.7934 19.3967 45.89 19.6222 45.89 19.88V32.4467C45.89 32.7045 45.7934 32.93 45.6 33.1233C45.4067 33.3167 45.1811 33.4133 44.9234 33.4133ZM10.51 40.76C10.2522 40.76 10.0589 40.6633 9.93002 40.47C9.80114 40.2767 9.73669 40.0511 9.73669 39.7933V28.9667C9.73669 28.7089 9.80114 28.4833 9.93002 28.29C10.0589 28.0967 10.2522 28 10.51 28C10.7678 28 10.9934 28.0967 11.1867 28.29C11.38 28.4833 11.4767 28.7089 11.4767 28.9667V39.7933C11.4767 40.0511 11.38 40.2767 11.1867 40.47C10.9934 40.6633 10.7678 40.76 10.51 40.76ZM7.03002 31.6733C6.77225 31.6733 6.54669 31.5767 6.35336 31.3833C6.16002 31.19 6.06336 30.9645 6.06336 30.7067V19.88C6.06336 19.6222 6.16002 19.3967 6.35336 19.2033C6.54669 19.01 6.77225 18.9133 7.03002 18.9133C7.2878 18.9133 7.48114 19.01 7.61002 19.2033C7.73891 19.3967 7.80336 19.6222 7.80336 19.88V30.7067C7.80336 30.9645 7.73891 31.19 7.61002 31.3833C7.48114 31.5767 7.2878 31.6733 7.03002 31.6733ZM6.06336 34.38C6.06336 34.6378 6.16002 34.8633 6.35336 35.0567C6.54669 35.25 6.77225 35.3145 7.03002 35.25C7.2878 35.1856 7.48114 35.0889 7.61002 34.96C7.73891 34.8311 7.80336 34.6378 7.80336 34.38C7.80336 34.1222 7.73891 33.8967 7.61002 33.7033C7.48114 33.51 7.2878 33.4133 7.03002 33.4133C6.77225 33.4133 6.54669 33.51 6.35336 33.7033C6.16002 33.8967 6.06336 34.1222 6.06336 34.38Z" fill="white"/>
</svg>
