<svg width="63" height="62" viewBox="0 0 63 62" fill="none" xmlns="http://www.w3.org/2000/svg">
<path d="M14.89 22.9399C14.89 22.8022 14.7867 22.6299 14.58 22.4233C14.3733 22.2166 14.2011 22.1133 14.0633 22.1133C11.4456 22.1133 9.20668 23.0433 7.34668 24.9033C5.48668 26.7633 4.55668 29.0022 4.55668 31.6199C4.55668 31.7577 4.62557 31.9299 4.76334 32.1366C4.90112 32.3433 5.10779 32.4466 5.38334 32.4466C5.6589 32.4466 5.86557 32.3433 6.00334 32.1366C6.14112 31.9299 6.21001 31.7577 6.21001 31.6199C6.21001 29.4155 6.96779 27.5555 8.48334 26.0399C9.9989 24.5244 11.8589 23.7666 14.0633 23.7666C14.2011 23.7666 14.3733 23.6977 14.58 23.5599C14.7867 23.4222 14.89 23.2155 14.89 22.9399ZM22.1233 4.95993C20.8833 4.95993 19.7811 5.44216 18.8167 6.4066C17.8522 7.37104 17.37 8.47327 17.37 9.71326C17.37 9.98882 17.4389 10.2299 17.5767 10.4366C17.7145 10.6433 17.8867 10.7466 18.0933 10.7466C18.3 10.7466 18.5067 10.6433 18.7133 10.4366C18.92 10.2299 19.0233 9.98882 19.0233 9.71326C19.0233 8.47327 19.54 7.54327 20.5733 6.92327C21.6067 6.30327 22.6745 6.30327 23.7767 6.92327C24.8789 7.54327 25.43 8.47327 25.43 9.71326C25.43 9.98882 25.4989 10.2299 25.6367 10.4366C25.7745 10.6433 25.9811 10.7466 26.2567 10.7466C26.5322 10.7466 26.7389 10.6433 26.8767 10.4366C27.0145 10.2299 27.0833 9.98882 27.0833 9.71326C27.0833 8.47327 26.6011 7.37104 25.6367 6.4066C24.6722 5.44216 23.5011 4.95993 22.1233 4.95993ZM17.37 17.3599H17.7833C18.8856 17.3599 19.85 17.7388 20.6767 18.4966C21.5033 19.2544 21.9167 20.2533 21.9167 21.4933V24.1799C21.9167 25.2822 21.5033 26.2466 20.6767 27.0733C19.85 27.8999 18.8856 28.3133 17.7833 28.3133C17.5078 28.3133 17.3011 28.4166 17.1633 28.6233C17.0256 28.8299 16.9567 29.0366 16.9567 29.2433C16.9567 29.4499 17.0256 29.6222 17.1633 29.7599C17.3011 29.8977 17.5078 29.9666 17.7833 29.9666C19.4367 29.9666 20.8145 29.4155 21.9167 28.3133C23.0189 27.211 23.57 25.8333 23.57 24.1799V21.4933C23.57 19.8399 23.0189 18.4277 21.9167 17.2566C20.8145 16.0855 19.4367 15.4999 17.7833 15.4999H17.37C17.0945 15.4999 16.8878 15.6033 16.75 15.8099C16.6122 16.0166 16.5433 16.2233 16.5433 16.4299C16.5433 16.6366 16.6122 16.8433 16.75 17.0499C16.8878 17.2566 17.0945 17.3599 17.37 17.3599ZM22.7433 38.6466C23.0189 38.6466 23.2256 38.5433 23.3633 38.3366C23.5011 38.1299 23.57 37.9233 23.57 37.7166C23.57 37.5099 23.5011 37.3033 23.3633 37.0966C23.2256 36.8899 23.0189 36.7866 22.7433 36.7866H17.99C16.6122 36.7866 15.4411 36.3388 14.4767 35.4433C13.5122 34.5477 13.03 33.411 13.03 32.0333C13.03 31.7577 12.9611 31.551 12.8233 31.4133C12.6856 31.2755 12.4789 31.2066 12.2033 31.2066C11.9278 31.2066 11.7211 31.2755 11.5833 31.4133C11.4456 31.551 11.3767 31.7577 11.3767 32.0333C11.3767 33.8244 11.9967 35.3744 13.2367 36.6833C14.4767 37.9922 16.0611 38.6466 17.99 38.6466H22.7433ZM25.8433 48.5666C24.19 48.5666 22.7778 47.981 21.6067 46.8099C20.4356 45.6388 19.85 44.2266 19.85 42.5733C19.85 42.2977 19.7467 42.091 19.54 41.9533C19.3333 41.8155 19.1267 41.7466 18.92 41.7466C18.7133 41.7466 18.5411 41.8155 18.4033 41.9533C18.2656 42.091 18.1967 42.2977 18.1967 42.5733C18.1967 44.7777 18.9545 46.6377 20.47 48.1533C21.9856 49.6688 23.7767 50.4266 25.8433 50.4266C26.1189 50.4266 26.3256 50.3233 26.4633 50.1166C26.6011 49.9099 26.67 49.7033 26.67 49.4966C26.67 49.2899 26.6011 49.0833 26.4633 48.8766C26.3256 48.6699 26.1189 48.5666 25.8433 48.5666ZM13.8567 46.9133C13.1678 46.7755 12.6167 46.431 12.2033 45.8799C11.79 45.3288 11.5833 44.7088 11.5833 44.0199C11.7211 43.6066 11.6522 43.2966 11.3767 43.0899C11.1011 42.8833 10.8256 42.8488 10.55 42.9866C10.2745 43.1244 10.0678 43.331 9.93001 43.6066C9.79223 44.8466 10.0678 45.9488 10.7567 46.9133C11.4456 47.8777 12.41 48.4288 13.65 48.5666C13.9256 48.5666 14.1322 48.4977 14.27 48.3599C14.4078 48.2222 14.5111 48.0499 14.58 47.8433C14.6489 47.6366 14.58 47.4299 14.3733 47.2233C14.1667 47.0166 13.9945 46.9133 13.8567 46.9133ZM22.33 55.7999C21.3656 55.7999 20.5389 55.4555 19.85 54.7666C19.1611 54.0777 18.8167 53.251 18.8167 52.2866C18.8167 52.011 18.7133 51.7699 18.5067 51.5633C18.3 51.3566 18.0933 51.2533 17.8867 51.2533C17.68 51.2533 17.5078 51.3566 17.37 51.5633C17.2322 51.7699 17.1633 52.011 17.1633 52.2866C17.1633 53.6644 17.68 54.8699 18.7133 55.9033C19.7467 56.9366 20.9522 57.4533 22.33 57.4533C22.6056 57.4533 22.8467 57.3844 23.0533 57.2466C23.26 57.1088 23.3633 56.9366 23.3633 56.7299C23.3633 56.5233 23.26 56.3166 23.0533 56.1099C22.8467 55.9033 22.6056 55.7999 22.33 55.7999ZM58.7033 34.0999C58.0145 34.0999 57.4633 34.2377 57.05 34.5133L45.89 23.5599C45.7522 23.4222 45.5456 23.3533 45.27 23.3533H31.8367V17.9799H55.3967C55.6722 18.8066 56.1545 19.461 56.8433 19.9433C57.5322 20.4255 58.29 20.6322 59.1167 20.5633C59.9433 20.4944 60.6322 20.1499 61.1833 19.5299C61.7345 18.9099 62.01 18.1522 62.01 17.2566C62.01 16.361 61.7345 15.6033 61.1833 14.9833C60.6322 14.3633 59.9433 13.9844 59.1167 13.8466C58.29 13.7088 57.5322 13.881 56.8433 14.3633C56.1545 14.8455 55.6722 15.4999 55.3967 16.3266H31.8367V12.6066H45.27C45.5456 12.6066 45.7522 12.5377 45.89 12.3999L49.61 8.67994C50.2989 9.09327 51.0567 9.1966 51.8833 8.98994C52.71 8.78327 53.3645 8.33549 53.8467 7.6466C54.3289 6.95771 54.5356 6.19994 54.4667 5.37327C54.3978 4.5466 54.0533 3.82327 53.4333 3.20327C52.8133 2.58327 52.0556 2.27327 51.16 2.27327C50.2645 2.27327 49.5067 2.54882 48.8867 3.09993C48.2667 3.65105 47.8878 4.33994 47.75 5.1666C47.6122 5.99327 47.8189 6.81993 48.37 7.6466L45.0633 10.9533H31.8367V9.71326C31.8367 7.09549 30.9411 4.8566 29.15 2.9966C27.3589 1.1366 25.1545 0.137714 22.5367 -6.48499e-05C19.9189 -0.137844 17.6456 0.654381 15.7167 2.3766C13.7878 4.09882 12.7545 6.26883 12.6167 8.8866C10.55 9.16216 8.82779 10.0922 7.45001 11.6766C6.07223 13.261 5.38334 15.0866 5.38334 17.1533C5.38334 18.1177 5.59001 19.0822 6.00334 20.0466C4.21223 21.4244 2.76557 23.0777 1.66334 25.0066C0.561121 26.9355 0.0100098 29.0366 0.0100098 31.3099C0.0100098 33.5833 0.492232 35.7188 1.45668 37.7166C2.42112 39.7144 3.7989 41.4022 5.59001 42.7799C5.0389 45.1222 5.45223 47.3266 6.83001 49.3933C8.20779 51.4599 10.1367 52.6999 12.6167 53.1133C12.7545 55.5933 13.7878 57.6944 15.7167 59.4166C17.6456 61.1388 19.9189 61.9655 22.5367 61.8966C25.1545 61.8277 27.3589 60.8633 29.15 59.0033C30.9411 57.1433 31.8367 54.9044 31.8367 52.2866V52.0799H41.1367L44.65 56.8333C44.2367 57.5222 44.0645 58.2799 44.1333 59.1066C44.2022 59.9333 44.5467 60.6222 45.1667 61.1733C45.7867 61.7244 46.51 62.0344 47.3367 62.1033C48.1633 62.1722 48.9211 61.931 49.61 61.3799C50.2989 60.8288 50.7122 60.1055 50.85 59.2099C50.9878 58.3144 50.8156 57.5222 50.3333 56.8333C49.8511 56.1444 49.1967 55.6966 48.37 55.4899C47.5433 55.2833 46.7856 55.3177 46.0967 55.5933L42.17 50.8399C42.0322 50.5644 41.8256 50.4266 41.55 50.4266H31.8367V45.4666H40.7233C40.9989 46.1555 41.4811 46.741 42.17 47.2233C42.8589 47.7055 43.6167 47.9122 44.4433 47.8433C45.27 47.7744 45.9589 47.4299 46.51 46.8099C47.0611 46.1899 47.3367 45.4322 47.3367 44.5366C47.3367 43.641 47.0611 42.8833 46.51 42.2633C45.9589 41.6433 45.27 41.2988 44.4433 41.2299C43.6167 41.161 42.8589 41.3333 42.17 41.7466C41.4811 42.1599 40.9989 42.7799 40.7233 43.6066H31.8367V38.6466H46.0967C46.3722 39.4733 46.8545 40.1277 47.5433 40.6099C48.2322 41.0922 48.99 41.2644 49.8167 41.1266C50.6433 40.9888 51.3322 40.6099 51.8833 39.9899C52.4345 39.3699 52.71 38.6122 52.71 37.7166C52.71 36.821 52.4345 36.0633 51.8833 35.4433C51.3322 34.8233 50.6433 34.4788 49.8167 34.4099C48.99 34.341 48.2322 34.5477 47.5433 35.0299C46.8545 35.5122 46.3722 36.0977 46.0967 36.7866H31.8367V31.8266H37.0033C37.1411 32.6533 37.5889 33.2733 38.3467 33.6866C39.1045 34.0999 39.8967 34.2722 40.7233 34.2033C41.55 34.1344 42.2389 33.7555 42.79 33.0666C43.3411 32.3777 43.5822 31.6199 43.5133 30.7933C43.4445 29.9666 43.1345 29.2433 42.5833 28.6233C42.0322 28.0033 41.3433 27.6588 40.5167 27.5899C39.69 27.521 38.9322 27.7277 38.2433 28.2099C37.5545 28.6922 37.1411 29.3466 37.0033 30.1733H31.8367V25.0066H45.0633L55.81 35.7533C55.3967 36.4422 55.2245 37.1655 55.2933 37.9233C55.3622 38.681 55.6722 39.3355 56.2233 39.8866C56.7745 40.4377 57.4289 40.7477 58.1867 40.8166C58.9445 40.8855 59.6678 40.7477 60.3567 40.4033C61.0456 40.0588 61.5278 39.5077 61.8033 38.7499C62.0789 37.9922 62.1133 37.2688 61.9067 36.5799C61.7 35.891 61.2867 35.3055 60.6667 34.8233C60.0467 34.341 59.3922 34.0999 58.7033 34.0999ZM58.7033 15.4999C59.3922 15.4999 59.8745 15.8444 60.15 16.5333C60.4256 17.2222 60.3222 17.8422 59.84 18.3933C59.3578 18.9444 58.7722 19.0822 58.0833 18.8066C57.3945 18.531 57.05 18.0833 57.05 17.4633C57.05 16.8433 57.1878 16.361 57.4633 16.0166C57.7389 15.6722 58.1522 15.4999 58.7033 15.4999ZM51.0567 4.13327C51.6078 4.13327 52.0211 4.27105 52.2967 4.5466C52.5722 4.82216 52.71 5.20105 52.71 5.68327C52.71 6.16549 52.5722 6.57882 52.2967 6.92327C52.0211 7.26771 51.6422 7.43993 51.16 7.43993C50.6778 7.43993 50.2645 7.26771 49.92 6.92327C49.5756 6.57882 49.4033 6.16549 49.4033 5.68327C49.4033 5.20105 49.5756 4.82216 49.92 4.5466C50.2645 4.27105 50.6433 4.13327 51.0567 4.13327ZM49.1967 58.6933C49.1967 59.3822 48.8522 59.8644 48.1633 60.1399C47.4745 60.4155 46.8545 60.3122 46.3033 59.8299C45.7522 59.3477 45.6145 58.7622 45.89 58.0733C46.1656 57.3844 46.6133 57.0399 47.2333 57.0399C47.8533 57.0399 48.3356 57.2122 48.68 57.5566C49.0245 57.901 49.1967 58.2799 49.1967 58.6933ZM44.03 42.7799C44.8567 42.7799 45.4078 43.1244 45.6833 43.8133C45.9589 44.5022 45.8211 45.1222 45.27 45.6733C44.7189 46.2244 44.0989 46.3622 43.41 46.0866C42.7211 45.811 42.3767 45.3633 42.3767 44.7433C42.3767 44.1233 42.5489 43.641 42.8933 43.2966C43.2378 42.9522 43.6167 42.7799 44.03 42.7799ZM49.4033 36.1666C50.0922 36.1666 50.5745 36.4766 50.85 37.0966C51.1256 37.7166 51.0222 38.3022 50.54 38.8533C50.0578 39.4044 49.4722 39.5422 48.7833 39.2666C48.0945 38.991 47.75 38.5433 47.75 37.9233C47.75 37.3033 47.9222 36.8555 48.2667 36.5799C48.6111 36.3044 48.99 36.1666 49.4033 36.1666ZM40.1033 29.1399C40.93 29.1399 41.4811 29.4844 41.7567 30.1733C42.0322 30.8622 41.8945 31.4822 41.3433 32.0333C40.7922 32.5844 40.1722 32.7222 39.4833 32.4466C38.7945 32.171 38.45 31.7233 38.45 31.1033C38.45 30.4833 38.6222 30.001 38.9667 29.6566C39.3111 29.3122 39.69 29.1399 40.1033 29.1399ZM30.1833 52.2866C30.1833 54.491 29.3911 56.351 27.8067 57.8666C26.2222 59.3822 24.3622 60.1399 22.2267 60.1399C20.0911 60.1399 18.2311 59.3822 16.6467 57.8666C15.0622 56.351 14.27 54.491 14.27 52.2866C14.27 52.011 14.2011 51.8044 14.0633 51.6666C13.9256 51.5288 13.7189 51.4599 13.4433 51.4599C12.3411 51.3222 11.3422 51.0122 10.4467 50.5299C9.55112 50.0477 8.82779 49.3933 8.27668 48.5666C7.72556 47.7399 7.38112 46.8099 7.24334 45.7766C7.10557 44.7433 7.17445 43.7444 7.45001 42.7799C7.58779 42.3666 7.45001 42.0222 7.03668 41.7466C5.38334 40.6444 4.07445 39.1633 3.11001 37.3033C2.14557 35.4433 1.66334 33.4799 1.66334 31.4133C1.66334 29.3466 2.18001 27.3833 3.21334 25.5233C4.24668 23.6633 5.6589 22.1822 7.45001 21.0799C7.72557 20.9422 7.86334 20.7699 7.86334 20.5633C7.86334 20.3566 7.86334 20.1844 7.86334 20.0466C7.31223 19.0822 7.07112 18.0488 7.14001 16.9466C7.2089 15.8444 7.5189 14.811 8.07001 13.8466C8.62112 12.8822 9.3789 12.0899 10.3433 11.4699C11.3078 10.8499 12.3411 10.5399 13.4433 10.5399C13.7189 10.5399 13.9256 10.4366 14.0633 10.2299C14.2011 10.0233 14.27 9.85104 14.27 9.71326V9.5066C14.27 7.43993 15.0622 5.61438 16.6467 4.02993C18.2311 2.44549 20.0911 1.65327 22.2267 1.65327C24.3622 1.65327 26.2222 2.44549 27.8067 4.02993C29.3911 5.61438 30.1833 7.50882 30.1833 9.71326V52.2866ZM58.7033 39.0599C57.8767 39.0599 57.3256 38.7155 57.05 38.0266C56.7745 37.3377 56.9122 36.7522 57.4633 36.2699C58.0145 35.7877 58.6345 35.6844 59.3233 35.9599C60.0122 36.2355 60.3567 36.6833 60.3567 37.3033C60.3567 37.9233 60.1845 38.371 59.84 38.6466C59.4956 38.9222 59.1167 39.0599 58.7033 39.0599ZM56.2233 21.9066C55.5345 21.9066 54.88 22.0788 54.26 22.4233C53.64 22.7677 53.2267 23.2499 53.02 23.8699C52.8133 24.4899 52.7789 25.1444 52.9167 25.8333C53.0545 26.5222 53.3645 27.1077 53.8467 27.5899C54.3289 28.0722 54.88 28.3822 55.5 28.5199C56.12 28.6577 56.74 28.5888 57.36 28.3133C57.98 28.0377 58.4967 27.6244 58.91 27.0733C59.3233 26.5222 59.53 25.8333 59.53 25.0066C59.53 24.1799 59.1856 23.4566 58.4967 22.8366C57.8078 22.2166 57.05 21.9066 56.2233 21.9066ZM56.2233 26.8666C55.3967 26.8666 54.8456 26.5222 54.57 25.8333C54.2945 25.1444 54.4322 24.5588 54.9833 24.0766C55.5345 23.5944 56.1545 23.491 56.8433 23.7666C57.5322 24.0422 57.8767 24.4555 57.8767 25.0066C57.8767 25.5577 57.7045 26.0055 57.36 26.3499C57.0156 26.6944 56.6367 26.8666 56.2233 26.8666ZM56.2233 44.8466C55.5345 44.8466 54.88 45.0533 54.26 45.4666C53.64 45.8799 53.2267 46.3966 53.02 47.0166C52.8133 47.6366 52.7789 48.291 52.9167 48.9799C53.0545 49.6688 53.3645 50.2544 53.8467 50.7366C54.3289 51.2188 54.88 51.4944 55.5 51.5633C56.12 51.6322 56.74 51.5633 57.36 51.3566C57.98 51.1499 58.4967 50.7366 58.91 50.1166C59.3233 49.4966 59.53 48.8077 59.53 48.0499C59.53 47.2922 59.1856 46.5688 58.4967 45.8799C57.8078 45.191 57.05 44.8466 56.2233 44.8466ZM56.2233 50.0133C55.3967 50.0133 54.8456 49.6688 54.57 48.9799C54.2945 48.291 54.4322 47.671 54.9833 47.1199C55.5345 46.5688 56.1545 46.431 56.8433 46.7066C57.5322 46.9822 57.8767 47.4299 57.8767 48.0499C57.8767 48.6699 57.7045 49.1522 57.36 49.4966C57.0156 49.841 56.6367 50.0133 56.2233 50.0133Z" fill="#E21B22"/>
</svg>
