<svg width="162" height="114" viewBox="0 0 162 114" fill="none" xmlns="http://www.w3.org/2000/svg">
<path d="M39.8432 113.823C30.2108 114.71 21.8919 112.269 14.8865 106.501C8.31892 100.288 3.94054 92.3005 1.75135 82.538C0 74.1067 -0.437838 65.4535 0.437838 56.5784C1.75135 47.2596 4.5973 38.8283 8.97568 31.2845C13.7919 23.297 20.3595 16.4188 28.6784 10.6501C36.9973 4.88128 47.5054 1.33126 60.2027 0L64.8 16.6407C58.2324 18.4157 51.227 21.522 43.7838 25.9595C36.3405 30.397 31.5243 37.9408 29.3351 48.5909L39.1865 46.594C49.2568 46.1503 57.7946 49.0346 64.8 55.2472C72.2432 61.4597 75.9649 69.2254 75.9649 78.5442C75.9649 87.863 72.4622 96.0724 65.4568 103.172C58.4514 109.829 49.9135 113.379 39.8432 113.823ZM126.535 113.823C116.465 114.71 108.146 112.269 101.578 106.501C95.0108 100.288 90.6324 92.3005 88.4432 82.538C86.2541 74.1067 85.8162 65.4535 87.1297 56.5784C88.4432 47.2596 91.2892 38.8283 95.6676 31.2845C100.484 23.297 107.051 16.4188 115.37 10.6501C123.689 4.88128 133.978 1.33126 146.238 0L151.492 16.6407C144.924 18.4157 137.7 21.522 129.819 25.9595C122.376 30.397 117.559 37.9408 115.37 48.5909C117.122 48.1471 118.654 47.9253 119.968 47.9253C121.719 47.4815 123.689 47.0378 125.878 46.594C135.949 46.1503 144.486 49.0346 151.492 55.2472C158.497 61.4597 162 69.2254 162 78.5442C162 87.863 158.497 96.0724 151.492 103.172C144.924 109.829 136.605 113.379 126.535 113.823Z" fill="#E21B22"/>
</svg>
