<svg width="150" height="104" viewBox="0 0 150 104" fill="none" xmlns="http://www.w3.org/2000/svg">
<path d="M118.066 104H89.502C89.502 104 90.5762 103.064 92.7246 101.193C94.7754 99.223 97.0703 96.7115 99.6094 93.6581C102.148 90.6048 104.443 87.1083 106.494 83.1686C108.643 79.3273 109.717 75.3875 109.717 71.3493C104.248 70.0689 99.6094 68.1975 95.8008 65.7351C92.0898 63.2728 89.0625 60.4411 86.7188 57.2401C84.375 54.039 82.7148 50.6163 81.7383 46.9721C80.7617 43.3278 80.2734 39.6835 80.2734 36.0393C80.2734 31.2131 81.1523 26.6331 82.9102 22.2994C84.7656 18.0641 87.2559 14.3706 90.3809 11.2188C93.5059 8.06701 97.2168 5.55541 101.514 3.68403C105.713 1.81264 110.205 0.876953 114.99 0.876953C119.775 0.876953 124.316 1.81264 128.613 3.68403C132.812 5.55541 136.475 8.06701 139.6 11.2188C142.725 14.3706 145.215 18.0641 147.07 22.2994C148.926 26.6331 149.854 31.2131 149.854 36.0393C149.854 36.1377 149.829 36.2362 149.78 36.3347C149.731 36.4332 149.707 36.5317 149.707 36.6302C149.805 36.6302 149.878 36.6302 149.927 36.6302C149.976 36.6302 150 36.6302 150 36.6302C150 49.0404 148.34 59.53 145.02 68.099C141.699 76.668 138.037 83.6118 134.033 88.9304C130.029 94.2491 126.367 98.0904 123.047 100.454C119.727 102.818 118.066 104 118.066 104ZM37.9395 104H9.22852C9.22852 104 10.3027 103.064 12.4512 101.193C14.5996 99.223 16.9189 96.7115 19.4092 93.6581C21.8994 90.6048 24.2188 87.1083 26.3672 83.1686C28.418 79.3273 29.4434 75.3875 29.4434 71.3493C23.9746 70.0689 19.3848 68.1975 15.6738 65.7351C11.8652 63.2728 8.81348 60.4411 6.51855 57.2401C4.22363 54.039 2.53906 50.6163 1.46484 46.9721C0.488281 43.3278 0 39.6835 0 36.0393C0 31.2131 0.927734 26.6331 2.7832 22.2994C4.54102 18.0641 7.00684 14.3706 10.1807 11.2188C13.3545 8.06701 17.041 5.55541 21.2402 3.68403C25.4395 1.81264 29.9805 0.876953 34.8633 0.876953C39.6484 0.876953 44.1406 1.81264 48.3398 3.68403C52.5391 5.55541 56.2256 8.06701 59.3994 11.2188C62.5732 14.3706 65.0391 18.0641 66.7969 22.2994C68.6523 26.6331 69.5801 31.2131 69.5801 36.0393C69.5801 36.1377 69.5801 36.2362 69.5801 36.3347C69.5801 36.4332 69.5801 36.5317 69.5801 36.6302C69.5801 36.6302 69.6045 36.6302 69.6533 36.6302C69.7021 36.6302 69.7266 36.6302 69.7266 36.6302C69.7266 49.0404 68.0664 59.53 64.7461 68.099C61.4258 76.668 57.7881 83.6118 53.833 88.9304C49.8779 94.2491 46.2402 98.0904 42.9199 100.454C39.5996 102.818 37.9395 104 37.9395 104Z" fill="#F1F1F1"/>
</svg>
